<?xml version="1.0" standalone="no"?>
<!DOCTYPE svg PUBLIC "-//W3C//DTD SVG 1.1//EN" "http://www.w3.org/Graphics/SVG/1.1/DTD/svg11.dtd" >
<svg xmlns="http://www.w3.org/2000/svg">
<metadata></metadata>
<defs>
<font id="cut_me_out_3regular" horiz-adv-x="1828" >
<font-face units-per-em="2000" ascent="1600" descent="-400" />
<missing-glyph horiz-adv-x="600" />
<glyph unicode="&#xd;" horiz-adv-x="2000" />
<glyph unicode=" "  horiz-adv-x="600" />
<glyph unicode="&#x09;" horiz-adv-x="600" />
<glyph unicode="&#xa0;" horiz-adv-x="600" />
<glyph unicode="!" horiz-adv-x="562" d="M281 53q26 0 49 10t40.5 27.5t28 40.5t10.5 49t-10.5 49t-28 40.5t-40.5 28t-49 10.5t-49.5 -10t-41 -27.5t-27.5 -41t-10 -49.5t10 -49.5t27.5 -40.5t41 -27t49.5 -10zM127 1627h306l27 -27v-994l-13 -13v-340q7 -17 11 -35.5t4 -37.5t-4 -37.5t-11 -35.5v-80l-14 -14 h-84q-32 -13 -68 -13t-68 13h-86l-14 14v85q-13 32 -13 68t13 68v345l-13 13v994zM407 1574h-254v-941h254v941z" />
<glyph unicode="&#x22;" horiz-adv-x="1032" d="M443 1614h144l13 13h307l25 -35q0 -1 -2 -6.5t-4.5 -11.5t-4 -11l-1.5 -5v-1531l-13 -14h-780l-14 14v1120l-13 13v440l27 27h306zM869 1574h-242v-387h108zM396 1574h-243v-387h108z" />
<glyph unicode="#" horiz-adv-x="1192" d="M153 994h201l25 -35l-44 -153l-26 -19h-156v-101h111l26 -34l-60 -205h112l64 220l26 19h168l25 -34l-60 -205h112l65 220l25 19h272v101h-227l-25 34l45 153l25 20h182v100h-137l-26 34l60 205h-112l-64 -220l-26 -19h-167l-26 34l60 205h-112l-65 -220l-25 -19h-246 v-100zM127 1614h939l13 -14v-466l13 -14v-153l-13 -13v-127l13 -14v-154l-13 -13v-619l-13 -14h-939l-14 14v619l-13 13v154l13 14v127l-13 13v153l13 14v466zM644 787h-167l-26 34l45 153l26 20h167l26 -35l-45 -153z" />
<glyph unicode="$" horiz-adv-x="1118" d="M1018 1063l-14 -14v-380q0 -7 2.5 -16.5t4.5 -16.5q7 -34 7 -72t-7 -72q-1 -7 -4 -17t-3 -16v-433l-13 -14h-317l-13 -13h-204l-13 13h-316l-14 14v433q0 6 -3 16t-4 17q-7 34 -7 72l14 15v378q0 7 -2.5 16.5t-4.5 16.5q-7 34 -7 72t7 72q2 7 4.5 16.5t2.5 16.5v432 l14 14h316l13 13h204l13 -13h317l13 -14v-432q0 -6 2.5 -14t3.5 -15q8 -38 8 -75zM658 1403l-24 27v143h-150v-143l-24 -27q-65 -8 -121 -37.5t-97.5 -75t-65 -104t-23.5 -124.5q0 -65 24 -123.5t65 -104.5t97 -76t121 -37l24 -26v-253l-35 -25q-40 12 -69 45.5t-36 75.5 h-190q4 -62 29.5 -116t67 -96t95.5 -69t114 -34l24 -27v-144h150v144l24 27q64 7 120 37t97.5 76t65.5 104.5t24 123.5t-24 123.5t-65.5 104.5t-97.5 75.5t-120 37.5l-24 27v250l37 25q38 -17 62 -47.5t32 -70.5h199q-5 62 -30.5 116t-66 95.5t-94.5 68t-115 34.5zM449 1210 l35 -25v-244l-35 -26q-49 16 -78 56.5t-29 91.5t29.5 91t77.5 56zM671 421l-37 24v239l37 24q45 -17 70.5 -57t25.5 -87t-25.5 -86.5t-70.5 -56.5z" />
<glyph unicode="%" horiz-adv-x="1645" d="M1473 1574h-236l-1059 -1521h235zM1517 480q25 -59 25 -127t-25 -127v-199l-13 -14h-228q-8 0 -18 -3t-18 -5q-36 -6 -72 -6q-37 0 -71 6q-8 2 -18 5t-18 3l-612 -1l-22 -12h-300l-22 42l8 12v1123q0 6 -2.5 14.5t-4.5 14.5q-6 31 -6 65q0 33 6 68q2 5 4.5 13.5t2.5 13.5 v234l14 14h245q6 0 16.5 3l17.5 5q17 3 33.5 4t33.5 1t34 -1t34 -4l17.5 -5t16.5 -3h625l1 2l22 11h301l21 -42l-28 -40v-1065zM1168 656q-63 0 -121 -23t-102 -63.5t-70.5 -96t-26.5 -120.5t26.5 -120t70.5 -95.5t102 -63t121 -22.5t121 22.5t102.5 62.5t71 95.5 t26.5 120.5q0 66 -26.5 121.5t-70.5 96t-102 63t-122 22.5zM1168 493q-29 0 -55 -11t-46 -30t-32 -44.5t-12 -54.5t12 -54.5t32 -44.5t46 -29.5t55 -10.5q28 0 54.5 10.5t47 29.5t32.5 44.5t12 54.5t-12 54.5t-32.5 44.5t-47 30t-54.5 11zM473 1574q-63 0 -121 -23 t-102 -63.5t-70.5 -96t-26.5 -120.5t26.5 -120t71 -95.5t102 -63.5t120.5 -23t120.5 23t102 63.5t71 95.5t26.5 120q0 66 -26 121.5t-70 96t-102 63t-122 22.5zM473 1411q28 0 54.5 -11t47 -30t32.5 -44.5t12 -54.5t-12 -54.5t-32.5 -44.5t-47 -29.5t-54.5 -10.5 q-29 0 -55.5 10.5t-46.5 29t-31.5 44t-11.5 55.5q0 29 12 54.5t32 44.5t46 30t55 11z" />
<glyph unicode="&#x26;" horiz-adv-x="1357" d="M597 1320q36 0 68.5 -13t58 -36t42 -54t20.5 -67h254q-4 88 -40.5 165.5t-96.5 135t-139 90.5t-167 33q-91 0 -172 -35t-141.5 -95.5t-95.5 -141.5t-35 -172q0 -85 29.5 -160.5t86.5 -138.5v-36q-57 -63 -86.5 -139t-29.5 -161q0 -92 35 -172.5t95.5 -140.5t141 -95 t172.5 -35q82 0 160.5 29t138.5 86h36q55 -53 126 -81t146 -33v254q-34 4 -64 20.5t-52 42t-34.5 57t-12.5 65.5v6v-2v163l27 27h136v254h-486v-254h42l27 -27q0 -38 0.5 -76t0.5 -76q0 -41 -14 -77.5t-39.5 -64t-60.5 -44t-77 -16.5q-39 0 -73.5 15t-60.5 41t-41 60.5 t-15 73.5q0 36 12.5 68t34.5 56.5t52 41t65 22.5v259q-35 5 -65 21.5t-52 41.5t-34.5 57t-12.5 68q0 39 15 73.5t41 60.5t60.5 41t73.5 15zM128 1614h354q8 0 17.5 3t17.5 4q20 4 40 5t40 1q40 0 79 -6q8 -1 18 -4t18 -3h519l13 -14v-620l13 -13v-308l-13 -13v-301l13 -13 v-306l-26 -27q-20 0 -41 1.5t-41 5.5q-8 2 -19 4.5t-19 2.5h-395q-8 0 -19 -2.5t-19 -4.5q-20 -3 -40.5 -5t-40.5 -2q-43 0 -81 7q-8 2 -19 4.5t-19 2.5h-350l-13 14v348q0 8 -3 18.5t-5 18.5q-4 20 -5.5 41t-1.5 42t1.5 42t5.5 41q2 8 5 18.5t3 18.5v396q0 8 -3 18t-5 18 q-4 21 -5.5 41.5t-1.5 41.5t1.5 42t5.5 41q2 8 5 18.5t3 18.5v350z" />
<glyph unicode="'" horiz-adv-x="558" d="M447 27l-14 -14h-306l-14 14v1120l-13 13v440l27 27h306l25 -35q0 -1 -2 -6.5t-4 -11.5t-3.5 -11l-1.5 -5v-1531zM396 1574h-243v-387h108z" />
<glyph unicode="(" horiz-adv-x="736" d="M127 1614h188l23 13h276l22 -42l-8 -11v-1520l8 -12l-22 -42h-276l-23 13h-188l-14 14v578q0 17 -3 35t-5 35q-2 35 -3.5 69t-1.5 69t1.5 69t3.5 69q2 17 5 35.5t3 35.5v578zM563 1574h-209q-100 -174 -150.5 -367.5t-50.5 -393.5q0 -98 12.5 -197t38 -196t63 -189.5 t87.5 -177.5h209q-115 167 -173.5 362.5t-58.5 397.5q0 204 59.5 397.5t172.5 363.5z" />
<glyph unicode=")" horiz-adv-x="736" d="M173 1574q113 -170 172.5 -363.5t59.5 -397.5q0 -100 -15 -200.5t-44.5 -197t-72.5 -188t-100 -174.5h209q99 172 150 367t51 393q0 200 -50.5 393.5t-150.5 367.5h-209zM623 1600v-578q0 -17 3 -35.5t5 -35.5q2 -35 3.5 -69t1.5 -69t-1.5 -69t-3.5 -69q-2 -17 -5 -35 t-3 -35v-578l-14 -14h-188l-23 -13h-276l-22 42l8 12v1520l-8 11l22 42h276l23 -13h188z" />
<glyph unicode="*" horiz-adv-x="745" d="M630 1452l15 -27l-10 -36l-5 -3v-58l5 -4l10 -36l-15 -27v-1234l-14 -14h-487l-14 14v1234l-15 27l10 36l5 4v58l-5 3l-10 36l15 27v148l14 14h153l14 13h153l14 -13h153l14 -14v-148zM423 1490v87l-101 -3v-84l-40 -23l-72 42l-51 -87l73 -42v-46l-73 -42l51 -87l72 42 l40 -23v-84h101v84l40 23l72 -42l51 87l-73 42v46l73 42l-51 87l-72 -42z" />
<glyph unicode="+" horiz-adv-x="795" d="M320 598v-140h154v140l27 27h140v162h-140l-27 27v140h-154v-140l-27 -27h-140v-162h140zM113 27v558l-13 13v216l13 13v773l14 14h541l13 -14v-773l14 -13v-216l-14 -13v-558l-13 -14h-541z" />
<glyph unicode="," horiz-adv-x="558" d="M127 1614h306l14 -14v-1126l11 -17q0 -1 -2 -6t-4 -11t-3.5 -11l-1.5 -5v-397l-14 -14h-134l-19 -13h-153l-27 27v439l13 13v1121zM396 439h-243v-386h108z" />
<glyph unicode="-" horiz-adv-x="741" d="M587 841h-434v-154h434v154zM113 27v620l-13 13v208l13 13v719l14 14h487l13 -14v-719l14 -13v-208l-14 -13v-620l-13 -14h-487z" />
<glyph unicode="." horiz-adv-x="562" d="M281 53q26 0 49 10t40.5 27.5t28 40.5t10.5 49t-10.5 49t-28 40.5t-40.5 28t-49 10.5t-49.5 -10t-41 -27.5t-27.5 -41t-10 -49.5t10 -49.5t27.5 -40.5t41 -27t49.5 -10zM127 1614h306l14 -14v-1347q7 -17 11 -35.5t4 -37.5t-4 -37.5t-11 -35.5v-80l-14 -14h-84 q-32 -13 -68 -13t-68 13h-86l-14 14v85q-13 32 -13 68t13 68v1352z" />
<glyph unicode="/" horiz-adv-x="1116" d="M953 1574h-202l-587 -1521h202zM732 1627h259l25 -36l-19 -50v-1514l-13 -14h-581l-19 -13h-259l-25 36l11 30v1534l14 14h588z" />
<glyph unicode="0" horiz-adv-x="1194" d="M127 1618h376q7 0 15 2t15 3q16 2 32 3t32 1q17 0 33 -1t33 -3q7 -1 14.5 -3t14.5 -2h376l13 -13v-360q0 -8 3 -18t4 -18q6 -39 6 -79v-635q0 -20 -1 -40t-5 -40q-1 -8 -4 -17.5t-3 -17.5v-349l-13 -13h-335q-8 0 -20.5 -4t-22.5 -6q-45 -9 -93 -9t-94 9q-9 2 -21.5 6 t-20.5 4h-334l-14 13v348q0 8 -2.5 18.5t-4.5 18.5q-6 39 -6 79v635q0 40 6 79q2 8 4.5 18.5t2.5 18.5v359zM597 1320q39 0 73.5 -15t60.5 -41t41 -60.5t15 -73.5v-635q0 -39 -15 -73.5t-41 -60.5t-60.5 -41t-73.5 -15t-73.5 15t-60.5 41t-41 60.5t-15 73.5v635q0 39 15 74 t40.5 60.5t60.5 40.5t74 15zM1041 495v635q0 91 -35.5 171.5t-96 141t-141 96t-171.5 35.5t-172 -35t-141.5 -95.5t-95.5 -141.5t-35 -172v-635q0 -92 35 -172.5t95.5 -140.5t141 -95t172.5 -35q93 0 174 34.5t141 94t94.5 140.5t34.5 174z" />
<glyph unicode="1" horiz-adv-x="791" d="M113 1035l-13 6v364q2 3 6 12.5t7 11.5v176l14 13h215q3 4 12.5 8.5t13.5 4.5h296l27 -26v-1574l-27 -27h-296l-13 14h-228l-14 13v1004zM153 1098l198 163l44 -20v-1183h242v1520h-259l-225 -185v-295z" />
<glyph unicode="2" horiz-adv-x="1194" d="M597 1320q39 0 73.5 -15t60.5 -41t41 -60.5t15 -73.5q0 -40 -15 -74t-40.5 -59.5t-60 -40.5t-73.5 -16l-1 -1q-90 0 -171 -35t-141.5 -95.5t-96 -141t-35.5 -171.5q0 -112 0.5 -221.5t1.5 -221.5h886v254h-607l-27 26v162q0 39 15 73.5t41 60.5t60 41t73 15l1 1 q91 0 172 35t141.5 95.5t95.5 141t35 172.5q0 91 -35.5 171.5t-96 141t-141 96t-171.5 35.5q-88 0 -166 -32.5t-137.5 -89t-96.5 -132.5t-43 -163h255q5 35 22 65t42 51.5t57 34t67 12.5zM115 1115l-15 15q0 21 1.5 42t5.5 41q2 8 5 18.5t3 18.5v350l13 14h354q8 0 17.5 3 t17.5 4q20 4 40 5t40 1q40 0 79 -6q8 -1 18 -4t18 -3h356l13 -14v-355q0 -8 3 -18t4 -18q6 -39 6 -79q0 -20 -1 -40t-5 -40q-1 -8 -4 -17.5t-3 -17.5v-668l13 -14v-306l-26 -27h-940l-27 27l-1 468q0 21 1.5 42t5.5 42q2 8 5 18t3 18v500z" />
<glyph unicode="3" horiz-adv-x="1194" d="M113 1110l-13 13v6v-2q0 39 6 78q1 9 4 20t3 20v355l14 14h355q8 0 17.5 3t17.5 4q20 4 40 5t40 1q40 0 79 -6q8 -1 18 -4t18 -3h354l14 -14v-350q0 -9 2.5 -20t4.5 -19q3 -20 5 -40.5t2 -40.5q0 -43 -7 -81q-2 -8 -4.5 -19t-2.5 -19v-396q0 -9 2.5 -20t4.5 -19 q3 -20 5 -40.5t2 -40.5t-1.5 -41t-5.5 -41q-2 -8 -4.5 -19t-2.5 -19v-348l-14 -14h-349q-9 0 -20 -2.5t-19 -4.5q-20 -3 -40.5 -5t-40.5 -2q-43 0 -81 7q-8 2 -19 4.5t-19 2.5h-351l-14 14v353q0 8 -3 19t-4 20q-6 39 -6 78v-2v8l13 13v594zM597 1320q39 0 73.5 -15 t60.5 -41t41 -60.5t15 -73.5q0 -35 -12.5 -67t-34 -57.5t-51.5 -42t-65 -21.5v-259q35 -6 65 -22.5t51.5 -41.5t34 -56.5t12.5 -67.5q0 -39 -15 -73.5t-41 -60.5t-60.5 -41t-73.5 -15q-36 0 -68.5 13t-58 36t-42 54t-20.5 67h-254q4 -89 40.5 -166t96.5 -134t138.5 -90 t167.5 -33q91 0 172 35t141.5 95t95.5 140.5t35 172.5q0 85 -31 160.5t-85 139.5v36q56 63 86 138.5t30 160.5q0 91 -35.5 171.5t-96 141t-141 96t-171.5 35.5q-89 0 -167.5 -33t-138.5 -90.5t-96.5 -135t-40.5 -165.5h254q4 36 20.5 67.5t42 54t58 35.5t68.5 13z" />
<glyph unicode="4" horiz-adv-x="1193" d="M408 601l146 327l51 -11v-327l-27 -27h-145zM113 625v980l14 13h431l20 13h296l14 -13h178l14 -13v-1002l13 -13v-307l-13 -14v-238l-14 -13h-178l-14 -14h-296l-13 14h-438l-14 13v238l-13 14v307q0 7 5 18t8 17zM596 1578l-443 -993v-276h425l27 -26v-225h243v225 l26 26h166v254h-166l-26 27v988h-252z" />
<glyph unicode="5" horiz-adv-x="1194" d="M1080 769q0 -8 2.5 -19t4.5 -19q4 -20 5.5 -41t1.5 -41v-154q0 -20 -1.5 -41t-5.5 -41q-2 -8 -4.5 -19t-2.5 -19v-348l-14 -14h-349q-9 0 -20 -2.5t-19 -4.5q-20 -3 -40.5 -5t-40.5 -2q-43 0 -81 7q-8 2 -19 4.5t-19 2.5h-351l-14 14v353q0 8 -3 17.5t-4 17.5 q-4 20 -5 40t-1 40l13 14v291l-13 13v787l27 27h939l27 -27v-307l-13 -13v-511zM434 1093l-27 26v174l27 27h606v254h-887v-734l444 -1q39 0 73.5 -15t60.5 -41t41 -60.5t15 -73.5v-154q0 -39 -15 -73.5t-41 -60.5t-60.5 -41t-73.5 -15q-35 0 -67 12.5t-57.5 34.5t-42 52 t-21.5 65h-255q6 -87 43 -163.5t96.5 -132.5t137.5 -88.5t166 -32.5q91 0 172 35t141.5 95t95.5 140.5t35 172.5v154q0 93 -34.5 174t-94.5 141t-141 94.5t-174 34.5h-163z" />
<glyph unicode="6" horiz-adv-x="1194" d="M597 939q-79 0 -154 -27l-36 25v193q0 39 15 73.5t41 60.5t60.5 41t73.5 15q36 0 67.5 -12.5t56 -34t41.5 -51.5t23 -65h255q-6 87 -43 163t-97 132.5t-138 89t-165 32.5q-91 0 -172 -35t-141.5 -95.5t-95.5 -141.5t-35 -172v-635q0 -92 35 -172.5t95.5 -140.5t141 -95 t172.5 -35q91 0 172 35t141.5 95t95.5 140.5t35 172.5q0 91 -35 172t-95.5 141.5t-141.5 95.5t-172 35zM127 1614h355q8 0 17.5 3t17.5 4q20 4 40 5t40 1q40 0 79 -6q8 -1 18 -4t18 -3h356l13 -14v-355q0 -8 3 -18t4 -18q6 -39 6 -79l-13 -13v-507q0 -8 3 -18t4 -18 q6 -39 6 -79q0 -20 -1 -40t-5 -40q-1 -8 -4 -17.5t-3 -17.5v-353l-13 -14h-351q-9 0 -20 -2.5t-19 -4.5q-20 -3 -40.5 -5t-40.5 -2q-43 0 -81 7q-8 2 -19 4.5t-19 2.5h-351l-14 14v353q0 8 -3 19t-4 20q-6 37 -6 76v635q0 38 6 76q1 9 4 20t3 19v355zM597 685q39 0 73.5 -15 t60.5 -41t41 -60.5t15 -73.5t-15 -73.5t-41 -60.5t-60.5 -41t-73.5 -15t-73.5 15t-60.5 41t-41 60.5t-15 73.5t15 74t40.5 60.5t60.5 40.5t74 15z" />
<glyph unicode="7" horiz-adv-x="1230" d="M113 1284l-13 13v308l27 26h977l26 -33q0 -2 -2 -9t-4.5 -15t-4 -14.5t-1.5 -7.5v-1521l-14 -13h-404l-17 -14h-330l-10 14h-216l-14 13v1253zM153 1324h540l26 -33l-331 -1233h274l408 1520h-917v-254z" />
<glyph unicode="8" horiz-adv-x="1194" d="M127 1618h376q7 0 15 2t15 3q16 2 32 3t32 1q17 0 33 -1t33 -3q7 -1 14.5 -3t14.5 -2h376l13 -13v-360q0 -8 3 -18t4 -18q6 -39 6 -79q0 -20 -1 -40t-5 -40q-1 -8 -4 -17.5t-3 -17.5v-405q0 -8 3 -18t4 -18q6 -39 6 -79q0 -20 -1 -40t-5 -40q-1 -8 -4 -17.5t-3 -17.5 v-349l-13 -13h-335q-8 0 -20.5 -4t-22.5 -6q-45 -9 -93 -9t-94 9q-9 2 -21.5 6t-20.5 4h-334l-14 13v348q0 8 -2.5 18.5t-4.5 18.5q-6 39 -6 79t6 79q2 8 4.5 18.5t2.5 18.5v404q0 8 -3 18.5t-4 19.5q-6 37 -6 77t6 79q2 8 4.5 18.5t2.5 18.5v359zM597 1320q39 0 73.5 -15 t60.5 -41t41 -60.5t15 -73.5t-15 -73.5t-41 -60.5t-60.5 -41t-73.5 -15t-73.5 15t-60.5 41t-41 60.5t-15 73.5t15 74t40.5 60.5t60.5 40.5t74 15zM269 795q-57 -63 -86.5 -139t-29.5 -161q0 -92 35 -172.5t95.5 -140.5t141 -95t172.5 -35q91 0 172 35t141.5 95t95.5 140.5 t35 172.5q0 85 -31 161t-85 139v36q56 63 86 138.5t30 160.5q0 91 -35.5 171.5t-96 141t-141 96t-171.5 35.5t-172 -35t-141.5 -95.5t-95.5 -141.5t-35 -172q0 -85 29.5 -160.5t86.5 -138.5v-36zM597 685q39 0 73.5 -15t60.5 -41t41 -60.5t15 -73.5t-15 -73.5t-41 -60.5 t-60.5 -41t-73.5 -15t-73.5 15t-60.5 41t-41 60.5t-15 73.5t15 74t40.5 60.5t60.5 40.5t74 15z" />
<glyph unicode="9" horiz-adv-x="1194" d="M787 689v-194q0 -39 -15 -73.5t-41 -60.5t-60.5 -41t-73.5 -15q-35 0 -67 12.5t-57.5 34.5t-42 52t-21.5 65h-255q6 -87 43 -163.5t96.5 -132.5t137.5 -88.5t166 -32.5q91 0 172 35t141.5 95t95.5 140.5t35 172.5v635q0 91 -35.5 171.5t-96 141t-141 96t-171.5 35.5 t-172 -35t-141.5 -95.5t-95.5 -141.5t-35 -172q0 -92 35 -172.5t95.5 -141t141 -95.5t172.5 -35q38 0 78 7.5t76 20.5zM1068 12h-356q-8 0 -19 -3t-20 -4q-38 -6 -76 -6q-39 0 -76 6q-9 1 -20 4t-19 3h-355l-14 14v354q0 8 -3 19t-4 20q-6 37 -6 76l13 14v506q0 8 -3 19 t-4 20q-6 37 -6 76q0 38 6 76q1 9 4 20t3 19v354l14 14h351q8 0 19 2.5t19 4.5q38 7 81 7q20 0 40.5 -2t40.5 -5q8 -2 19 -4.5t20 -2.5h351l13 -14v-354q0 -8 3 -18t4 -18q6 -39 6 -79v-635q0 -20 -1 -40t-5 -40q-1 -8 -4 -17.5t-3 -17.5v-354zM597 940q-39 0 -73.5 15 t-60.5 41t-41 60.5t-15 73.5t15 73.5t41 60.5t60.5 41t73.5 15t73.5 -15t60.5 -41t41 -60.5t15 -73.5t-15 -74t-40.5 -60.5t-60.5 -40.5t-74 -15z" />
<glyph unicode=":" horiz-adv-x="562" d="M281 53q26 0 49 10t40.5 27.5t28 40.5t10.5 49t-10.5 49t-28 40.5t-40.5 28t-49 10.5t-49.5 -10t-41 -27.5t-27.5 -41t-10 -49.5t10 -49.5t27.5 -40.5t41 -27t49.5 -10zM281 633q26 0 49 10t40.5 27.5t28 40.5t10.5 49t-10 49.5t-27.5 41t-41 27.5t-49.5 10t-49.5 -10 t-41 -27.5t-27.5 -41t-10 -49.5t10 -49.5t27.5 -40.5t41 -27t49.5 -10zM113 692q-13 32 -13 68q0 37 13 69v771l14 14h306l14 -14v-766q7 -18 11 -36.5t4 -37.5t-4 -37.5t-11 -35.5v-434q7 -17 11 -35.5t4 -37.5t-4 -37.5t-11 -35.5v-80l-14 -14h-84q-32 -13 -68 -13t-68 13 h-86l-14 14v85q-13 32 -13 68t13 68v444z" />
<glyph unicode=";" horiz-adv-x="562" d="M281 633q26 0 49 10t40.5 27.5t28 40.5t10.5 49t-10 49.5t-27.5 41t-41 27.5t-49.5 10t-49.5 -10t-41 -27.5t-27.5 -41t-10 -49.5t10 -49.5t27.5 -40.5t41 -27t49.5 -10zM447 474l11 -17q0 -1 -2 -6t-4 -11t-3.5 -11l-1.5 -5v-397l-14 -14h-134l-19 -13h-153l-27 27v439 l13 13v213q-13 32 -13 68q0 37 13 69v771l14 14h306l14 -14v-766q7 -18 11 -36.5t4 -37.5t-4 -37.5t-11 -35.5v-213zM396 439h-243v-386h108z" />
<glyph unicode="&#x3c;" horiz-adv-x="965" d="M100 629l14 19v952l13 14h712l13 -14v-678l13 -9v-315l-13 -20v-218l13 -19v-314l-36 -25l-29 11h-673l-13 14v263l-14 20v319zM154 611v-284l658 -261v257l-305 121v50l305 122v257z" />
<glyph unicode="=" horiz-adv-x="741" d="M113 1600l27 14h474l13 -14v-619l14 -13v-209l-14 -14v-127l14 -13v-208l-14 -14v-356l-13 -14h-487l-14 14v356l-13 14v208l13 13v127l-13 14v209l13 13v619zM153 785h434v156h-434v-156zM153 423h434v155h-434v-155z" />
<glyph unicode="&#x3e;" horiz-adv-x="965" d="M153 873v-257l305 -122v-50l-305 -121v-257l658 261v284zM865 310l-14 -20v-263l-13 -14h-673l-29 -11l-36 25v314l13 19v218l-13 20v315l13 9v678l13 14h712l13 -14v-952l14 -19v-319z" />
<glyph unicode="?" horiz-adv-x="1194" d="M596 1320q39 0 73.5 -15t60.5 -40.5t41.5 -60t15.5 -73.5q0 -53 -24.5 -95.5t-69.5 -69.5v-1q-45 -26 -82.5 -61.5t-66 -78.5t-46.5 -92t-24 -100h258q23 72 88 112v-1l-1 2q52 30 93.5 71.5t70.5 91.5t44 106.5t15 117.5q0 91 -36.5 171.5t-98 140.5t-143 95t-171.5 35 q-58 0 -113 -16t-105 -45h-1q-48 -28 -87 -66.5t-67.5 -84.5t-45.5 -98.5t-20 -107.5h255q6 34 22.5 64t41 52t56 34.5t67.5 12.5zM599 53q26 0 49 10t40.5 27.5t28 40.5t10.5 49t-10.5 49t-28 40.5t-40.5 28t-49 10.5t-49.5 -10t-41 -27.5t-27.5 -41t-10 -49.5t10 -49.5 t27.5 -40.5t41 -27t49.5 -10zM667 13q-32 -13 -68 -13t-68 13h-404l-14 14v1090l-13 13q0 19 1.5 38t3.5 38q2 8 5 19t3 19v356l14 14h355q8 0 16.5 2.5t16.5 3.5q38 7 81 7q38 0 77 -6q8 -2 19 -4.5t19 -2.5h357l13 -14v-356q0 -8 2.5 -17t3.5 -17q3 -20 5 -39.5t2 -39.5 q0 -38 -6 -77q-2 -8 -4.5 -19t-2.5 -19v-989l-13 -14h-401z" />
<glyph unicode="@" horiz-adv-x="1194" d="M597 -1q-43 0 -81 7q-8 2 -19 4.5t-19 2.5h-351l-14 14v354q0 8 -3 19t-4 20q-6 37 -6 76q0 38 6 76q1 9 4 20t3 19v506l-13 14q0 38 6 76q1 9 4 20t3 19v354l14 14h355q8 0 19 3t20 4q37 6 76 6q38 0 76 -6q9 -1 20 -4t19 -3h356l13 -14v-354q0 -8 3 -17.5t4 -17.5 q4 -20 5 -40t1 -40l-1 -1105l-27 -27h-469zM1039 52l2 1079q0 91 -35.5 171.5t-96 141t-141 95.5t-171.5 35q-88 0 -166 -32.5t-137.5 -88.5t-96.5 -132.5t-43 -163.5h255q5 35 21.5 65t42 52t57.5 34.5t67 12.5q39 0 73.5 -15t60.5 -41t41 -60.5t15 -73.5v-194 q-10 -5 -18.5 -11.5t-17.5 -13.5q-35 13 -75.5 20.5t-78.5 7.5q-92 0 -172.5 -35t-141 -95.5t-95.5 -141.5t-35 -172t35 -172t95.5 -141.5t141.5 -95.5t172 -35h442zM407 496q0 39 15 73.5t41 60.5t60.5 41t73.5 15t73.5 -15t60.5 -41t41 -60.5t15 -73.5q0 -41 0.5 -81 t0.5 -81l-27 -28h-164q-39 0 -74 15t-60.5 40.5t-40.5 60.5t-15 74z" />
<glyph unicode="A" horiz-adv-x="1824" d="M125 1614h608l19 13h320l19 -13h608l14 -14v-1535l11 -28l-25 -37h-315l-19 13h-906l-19 -13h-315l-25 37l11 28v1535zM1054 1574h-284l-606 -1521h258l123 310l25 17h684l24 -17l124 -310h258zM937 1221l242 -608l-25 -37h-484l-25 37l242 608h50z" />
<glyph unicode="B" horiz-adv-x="1231" d="M1104 1614l14 -14v-355q0 -8 3 -18t4 -18q6 -39 6 -79q0 -20 -1 -40t-5 -40q-1 -8 -4 -17.5t-3 -17.5v-405q0 -8 3 -18t4 -18q6 -39 6 -79q0 -20 -1 -40t-5 -40q-1 -8 -4 -17.5t-3 -17.5v-353l-14 -14h-350q-8 0 -17.5 -2.5t-17.5 -4.5q-21 -3 -42.5 -5t-42.5 -2h-17 q-123 0 -245 0.5t-245 0.5l-27 27v1573l27 27h507q40 0 79 -6q8 -1 18 -4t18 -3h355zM634 940h-211l-27 27v326l27 27h211q39 0 73.5 -15t60.5 -41t41 -60.5t15 -73.5t-15 -74t-40.5 -60.5t-60.5 -40.5t-74 -15zM634 52q91 0 172 35t141.5 95t95.5 140.5t35 172.5 q0 85 -31 160.5t-85 139.5v36q56 63 86 138.5t30 160.5q0 91 -35.5 171.5t-96 141t-141 96t-171.5 35.5h-481v-1521q121 0 240.5 -0.5t240.5 -0.5zM635 685q39 0 73 -15t60 -41t41 -60.5t15 -73.5t-15 -73.5t-41 -60.5t-60.5 -41t-73.5 -15l-1 2h-210l-27 26v326l27 27h211z " />
<glyph unicode="C" horiz-adv-x="1596" d="M127 1614h639q10 0 22 2.5t22 4.5q52 6 104 6q50 0 101 -6q11 -1 23 -4t23 -3h410l13 -14v-206l12 -12v-38l-12 -12v-1051l5 -6v-37l-5 -6v-205l-13 -14h-410q-12 0 -25.5 -3t-25.5 -4q-48 -6 -96 -6q-51 0 -100 6q-11 2 -24 4.5t-24 2.5h-639l-14 14v639q0 11 -3 23.5 t-4 23.5q-6 49 -6 100q0 53 6 104q2 11 4.5 22.5t2.5 21.5v639zM914 1574q-105 0 -202 -27t-182 -77t-154 -119t-119 -154t-77 -182t-27 -202q0 -106 27 -203t76.5 -181.5t119 -153.5t154 -118.5t182 -76.5t202.5 -27q300 0 519 204l-179 178q-69 -63 -157.5 -96.5 t-182.5 -33.5q-104 0 -196.5 40t-162 109t-110 161.5t-40.5 197.5t40.5 197.5t109.5 161.5t161.5 109.5t197.5 40.5q97 0 185.5 -35t159.5 -100l180 176q-109 103 -242 157t-283 54z" />
<glyph unicode="D" horiz-adv-x="1510" d="M1383 1614l14 -14v-639q0 -11 2.5 -24t4.5 -24q6 -50 6 -100q0 -48 -6 -96q-1 -12 -4 -25.5t-3 -25.5v-639l-14 -14h-639q-11 0 -24 -2.5t-24 -4.5q-50 -6 -100 -6h-469l-27 27v1573l27 27h469q53 0 104 -6q11 -2 22.5 -4.5t21.5 -2.5h639zM596 1574h-443v-1521h443 q105 0 202 27t182 76.5t154 119t119 154t77 181.5t27 202q0 104 -27.5 201.5t-77 182t-119 154t-154 119t-181.5 77t-202 27.5zM596 305h-124l-53 26v964l26 27h151q104 0 196.5 -40.5t161.5 -110t109.5 -162t40.5 -196.5t-40.5 -196.5t-109.5 -161.5t-161.5 -109.5 t-196.5 -40.5z" />
<glyph unicode="E" horiz-adv-x="1231" d="M153 1574v-1521h925v254h-655l-27 26v326l27 27h420v254h-420l-27 27v326l27 27h655v254h-925zM1118 1280v-933l13 -14v-306l-27 -27h-977l-27 27v1573l27 27h977l27 -27v-307z" />
<glyph unicode="F" horiz-adv-x="1231" d="M153 1578v-1520h243v606l27 27h376v254h-376l-27 26v326l27 27h655v254h-925zM1118 1284v-1253l-14 -13h-668l-13 -14h-296l-27 27v1574l27 26h977l27 -26v-308z" />
<glyph unicode="G" d="M127 1614h639q10 0 22 2.5t22 4.5q52 6 104 6q51 0 104 -6q10 -2 21.5 -4.5t21.5 -2.5h640l14 -14v-645l13 -13v-135q0 -24 -1.5 -48t-5.5 -48q-1 -11 -3.5 -22t-2.5 -22v-640l-14 -14h-640q-11 0 -24 -2.5t-24 -4.5q-50 -6 -99 -6q-51 0 -100 6q-11 2 -24 4.5t-24 2.5 h-639l-14 14v639q0 10 -2.5 22t-4.5 22q-6 51 -6 103q0 53 6 104q2 11 4.5 22.5t2.5 21.5v639zM914 1574q-105 0 -202 -27t-182 -77t-154 -119t-119 -154t-77 -182t-27 -202q0 -106 27 -203t76.5 -181.5t119 -153.5t154 -118.5t182 -76.5t202.5 -27q104 0 200.5 27t181 76 t154.5 118t120 153t77.5 180.5t27.5 200.5v107h-824v-215h524l26 -34q-24 -80 -72 -146.5t-112.5 -114t-142 -74t-160.5 -26.5q-104 0 -196.5 40t-162 109t-110 161.5t-40.5 197.5t40.5 197.5t109.5 161.5t161.5 109.5t197.5 40.5q94 0 181.5 -34t158.5 -97l179 179 q-106 99 -240 151.5t-279 52.5z" />
<glyph unicode="H" horiz-adv-x="1510" d="M1357 1574h-243v-607l-27 -27h-664l-27 27v607h-243v-1521h243v606l27 27h664l27 -27v-606h243v1521zM436 1614h638l13 13h296l27 -27v-1573l-27 -27h-296l-13 13h-638l-13 -13h-296l-27 27v1573l27 27h296z" />
<glyph unicode="I" horiz-adv-x="549" d="M396 1578h-243v-1520h243v1520zM127 1631h293l29 -26v-1574l-26 -27h-296l-27 27v1574z" />
<glyph unicode="J" horiz-adv-x="1091" d="M938 1574h-254v-1079q0 -39 -15 -73.5t-41 -60.5t-60.5 -41t-73.5 -15q-78 0 -133 55l-202 -156q63 -73 151 -112.5t184 -39.5q91 0 172 35t141.5 95t95.5 140.5t35 172.5v1079zM121 1614h523l13 13h307l27 -27v-1105q0 -39 -6 -76q-1 -9 -4 -20t-3 -19v-353l-14 -14 h-351q-8 0 -19 -2.5t-19 -4.5q-20 -3 -40.5 -5t-40.5 -2q-43 0 -81 7q-8 2 -19 4.5t-19 2.5h-254l-13 14v155l-8 10l5 37l3 2v1369z" />
<glyph unicode="K" horiz-adv-x="1334" d="M436 1618h400l1 2l22 11h353l22 -41l-9 -13v-1518l9 -13l-22 -42h-353l-22 12l-1 2h-400l-13 -14h-296l-27 27v1574l27 26h296zM153 1578v-1534h243v616l48 15l429 -617h288l-517 745v30l517 745h-288l-429 -618l-48 15v603h-243z" />
<glyph unicode="L" horiz-adv-x="1231" d="M100 31v1574l27 26h296l13 -13h668l14 -13v-1254l13 -13v-307l-27 -27h-977zM153 1578v-1520h925v253h-655l-27 27v1240h-243z" />
<glyph unicode="M" d="M772 53h284l353 889v-889h266v1521h-271l-465 -1168h-50l-465 1168h-271v-1521h266v889zM459 1614h910l14 13h318l27 -27v-1573l-27 -27h-318l-14 13h-276l-20 -13h-319l-19 13h-276l-14 -13h-318l-27 27v1573l27 27h318z" />
<glyph unicode="N" horiz-adv-x="1652" d="M468 1614h725l14 13h319l26 -27v-1573l-26 -27h-319l-23 13h-725l-14 -13h-318l-27 27v1573l27 27h318l22 -11zM1499 1574h-266v-1052l-48 -15l-753 1067h-279v-1521h266v1049l48 15l753 -1064h279v1521z" />
<glyph unicode="O" d="M127 1614h639q10 0 22 2.5t22 4.5q52 6 104 6q50 0 101 -6q11 -1 23 -4t23 -3h640l14 -14v-639q0 -11 2.5 -24t4.5 -24q6 -50 6 -100q0 -48 -6 -96q-1 -12 -4 -25.5t-3 -25.5v-639l-14 -14h-640q-12 0 -25.5 -3t-25.5 -4q-48 -6 -96 -6q-51 0 -100 6q-11 2 -24 4.5 t-24 2.5h-639l-14 14v639q0 11 -3 23.5t-4 23.5q-6 49 -6 100q0 53 6 104q2 11 4.5 22.5t2.5 21.5v639zM914 1574q-105 0 -202 -27t-182 -77t-154 -119t-119 -154t-77 -182t-27 -202q0 -106 27 -203t76.5 -181.5t119 -153.5t154 -118.5t182 -76.5t202.5 -27t202 27t182 76.5 t154 119t119 154t77 181.5t27 202q0 104 -27.5 201.5t-77 182t-119 154t-154 119t-182 77t-201.5 27.5zM914 1322q104 0 196.5 -40.5t161.5 -110t109.5 -162t40.5 -196.5t-40.5 -196.5t-109.5 -161.5t-161.5 -109.5t-196.5 -40.5t-196.5 40t-162 109t-110 161.5t-40.5 197.5 t40.5 197.5t109.5 161.5t161.5 109.5t197.5 40.5z" />
<glyph unicode="P" horiz-adv-x="1296" d="M1143 1053q0 106 -41.5 201t-112.5 166t-166 112.5t-201 41.5h-469v-1521h243v453l27 27h199q107 0 201.5 41t165.5 111.5t112.5 165.5t41.5 202zM1169 1614l14 -14v-423q0 -9 2.5 -20t4.5 -20q6 -42 6 -84t-6 -82q-1 -9 -4 -20.5t-3 -20.5v-903l-14 -14h-733l-13 -13 h-296l-27 27v1573l27 27h495q43 0 85 -6q8 -1 19 -4t19 -3h424zM622 1320q54 0 102.5 -21.5t85 -58t58 -85t21.5 -102.5q0 -55 -21 -103.5t-57.5 -84.5t-85 -57t-103.5 -21h-199l-27 26v480l27 27h199z" />
<glyph unicode="Q" d="M127 1614h639q10 0 22 2.5t22 4.5q52 6 104 6q50 0 101 -6q11 -1 23 -4t23 -3h640l14 -14v-639q0 -11 2.5 -24t4.5 -24q6 -50 6 -100q0 -48 -6 -96q-1 -12 -4 -25.5t-3 -25.5v-426l5 -6v-38l-5 -5v-164l-14 -14h-165l-5 -5h-38l-6 5h-426q-12 0 -25.5 -3t-25.5 -4 q-48 -6 -96 -6q-51 0 -100 6q-11 2 -24 4.5t-24 2.5h-639l-14 14v639q0 11 -3 23.5t-4 23.5q-6 49 -6 100q0 53 6 104q2 11 4.5 22.5t2.5 21.5v639zM914 1574q-105 0 -202 -27t-182 -77t-154 -119t-119 -154t-77 -182t-27 -202q0 -106 27 -203t76.5 -181.5t119 -153.5 t154 -118.5t182 -76.5t202.5 -27q118 0 230 35t208 104l35 -3l125 -125l152 151l-126 125l-2 35q68 96 103.5 208.5t35.5 229.5q0 104 -27.5 201.5t-77 182t-119 154t-154 119t-182 77t-201.5 27.5zM1317 562l-232 232l-151 -152l231 -232l-6 -42q-56 -32 -118.5 -47.5 t-126.5 -15.5q-104 0 -196.5 40t-162 109t-110 161.5t-40.5 197.5t40.5 197.5t109.5 161.5t161.5 109.5t197.5 40.5q104 0 196.5 -40.5t161.5 -110t109.5 -162t40.5 -196.5q0 -130 -63 -245z" />
<glyph unicode="R" horiz-adv-x="1383" d="M827 546q87 20 161 68.5t128 116t84 150t30 172.5q0 106 -41.5 201t-112.5 166t-166 112.5t-201 41.5h-556v-1521h243v453l27 27h38l21 -10l403 -470h313l-386 450zM1256 1614l14 -14v-423q0 -9 2.5 -20t4.5 -20q6 -42 6 -84t-6 -82q-1 -9 -4 -20.5t-3 -20.5v-878l7 -8 q-4 -11 -9.5 -22t-11.5 -22h-383l-24 13h-413l-13 -13h-296l-27 27v1573l27 27h582q43 0 85 -6q8 -1 19 -4t19 -3h424zM709 1320q54 0 102.5 -21.5t85 -58t58 -85t21.5 -102.5q0 -55 -21 -103.5t-57.5 -84.5t-85 -57t-103.5 -21h-286l-27 26v480l27 27h286z" />
<glyph unicode="S" horiz-adv-x="1205" d="M603 1626q39 0 78 -6q9 -2 19.5 -4.5t18.5 -2.5h359l14 -14v-356q0 -8 2.5 -18l4.5 -18q6 -39 6 -77l-13 -13v-506q0 -8 2.5 -18l4.5 -18q6 -39 6 -78q0 -40 -6 -79q-2 -8 -4.5 -17.5t-2.5 -17.5v-357l-14 -14h-370q-7 0 -15 -2t-15 -3q-38 -6 -75 -6q-38 0 -77 6 q-7 1 -14.5 3t-14.5 2h-370l-14 14v357q0 7 -2.5 16t-4.5 17q-6 40 -6 81l13 14v504q0 7 -2.5 16t-4.5 17q-6 40 -6 81q0 40 6 81q2 8 4.5 17t2.5 16v356l14 14h360q8 0 18 2.5l18 4.5q40 6 80 6zM603 1573q-92 0 -173.5 -35t-143 -95t-97.5 -141t-36 -173q0 -91 35.5 -171 t96 -140t141 -95.5t170.5 -36.5l1 1q39 0 73.5 -15t60.5 -40.5t41 -60t15 -73.5t-15 -73.5t-41 -60.5t-60.5 -41t-73.5 -15q-35 0 -67 12.5t-57.5 34t-42.5 51.5t-21 65h-255q5 -89 42.5 -165t98.5 -132t140.5 -87.5t167.5 -31.5q91 0 173 34.5t143 94.5t97 140.5t36 172.5 t-36.5 173.5t-98.5 141.5t-144 94.5t-174 33.5h1q-40 0 -75 14.5t-61.5 40t-41.5 60.5t-15 75q0 39 15 73.5t41 60.5t60.5 41t73.5 15q36 0 67.5 -12.5t56.5 -34t41.5 -51.5t22.5 -65h266q-6 89 -43.5 165t-98 132t-139.5 87.5t-167 31.5z" />
<glyph unicode="T" horiz-adv-x="1510" d="M1397 1280v-1253l-14 -14h-467l-13 -13h-296l-13 13h-467l-14 14v1253l-13 13v307l27 27h1256l27 -27v-307zM153 1574v-254h454l27 -27v-1240h242v1240l27 27h454v254h-1204z" />
<glyph unicode="U" horiz-adv-x="1510" d="M436 1614h638l13 13h296l27 -27v-962q0 -20 -2.5 -41t-5.5 -41q-1 -8 -3 -17t-2 -17v-495l-14 -14h-493q-10 0 -22 -3t-23 -5q-23 -3 -45 -4t-45 -1t-45.5 1t-45.5 4q-11 2 -22.5 5t-21.5 3h-493l-14 14v495q0 8 -2 16.5t-3 16.5q-3 20 -5.5 41.5t-2.5 41.5v962l27 27 h296zM1357 1574h-243v-937q0 -17 -4.5 -40.5t-8.5 -39.5q-17 -58 -50.5 -106t-79 -83t-101 -54.5t-115.5 -19.5q-69 0 -133.5 27t-114.5 73.5t-80.5 109t-30.5 133.5v937h-243v-935q0 -48 10 -97t27 -94q33 -89 89.5 -162t130.5 -124.5t162 -80t183 -28.5q121 0 230 45.5 t191.5 125t131 186t48.5 229.5z" />
<glyph unicode="V" horiz-adv-x="1824" d="M770 53h284l606 1521h-258l-465 -1168h-50l-465 1168h-258zM459 1614h906l19 13h315l25 -36l-11 -29v-1535l-14 -14h-608l-19 -13h-320l-19 13h-608l-14 14v1535l-11 29l25 36h315z" />
<glyph unicode="W" horiz-adv-x="2324" d="M2164 1574h-269l-270 -971h-51l-270 971h-284l-269 -971h-52l-269 971h-269l422 -1521h284l269 971h52l269 -971h284zM467 1614h515l18 13h324l18 -13h515l17 13h325l25 -34q-1 -3 -5 -17.5t-8.5 -31t-8 -30l-3.5 -13.5v-1474l-14 -14h-406l-18 -13h-324l-17 13h-516 l-17 -13h-324l-18 13h-419l-14 14v1522l-1.5 6.5t-4 14.5t-4.5 14.5t-2 8.5l26 34h324z" />
<glyph unicode="X" horiz-adv-x="1466" d="M1298 53l-419 747v26l419 748h-278l-264 -471h-46l-263 471h-279l419 -748v-26l-419 -747h279l263 470h46l264 -470h278zM485 1614h497l22 13h339l23 -40l-10 -17v-1513l10 -17l-23 -40h-339l-22 13h-497l-23 -13h-339l-23 40l10 17v1513l-10 17l23 40h339z" />
<glyph unicode="Y" horiz-adv-x="1449" d="M886 13l-14 -13h-295l-14 13h-438l-14 14v1536l-11 28l25 36h338l20 -13h483l20 13h338l25 -36l-11 -28v-1536l-14 -14h-438zM846 53v433l2 10l437 1078h-281l-255 -628h-49l-255 628h-281l437 -1078l-5 -2l7 -8v-433h243z" />
<glyph unicode="Z" horiz-adv-x="1478" d="M1364 1570v-1212l14 -14v-317l-27 -27h-1224l-23 40l9 17v1211l-13 14v318l27 27h1224l23 -40zM1305 1574h-1165v-266h704l23 -39l-695 -1216h1152v265h-690l-23 40z" />
<glyph unicode="[" horiz-adv-x="754" d="M153 1574v-1521h448v254h-178l-27 26v960l27 27h178v254h-448zM641 1280v-933l13 -14v-306l-27 -27h-500l-27 27v1573l27 27h500l27 -27v-307z" />
<glyph unicode="\" horiz-adv-x="1116" d="M403 1614h588l14 -14v-1534l11 -30l-25 -36h-259l-19 13h-581l-13 14v1514l-19 50l25 36h259zM750 53h202l-587 1521h-202z" />
<glyph unicode="]" horiz-adv-x="754" d="M100 1293v307l27 27h500l27 -27v-1573l-27 -27h-500l-27 27v306l13 14v933zM153 1574v-254h178l27 -27v-960l-27 -26h-178v-254h448v1521h-448z" />
<glyph unicode="^" horiz-adv-x="1136" d="M728 1627l19 -13h264l13 -14v-673l12 -28l-12 -17v-855l-13 -14h-886l-14 14v855l-11 17l11 28v673l14 14h264l19 13h320zM710 1574h-284l-262 -659h258l121 306h50l121 -306h258z" />
<glyph unicode="_" horiz-adv-x="1216" d="M153 -62v-163h909v163h-909zM100 -251v189l26 53h963l27 -26v-216l-27 -27h-963z" />
<glyph unicode="a" horiz-adv-x="1824" d="M125 1614h608l19 13h320l19 -13h608l14 -14v-1535l11 -28l-25 -37h-315l-19 13h-906l-19 -13h-315l-25 37l11 28v1535zM1054 1574h-284l-606 -1521h258l123 310l25 17h684l24 -17l124 -310h258zM937 1221l242 -608l-25 -37h-484l-25 37l242 608h50z" />
<glyph unicode="b" horiz-adv-x="1231" d="M1104 1614l14 -14v-355q0 -8 3 -18t4 -18q6 -39 6 -79q0 -20 -1 -40t-5 -40q-1 -8 -4 -17.5t-3 -17.5v-405q0 -8 3 -18t4 -18q6 -39 6 -79q0 -20 -1 -40t-5 -40q-1 -8 -4 -17.5t-3 -17.5v-353l-14 -14h-350q-8 0 -17.5 -2.5t-17.5 -4.5q-21 -3 -42.5 -5t-42.5 -2h-17 q-123 0 -245 0.5t-245 0.5l-27 27v1573l27 27h507q40 0 79 -6q8 -1 18 -4t18 -3h355zM634 940h-211l-27 27v326l27 27h211q39 0 73.5 -15t60.5 -41t41 -60.5t15 -73.5t-15 -74t-40.5 -60.5t-60.5 -40.5t-74 -15zM634 52q91 0 172 35t141.5 95t95.5 140.5t35 172.5 q0 85 -31 160.5t-85 139.5v36q56 63 86 138.5t30 160.5q0 91 -35.5 171.5t-96 141t-141 96t-171.5 35.5h-481v-1521q121 0 240.5 -0.5t240.5 -0.5zM635 685q39 0 73 -15t60 -41t41 -60.5t15 -73.5t-15 -73.5t-41 -60.5t-60.5 -41t-73.5 -15l-1 2h-210l-27 26v326l27 27h211z " />
<glyph unicode="c" horiz-adv-x="1596" d="M127 1614h639q10 0 22 2.5t22 4.5q52 6 104 6q50 0 101 -6q11 -1 23 -4t23 -3h410l13 -14v-206l12 -12v-38l-12 -12v-1051l5 -6v-37l-5 -6v-205l-13 -14h-410q-12 0 -25.5 -3t-25.5 -4q-48 -6 -96 -6q-51 0 -100 6q-11 2 -24 4.5t-24 2.5h-639l-14 14v639q0 11 -3 23.5 t-4 23.5q-6 49 -6 100q0 53 6 104q2 11 4.5 22.5t2.5 21.5v639zM914 1574q-105 0 -202 -27t-182 -77t-154 -119t-119 -154t-77 -182t-27 -202q0 -106 27 -203t76.5 -181.5t119 -153.5t154 -118.5t182 -76.5t202.5 -27q300 0 519 204l-179 178q-69 -63 -157.5 -96.5 t-182.5 -33.5q-104 0 -196.5 40t-162 109t-110 161.5t-40.5 197.5t40.5 197.5t109.5 161.5t161.5 109.5t197.5 40.5q97 0 185.5 -35t159.5 -100l180 176q-109 103 -242 157t-283 54z" />
<glyph unicode="d" horiz-adv-x="1510" d="M1383 1614l14 -14v-639q0 -11 2.5 -24t4.5 -24q6 -50 6 -100q0 -48 -6 -96q-1 -12 -4 -25.5t-3 -25.5v-639l-14 -14h-639q-11 0 -24 -2.5t-24 -4.5q-50 -6 -100 -6h-469l-27 27v1573l27 27h469q53 0 104 -6q11 -2 22.5 -4.5t21.5 -2.5h639zM596 1574h-443v-1521h443 q105 0 202 27t182 76.5t154 119t119 154t77 181.5t27 202q0 104 -27.5 201.5t-77 182t-119 154t-154 119t-181.5 77t-202 27.5zM596 305h-124l-53 26v964l26 27h151q104 0 196.5 -40.5t161.5 -110t109.5 -162t40.5 -196.5t-40.5 -196.5t-109.5 -161.5t-161.5 -109.5 t-196.5 -40.5z" />
<glyph unicode="e" horiz-adv-x="1231" d="M153 1574v-1521h925v254h-655l-27 26v326l27 27h420v254h-420l-27 27v326l27 27h655v254h-925zM1118 1280v-933l13 -14v-306l-27 -27h-977l-27 27v1573l27 27h977l27 -27v-307z" />
<glyph unicode="f" horiz-adv-x="1231" d="M153 1578v-1520h243v606l27 27h376v254h-376l-27 26v326l27 27h655v254h-925zM1118 1284v-1253l-14 -13h-668l-13 -14h-296l-27 27v1574l27 26h977l27 -26v-308z" />
<glyph unicode="g" d="M127 1614h639q10 0 22 2.5t22 4.5q52 6 104 6q51 0 104 -6q10 -2 21.5 -4.5t21.5 -2.5h640l14 -14v-645l13 -13v-135q0 -24 -1.5 -48t-5.5 -48q-1 -11 -3.5 -22t-2.5 -22v-640l-14 -14h-640q-11 0 -24 -2.5t-24 -4.5q-50 -6 -99 -6q-51 0 -100 6q-11 2 -24 4.5t-24 2.5 h-639l-14 14v639q0 10 -2.5 22t-4.5 22q-6 51 -6 103q0 53 6 104q2 11 4.5 22.5t2.5 21.5v639zM914 1574q-105 0 -202 -27t-182 -77t-154 -119t-119 -154t-77 -182t-27 -202q0 -106 27 -203t76.5 -181.5t119 -153.5t154 -118.5t182 -76.5t202.5 -27q104 0 200.5 27t181 76 t154.5 118t120 153t77.5 180.5t27.5 200.5v107h-824v-215h524l26 -34q-24 -80 -72 -146.5t-112.5 -114t-142 -74t-160.5 -26.5q-104 0 -196.5 40t-162 109t-110 161.5t-40.5 197.5t40.5 197.5t109.5 161.5t161.5 109.5t197.5 40.5q94 0 181.5 -34t158.5 -97l179 179 q-106 99 -240 151.5t-279 52.5z" />
<glyph unicode="h" horiz-adv-x="1510" d="M1357 1574h-243v-607l-27 -27h-664l-27 27v607h-243v-1521h243v606l27 27h664l27 -27v-606h243v1521zM436 1614h638l13 13h296l27 -27v-1573l-27 -27h-296l-13 13h-638l-13 -13h-296l-27 27v1573l27 27h296z" />
<glyph unicode="i" horiz-adv-x="549" d="M396 1578h-243v-1520h243v1520zM127 1631h293l29 -26v-1574l-26 -27h-296l-27 27v1574z" />
<glyph unicode="j" horiz-adv-x="1091" d="M938 1574h-254v-1079q0 -39 -15 -73.5t-41 -60.5t-60.5 -41t-73.5 -15q-78 0 -133 55l-202 -156q63 -73 151 -112.5t184 -39.5q91 0 172 35t141.5 95t95.5 140.5t35 172.5v1079zM121 1614h523l13 13h307l27 -27v-1105q0 -39 -6 -76q-1 -9 -4 -20t-3 -19v-353l-14 -14 h-351q-8 0 -19 -2.5t-19 -4.5q-20 -3 -40.5 -5t-40.5 -2q-43 0 -81 7q-8 2 -19 4.5t-19 2.5h-254l-13 14v155l-8 10l5 37l3 2v1369z" />
<glyph unicode="k" horiz-adv-x="1334" d="M436 1618h400l1 2l22 11h353l22 -41l-9 -13v-1518l9 -13l-22 -42h-353l-22 12l-1 2h-400l-13 -14h-296l-27 27v1574l27 26h296zM153 1578v-1534h243v616l48 15l429 -617h288l-517 745v30l517 745h-288l-429 -618l-48 15v603h-243z" />
<glyph unicode="l" horiz-adv-x="1231" d="M100 31v1574l27 26h296l13 -13h668l14 -13v-1254l13 -13v-307l-27 -27h-977zM153 1578v-1520h925v253h-655l-27 27v1240h-243z" />
<glyph unicode="m" d="M772 53h284l353 889v-889h266v1521h-271l-465 -1168h-50l-465 1168h-271v-1521h266v889zM459 1614h910l14 13h318l27 -27v-1573l-27 -27h-318l-14 13h-276l-20 -13h-319l-19 13h-276l-14 -13h-318l-27 27v1573l27 27h318z" />
<glyph unicode="n" horiz-adv-x="1652" d="M468 1614h725l14 13h319l26 -27v-1573l-26 -27h-319l-23 13h-725l-14 -13h-318l-27 27v1573l27 27h318l22 -11zM1499 1574h-266v-1052l-48 -15l-753 1067h-279v-1521h266v1049l48 15l753 -1064h279v1521z" />
<glyph unicode="o" d="M127 1614h639q10 0 22 2.5t22 4.5q52 6 104 6q50 0 101 -6q11 -1 23 -4t23 -3h640l14 -14v-639q0 -11 2.5 -24t4.5 -24q6 -50 6 -100q0 -48 -6 -96q-1 -12 -4 -25.5t-3 -25.5v-639l-14 -14h-640q-12 0 -25.5 -3t-25.5 -4q-48 -6 -96 -6q-51 0 -100 6q-11 2 -24 4.5 t-24 2.5h-639l-14 14v639q0 11 -3 23.5t-4 23.5q-6 49 -6 100q0 53 6 104q2 11 4.5 22.5t2.5 21.5v639zM914 1574q-105 0 -202 -27t-182 -77t-154 -119t-119 -154t-77 -182t-27 -202q0 -106 27 -203t76.5 -181.5t119 -153.5t154 -118.5t182 -76.5t202.5 -27t202 27t182 76.5 t154 119t119 154t77 181.5t27 202q0 104 -27.5 201.5t-77 182t-119 154t-154 119t-182 77t-201.5 27.5zM914 1322q104 0 196.5 -40.5t161.5 -110t109.5 -162t40.5 -196.5t-40.5 -196.5t-109.5 -161.5t-161.5 -109.5t-196.5 -40.5t-196.5 40t-162 109t-110 161.5t-40.5 197.5 t40.5 197.5t109.5 161.5t161.5 109.5t197.5 40.5z" />
<glyph unicode="p" horiz-adv-x="1296" d="M1143 1053q0 106 -41.5 201t-112.5 166t-166 112.5t-201 41.5h-469v-1521h243v453l27 27h199q107 0 201.5 41t165.5 111.5t112.5 165.5t41.5 202zM1169 1614l14 -14v-423q0 -9 2.5 -20t4.5 -20q6 -42 6 -84t-6 -82q-1 -9 -4 -20.5t-3 -20.5v-903l-14 -14h-733l-13 -13 h-296l-27 27v1573l27 27h495q43 0 85 -6q8 -1 19 -4t19 -3h424zM622 1320q54 0 102.5 -21.5t85 -58t58 -85t21.5 -102.5q0 -55 -21 -103.5t-57.5 -84.5t-85 -57t-103.5 -21h-199l-27 26v480l27 27h199z" />
<glyph unicode="q" d="M127 1614h639q10 0 22 2.5t22 4.5q52 6 104 6q50 0 101 -6q11 -1 23 -4t23 -3h640l14 -14v-639q0 -11 2.5 -24t4.5 -24q6 -50 6 -100q0 -48 -6 -96q-1 -12 -4 -25.5t-3 -25.5v-426l5 -6v-38l-5 -5v-164l-14 -14h-165l-5 -5h-38l-6 5h-426q-12 0 -25.5 -3t-25.5 -4 q-48 -6 -96 -6q-51 0 -100 6q-11 2 -24 4.5t-24 2.5h-639l-14 14v639q0 11 -3 23.5t-4 23.5q-6 49 -6 100q0 53 6 104q2 11 4.5 22.5t2.5 21.5v639zM914 1574q-105 0 -202 -27t-182 -77t-154 -119t-119 -154t-77 -182t-27 -202q0 -106 27 -203t76.5 -181.5t119 -153.5 t154 -118.5t182 -76.5t202.5 -27q118 0 230 35t208 104l35 -3l125 -125l152 151l-126 125l-2 35q68 96 103.5 208.5t35.5 229.5q0 104 -27.5 201.5t-77 182t-119 154t-154 119t-182 77t-201.5 27.5zM1317 562l-232 232l-151 -152l231 -232l-6 -42q-56 -32 -118.5 -47.5 t-126.5 -15.5q-104 0 -196.5 40t-162 109t-110 161.5t-40.5 197.5t40.5 197.5t109.5 161.5t161.5 109.5t197.5 40.5q104 0 196.5 -40.5t161.5 -110t109.5 -162t40.5 -196.5q0 -130 -63 -245z" />
<glyph unicode="r" horiz-adv-x="1383" d="M827 546q87 20 161 68.5t128 116t84 150t30 172.5q0 106 -41.5 201t-112.5 166t-166 112.5t-201 41.5h-556v-1521h243v453l27 27h38l21 -10l403 -470h313l-386 450zM1256 1614l14 -14v-423q0 -9 2.5 -20t4.5 -20q6 -42 6 -84t-6 -82q-1 -9 -4 -20.5t-3 -20.5v-878l7 -8 q-4 -11 -9.5 -22t-11.5 -22h-383l-24 13h-413l-13 -13h-296l-27 27v1573l27 27h582q43 0 85 -6q8 -1 19 -4t19 -3h424zM709 1320q54 0 102.5 -21.5t85 -58t58 -85t21.5 -102.5q0 -55 -21 -103.5t-57.5 -84.5t-85 -57t-103.5 -21h-286l-27 26v480l27 27h286z" />
<glyph unicode="s" horiz-adv-x="1205" d="M603 1626q39 0 78 -6q9 -2 19.5 -4.5t18.5 -2.5h359l14 -14v-356q0 -8 2.5 -18l4.5 -18q6 -39 6 -77l-13 -13v-506q0 -8 2.5 -18l4.5 -18q6 -39 6 -78q0 -40 -6 -79q-2 -8 -4.5 -17.5t-2.5 -17.5v-357l-14 -14h-370q-7 0 -15 -2t-15 -3q-38 -6 -75 -6q-38 0 -77 6 q-7 1 -14.5 3t-14.5 2h-370l-14 14v357q0 7 -2.5 16t-4.5 17q-6 40 -6 81l13 14v504q0 7 -2.5 16t-4.5 17q-6 40 -6 81q0 40 6 81q2 8 4.5 17t2.5 16v356l14 14h360q8 0 18 2.5l18 4.5q40 6 80 6zM603 1573q-92 0 -173.5 -35t-143 -95t-97.5 -141t-36 -173q0 -91 35.5 -171 t96 -140t141 -95.5t170.5 -36.5l1 1q39 0 73.5 -15t60.5 -40.5t41 -60t15 -73.5t-15 -73.5t-41 -60.5t-60.5 -41t-73.5 -15q-35 0 -67 12.5t-57.5 34t-42.5 51.5t-21 65h-255q5 -89 42.5 -165t98.5 -132t140.5 -87.5t167.5 -31.5q91 0 173 34.5t143 94.5t97 140.5t36 172.5 t-36.5 173.5t-98.5 141.5t-144 94.5t-174 33.5h1q-40 0 -75 14.5t-61.5 40t-41.5 60.5t-15 75q0 39 15 73.5t41 60.5t60.5 41t73.5 15q36 0 67.5 -12.5t56.5 -34t41.5 -51.5t22.5 -65h266q-6 89 -43.5 165t-98 132t-139.5 87.5t-167 31.5z" />
<glyph unicode="t" horiz-adv-x="1510" d="M1397 1280v-1253l-14 -14h-467l-13 -13h-296l-13 13h-467l-14 14v1253l-13 13v307l27 27h1256l27 -27v-307zM153 1574v-254h454l27 -27v-1240h242v1240l27 27h454v254h-1204z" />
<glyph unicode="u" horiz-adv-x="1510" d="M436 1614h638l13 13h296l27 -27v-962q0 -20 -2.5 -41t-5.5 -41q-1 -8 -3 -17t-2 -17v-495l-14 -14h-493q-10 0 -22 -3t-23 -5q-23 -3 -45 -4t-45 -1t-45.5 1t-45.5 4q-11 2 -22.5 5t-21.5 3h-493l-14 14v495q0 8 -2 16.5t-3 16.5q-3 20 -5.5 41.5t-2.5 41.5v962l27 27 h296zM1357 1574h-243v-937q0 -17 -4.5 -40.5t-8.5 -39.5q-17 -58 -50.5 -106t-79 -83t-101 -54.5t-115.5 -19.5q-69 0 -133.5 27t-114.5 73.5t-80.5 109t-30.5 133.5v937h-243v-935q0 -48 10 -97t27 -94q33 -89 89.5 -162t130.5 -124.5t162 -80t183 -28.5q121 0 230 45.5 t191.5 125t131 186t48.5 229.5z" />
<glyph unicode="v" horiz-adv-x="1824" d="M770 53h284l606 1521h-258l-465 -1168h-50l-465 1168h-258zM459 1614h906l19 13h315l25 -36l-11 -29v-1535l-14 -14h-608l-19 -13h-320l-19 13h-608l-14 14v1535l-11 29l25 36h315z" />
<glyph unicode="w" horiz-adv-x="2324" d="M2164 1574h-269l-270 -971h-51l-270 971h-284l-269 -971h-52l-269 971h-269l422 -1521h284l269 971h52l269 -971h284zM467 1614h515l18 13h324l18 -13h515l17 13h325l25 -34q-1 -3 -5 -17.5t-8.5 -31t-8 -30l-3.5 -13.5v-1474l-14 -14h-406l-18 -13h-324l-17 13h-516 l-17 -13h-324l-18 13h-419l-14 14v1522l-1.5 6.5t-4 14.5t-4.5 14.5t-2 8.5l26 34h324z" />
<glyph unicode="x" horiz-adv-x="1466" d="M1298 53l-419 747v26l419 748h-278l-264 -471h-46l-263 471h-279l419 -748v-26l-419 -747h279l263 470h46l264 -470h278zM485 1614h497l22 13h339l23 -40l-10 -17v-1513l10 -17l-23 -40h-339l-22 13h-497l-23 -13h-339l-23 40l10 17v1513l-10 17l23 40h339z" />
<glyph unicode="y" horiz-adv-x="1449" d="M886 13l-14 -13h-295l-14 13h-438l-14 14v1536l-11 28l25 36h338l20 -13h483l20 13h338l25 -36l-11 -28v-1536l-14 -14h-438zM846 53v433l2 10l437 1078h-281l-255 -628h-49l-255 628h-281l437 -1078l-5 -2l7 -8v-433h243z" />
<glyph unicode="z" horiz-adv-x="1478" d="M1364 1570v-1212l14 -14v-317l-27 -27h-1224l-23 40l9 17v1211l-13 14v318l27 27h1224l23 -40zM1305 1574h-1165v-266h704l23 -39l-695 -1216h1152v265h-690l-23 40z" />
<glyph unicode="{" horiz-adv-x="736" d="M127 1614h188l23 13h276l22 -42l-8 -11v-1520l8 -12l-22 -42h-276l-23 13h-188l-14 14v578q0 17 -3 35t-5 35q-2 35 -3.5 69t-1.5 69t1.5 69t3.5 69q2 17 5 35.5t3 35.5v578zM563 1574h-209q-100 -174 -150.5 -367.5t-50.5 -393.5q0 -98 12.5 -197t38 -196t63 -189.5 t87.5 -177.5h209q-115 167 -173.5 362.5t-58.5 397.5q0 204 59.5 397.5t172.5 363.5z" />
<glyph unicode="|" horiz-adv-x="469" d="M316 1578h-163v-1520h163v1520zM127 1631h189l53 -26v-1574l-26 -27h-216l-27 27v1574z" />
<glyph unicode="}" horiz-adv-x="736" d="M173 1574q113 -170 172.5 -363.5t59.5 -397.5q0 -100 -15 -200.5t-44.5 -197t-72.5 -188t-100 -174.5h209q99 172 150 367t51 393q0 200 -50.5 393.5t-150.5 367.5h-209zM623 1600v-578q0 -17 3 -35.5t5 -35.5q2 -35 3.5 -69t1.5 -69t-1.5 -69t-3.5 -69q-2 -17 -5 -35 t-3 -35v-578l-14 -14h-188l-23 -13h-276l-22 42l8 12v1520l-8 11l22 42h276l23 -13h188z" />
<glyph unicode="~" horiz-adv-x="989" d="M153 727q8 20 22 42.5t33 41t41 31t46 12.5q27 0 57.5 -18.5t63.5 -46.5t69 -60.5t74.5 -60.5t79 -46.5t83.5 -18.5q63 0 114 40v325q-12 -20 -25 -42t-29.5 -41t-37 -31.5t-47.5 -12.5q-29 0 -60 18.5t-64.5 46.5t-69 60.5t-74 60.5t-79.5 46.5t-84 18.5 q-31 0 -60 -10.5t-53 -29.5v-325zM113 615l-13 3v448q2 3 6.5 12t6.5 11v516l13 13h736l14 -13v-524l13 -4v-447l-10 -21l-3 -2v-576l-14 -13h-736l-13 13v584z" />
<glyph unicode="&#xa1;" horiz-adv-x="562" d="M281 1574q-26 0 -49 -10t-40.5 -27.5t-28 -40.5t-10.5 -49t10 -49.5t27.5 -41t41 -27.5t49.5 -10t49 10.5t40.5 28t28 40.5t10.5 49t-10.5 49t-28 40.5t-41 27.5t-48.5 10zM435 0h-306l-27 27v994l13 13v340q-7 17 -11 35.5t-4 37.5t4 37.5t11 35.5v80l14 14h84 q32 13 68 13t68 -13h86l14 -14v-85q13 -32 13 -68t-13 -68v-345l13 -13v-994zM155 53h254v941h-254v-941z" />
<glyph unicode="&#xab;" horiz-adv-x="1677" d="M127 1614h1426l14 -14v-680l10 -7v-315l-10 -16v-226l10 -15v-314l-36 -25l-29 11h-666l-17 -11l-29 11h-673l-13 14v263l-14 20v319l14 19v952zM865 611v-284l659 -261v257l-305 121v50l305 122v257zM154 611v-284l658 -261v257l-305 121v50l305 122v257z" />
<glyph unicode="&#xae;" horiz-adv-x="596" d="M496 1281q0 -42 -16 -78t-43.5 -62.5t-64 -42t-77.5 -15.5q-40 0 -75.5 16t-62 43t-42 63t-15.5 76t15.5 76t42.5 63t63 43t77 16q40 0 76 -16t63 -43t43 -63t16 -76zM471 1281q0 36 -13.5 67t-37 54.5t-55 37t-67.5 13.5q-35 0 -66.5 -13.5t-55 -37t-37 -55t-13.5 -66.5 q0 -36 13.5 -67.5t37 -55t54.5 -37t67 -13.5t67.5 13.5t55 37t37 55t13.5 67.5zM354 1166l-55 92h-44v-92h-35v228h84q32 0 56 -14.5t24 -50.5q0 -55 -52 -67l61 -96h-39zM350 1329q0 21 -15.5 29.5t-33.5 8.5h-46v-82h50q45 0 45 44z" />
<glyph unicode="&#xb6;" horiz-adv-x="1485" d="M550 1574q-164 0 -281 -116q-116 -118 -116 -281q0 -164 116 -281q116 -116 281 -116l27 -27v-700h242v1252l27 26h216l27 -26v-1252h242v1521h-781zM127 1614h314q50 13 109 13h808l27 -27v-1573l-27 -27h-296l-13 13h-189l-14 -13h-296l-13 13h-410l-14 14v1040 q-13 50 -13 110q0 58 13 109v314z" />
<glyph unicode="&#xbb;" horiz-adv-x="1677" d="M865 873v-257l305 -122v-50l-305 -121v-257l658 261v284zM153 873v-257l305 -122v-50l-305 -121v-257l659 261v284zM1563 1600v-952l14 -19v-319l-14 -20v-263l-13 -14h-673l-29 -11l-17 11h-666l-29 -11l-36 25v314l10 15v226l-10 16v315l10 7v680l14 14h1426z" />
<glyph unicode="&#xbf;" horiz-adv-x="1194" d="M598 320q-39 0 -73.5 15t-61 40.5t-41.5 60t-15 73.5q0 53 24.5 95.5t69.5 69.5v1q45 25 82.5 61t66 79t46.5 92t24 100h-258q-23 -72 -88 -112v1l1 -2q-106 -62 -164.5 -163t-58.5 -224q0 -91 36 -171.5t97.5 -140.5t143 -95t171.5 -35q117 0 219 61h1q47 27 86.5 66 t68 85.5t45.5 98.5t20 107h-255q-6 -35 -22.5 -64.5t-41 -51.5t-56 -34.5t-67.5 -12.5zM595 1587q-26 0 -49 -10t-40.5 -27.5t-28 -40.5t-10.5 -49t10 -49.5t27.5 -41t41 -27.5t49.5 -10t49 10.5t40.5 28t28 40.5t10.5 49t-10.5 49t-28 40.5t-41 27.5t-48.5 10zM527 1627 q32 13 68 13t68 -13h404l14 -14v-1090l13 -13q0 -19 -1.5 -38t-3.5 -38q-2 -8 -5 -19t-3 -19v-356l-14 -14h-355q-7 0 -16 -2.5t-17 -4.5q-41 -6 -81 -6q-38 0 -77 6q-8 1 -19 4t-19 3h-357l-13 14v356q0 7 -2.5 16t-4.5 17q-6 39 -6 80q0 39 6 77q1 9 4 19.5t3 18.5v989 l13 14h401z" />
<glyph unicode="&#xc0;" horiz-adv-x="1824" d="M937 1221l242 -608l-25 -37h-484l-25 37l242 608h50zM777 1329h108v387h-242zM939 1302l-27 -27h-153l-26 18l-34 101l-535 -1341h258l124 310l24 17h684l25 -17l123 -310h258l-606 1521h-115v-272zM580 1734l25 35h307l27 -27v-115h133l19 -13h608l14 -14v-1535l11 -28 l-25 -37h-315l-19 13h-906l-19 -13h-315l-25 37l11 28v1535l14 14h497z" />
<glyph unicode="&#xc1;" horiz-adv-x="1824" d="M1202 1614h497l14 -14v-1535l11 -28l-25 -37h-315l-19 13h-906l-19 -13h-315l-25 37l11 28v1535l14 14h608l19 13h133v115l27 27h307l25 -35zM885 1574h-115l-606 -1521h258l123 310l25 17h684l24 -17l124 -310h258l-535 1341l-34 -101l-26 -18h-153l-27 27v272z M1181 1716h-242v-387h108zM937 1221l242 -592l-25 -53h-484l-25 37l242 608h50z" />
<glyph unicode="&#xc2;" horiz-adv-x="1824" d="M586 1634l315 135h21l316 -135l13 -20h448l14 -14v-1535l11 -28l-25 -37h-315l-19 13h-906l-19 -13h-315l-25 37l11 28v1535l14 14h448zM1122 1402l-210 90l-210 -90l-538 -1349h258l123 310l25 17h684l24 -17l124 -310h258zM937 1221l242 -592l-25 -53h-484l-25 37 l242 608h50zM912 1716l-289 -124v-166l278 120h21l279 -120v166z" />
<glyph unicode="&#xc3;" horiz-adv-x="1823" d="M570 1383q10 19 23.5 41.5t31 41.5t39 31.5t46.5 12.5q28 0 58.5 -18.5t64 -46.5t69.5 -60.5t74.5 -60.5t79.5 -46.5t84 -18.5q32 0 60 11t53 29v325q-10 -19 -23.5 -41.5t-31 -41.5t-38.5 -31.5t-46 -12.5q-24 0 -47 11t-44 26.5t-40 33.5t-36 33q-22 19 -54 45 t-68 49.5t-72.5 39.5t-66.5 16q-32 0 -61 -12.5t-55 -30.5v-325zM997 1627h74l19 -13h96q20 32 36.5 65.5t33.5 66.5l50 -13v-119h393l13 -14v-1535l11 -28l-24 -37h-315l-20 13h-906l-19 -13h-314l-25 37l12 28v1535l13 14h392v108l10 20q34 27 73 43.5t83 16.5 q43 0 86 -17t83.5 -43.5t77 -57t67.5 -57.5zM1659 53l-462 1160q-15 -5 -30 -6.5t-31 -1.5q-48 0 -93.5 19t-88.5 48t-81 63.5t-71 64.5q-16 14 -37.5 31.5t-42.5 23.5l-558 -1402h257l124 310l25 17h683l25 -17l124 -310h257zM936 1221l242 -592l-24 -53h-485l-25 37 l243 608h49z" />
<glyph unicode="&#xc4;" d="M281 1318q25 0 48.5 10.5t41 28t28 40.5t10.5 49q0 25 -10.5 48.5t-28 41t-41 28t-48.5 10.5q-26 0 -49 -10.5t-40.5 -28t-28 -41t-10.5 -48.5q0 -26 10.5 -49t28 -40.5t40.5 -28t49 -10.5zM1547 1318q25 0 48.5 10.5t41 28t28 40.5t10.5 49q0 25 -10.5 48.5t-28 41 t-41 28t-48.5 10.5q-26 0 -49 -10.5t-40.5 -28t-28 -41t-10.5 -48.5q0 -26 10.5 -49t28 -40.5t40.5 -28t49 -10.5zM1479 1614q32 13 68 13t68 -13h86l14 -14v-86q13 -32 13 -68t-13 -68v-1313l11 -28l-25 -37h-315l-19 13h-906l-19 -13h-315l-25 37l11 28v1313 q-13 32 -13 68t13 68v86l14 14h86q32 13 68 13t68 -13h386l19 13h319l20 -13h386zM1056 1574h-284l-606 -1521h258l123 310l25 17h684l24 -17l124 -310h258zM939 1221l242 -608l-25 -37h-484l-25 37l242 608h50z" />
<glyph unicode="&#xc5;" horiz-adv-x="1821" d="M123 1614h687q5 0 14 3t15 4q36 6 72 6q34 0 69 -6q6 -1 16 -4t15 -3h687l13 -14v-1542l10 -19l-23 -39h-315l-22 13h-900l-23 -13h-315l-23 39l10 19v1542zM1653 53l-503 936l3 30q44 46 66 103.5t22 120.5q0 67 -26.5 127t-71.5 105.5t-105 72t-127 26.5 q-68 0 -128 -26.5t-105 -71.5t-71.5 -105.5t-26.5 -127.5q0 -62 22 -120.5t66 -103.5l4 -30l-504 -936h254l169 313l24 14h592l23 -14l169 -313h254zM943 899l153 -270l-23 -53h-324l-24 39l153 284l24 14h9h8zM911 1409q34 0 64 -13.5t52.5 -36t35.5 -52.5t13 -64t-13 -64 t-35.5 -52.5t-52.5 -35.5t-64 -13t-64 13t-52.5 35.5t-36 52.5t-13.5 64t13.5 64t36 52.5t52.5 36t64 13.5z" />
<glyph unicode="&#xc6;" horiz-adv-x="1929" d="M125 1614h608l19 13h1051l26 -27v-307l-13 -13v-933l13 -14v-306l-26 -27h-751l-14 13h-579l-19 -13h-315l-25 37l11 28v1535zM1776 1574h-1006l-606 -1521h258l123 310l25 17h482l26 -27v-300h698v254h-428l-27 26v326l27 27h239v254h-239l-27 27v326l27 27h428v254z M954 1329h71l53 -27v-699l-26 -27h-382l-25 37l284 699z" />
<glyph unicode="&#xc7;" horiz-adv-x="1596" d="M1487 1335v-1058l2 -2v-37l-2 -3v-208l-13 -14h-413q-14 0 -31.5 -3t-31.5 -6q-6 -37 -23 -69t-42.5 -55t-59 -36.5t-71.5 -13.5t-75 15.5t-64 42.5v37l75 75h-106l-14 13h-488l-13 14v621q0 12 -3.5 26.5t-5.5 26.5q-4 28 -6 55.5t-2 56.5t2 56.5t6 55.5q2 12 5.5 26.5 t3.5 26.5v622l13 14h636q11 0 25 3t26 5q24 2 48.5 3.5t48.5 1.5t48.5 -1t48.5 -4q12 -2 25.5 -5t24.5 -3h413l13 -14v-209l9 -9v-38zM996 58q253 27 437 199l-179 178q-59 -53 -131.5 -86t-151.5 -41q-18 -28 -36.5 -55t-37.5 -54q39 -26 65 -60t34 -81zM753 331 q-77 25 -141 73t-110 112t-71.5 140t-25.5 157q0 105 40.5 197.5t109.5 161.5t161.5 109.5t197.5 40.5q97 0 185.5 -35t159.5 -100l180 176q-106 100 -242.5 155.5t-282.5 55.5q-105 0 -202 -27t-182 -77t-154 -119t-119 -154t-77 -182t-27 -202q0 -114 34 -222t95.5 -200.5 t148.5 -165t193 -115.5q29 57 62.5 112t66.5 109zM848 162l-13 40q17 26 34.5 52.5t36.5 52.5q-25 0 -49 3t-49 7q-8 -12 -21 -33t-28.5 -46.5t-32 -52.5t-30.5 -52.5t-23.5 -46.5t-11.5 -33h75q8 20 26.5 32t39.5 12q28 0 49.5 -19.5t21.5 -48.5q0 -30 -20 -51.5t-51 -21.5 q-12 0 -27 5l-54 -53q20 -11 39 -18t42 -7q29 0 55 11t46 30.5t31.5 45.5t11.5 55v5v-3q0 22 -7.5 43.5t-20.5 39.5t-31 32t-39 20zM771 14h18q5 -5 13 -5t13 4.5t5 12.5t-5 13.5t-13 5.5q-10 0 -14 -7q-1 -2 -1.5 -2.5t-1.5 -2.5q-1 -1 -1 -2v-1v-3z" />
<glyph unicode="&#xc8;" horiz-adv-x="1231" d="M638 1716h-243l135 -387h108v387zM1118 1280v-933l13 -14v-306l-27 -27h-977l-27 27v1573l27 27h243l-37 107l25 35h307l26 -27v-115h413l27 -27v-307zM388 1574h-235v-1521h925v254h-655l-27 26v326l27 27h420v254h-420l-27 27v326l27 27h54zM691 1320h387v254h-387 v-254z" />
<glyph unicode="&#xc9;" horiz-adv-x="1231" d="M1118 1280v-933l13 -14v-306l-27 -27h-977l-27 27v1573l27 27h475v115l27 27h306l25 -35l-37 -107h181l27 -27v-307zM602 1574h-449v-1521h925v254h-655l-27 26v326l27 27h420v254h-420l-27 27v326l27 27h179v254zM816 1320h262v254h-173zM898 1716h-243v-387h108z" />
<glyph unicode="&#xca;" horiz-adv-x="1231" d="M946 1627h158l27 -27v-307l-13 -13v-933l13 -14v-306l-27 -27h-977l-27 27v1573l27 27h158l4 7l316 135h21l316 -135zM958 1574v-189l-37 -24l-305 131l-306 -131l-37 24v189h-120v-1521h925v254h-655l-27 26v326l27 27h420v254h-420l-27 27v326l27 27h655v254h-120z M616 1716l-289 -142v-148l278 120h21l278 -120v166z" />
<glyph unicode="&#xcb;" horiz-adv-x="1239" d="M153 1266v-1213h925v254h-655l-27 26v182l27 27h420v254h-420l-27 27v163l27 27h655v253h-925zM977 1320q22 0 42 12t35 30.5t23.5 41t8.5 42.5q0 25 -10.5 48.5t-28 41t-41 28t-48.5 10.5q-26 0 -49 -10.5t-40.5 -28t-28 -41t-10.5 -48.5q0 -21 8.5 -43t23.5 -40.5 t34.5 -30.5t42.5 -12h38zM890 1614q32 13 68 13t68 -13h78l14 -14v-69q21 -39 21 -85t-21 -85v-55l13 -13v-307l-13 -13v-626l13 -14v-306l-27 -27h-977l-27 27v1266l13 14v71q-13 32 -13 68t13 68v86l14 14h86q32 13 68 13q37 0 69 -13h540zM300 1320q23 0 43 12t34.5 30 t23 40.5t8.5 43.5q0 26 -10.5 49t-28 40.5t-40.5 28t-49 10.5t-49 -10.5t-40.5 -28t-28 -41t-10.5 -48.5q0 -21 8.5 -43t23.5 -40.5t34.5 -30.5t42.5 -12h38z" />
<glyph unicode="&#xcc;" horiz-adv-x="558" d="M297 1329h108v387h-243zM100 1734l25 35h306l27 -27v-1711l-27 -27h-296l-26 27v1574l26 26zM278 1275l-25 18l-91 261v-1496h243v1217h-127z" />
<glyph unicode="&#xcd;" horiz-adv-x="558" d="M153 1275v-1217h243v1496l-91 -261l-25 -18h-127zM423 1631l26 -26v-1574l-26 -27h-296l-27 27v1711l27 27h306l25 -35zM396 1716l-243 2v-389h108z" />
<glyph unicode="&#xce;" horiz-adv-x="884" d="M321 1440v-1382h243v1382l-122 52zM771 1377v-1350l-13 -14h-159l-9 -9h-296l-9 9h-158l-14 14v1350l-13 8v224l16 25l316 135h21l315 -135l16 -25v-224zM442 1716l-289 -124v-166l279 120h21l278 -120v166z" />
<glyph unicode="&#xcf;" horiz-adv-x="871" d="M309 53h253v1212h-253v-1212zM589 0h-307l-13 13h-142l-14 14v1351q-13 32 -13 68t13 68v86l14 14h86q32 13 68 13t68 -13h172q32 13 69 13q36 0 68 -13h86l13 -14v-86q6 -17 10 -34t4 -34q0 -34 -14 -68v-1351l-13 -14h-142zM281 1574q-26 0 -49 -10.5t-40.5 -28 t-28 -41t-10.5 -48.5q0 -26 10.5 -49t28 -40.5t40.5 -28t49 -10.5q25 0 48.5 10.5t41 28t28 40.5t10.5 49t-10 49.5t-27.5 41t-41 27.5t-49.5 10zM462 1446q0 -26 10.5 -49t28 -40.5t40.5 -28t49 -10.5t49 10.5t40.5 28t27.5 40.5t10 49q0 25 -10 48.5t-27.5 41t-40.5 28 t-49 10.5t-49 -10.5t-40.5 -28t-28 -40.5t-10.5 -49z" />
<glyph unicode="&#xd0;" horiz-adv-x="1510" d="M1370 1614l13 -14v-580q0 -5 2 -14t4.5 -18.5l5 -19t3.5 -15.5q12 -69 12 -140t-12 -140q-1 -6 -3.5 -15.5l-5 -19t-4.5 -18.5t-2 -14v-579l-13 -14h-626q-11 0 -23.5 -2.5t-23.5 -4.5q-51 -6 -101 -6h-469l-27 27v1573l27 27h469q52 0 105 -6q10 -2 21.5 -4.5t21.5 -2.5 h626zM596 1574h-443v-1521h443q105 0 202 27t182 76.5t154 119t119 154t77 181.5t27 202q0 104 -27.5 201.5t-77 182t-119 154t-154 119t-181.5 77t-202 27.5zM790 940h-362l-26 27v328l26 27h168q104 0 196.5 -40.5t161.5 -110t109.5 -162t40.5 -196.5t-40.5 -196.5 t-109.5 -161.5t-161.5 -109.5t-196.5 -40.5h-168l-26 26v328l26 27h362v254z" />
<glyph unicode="&#xd1;" horiz-adv-x="1652" d="M497 1383q10 20 24 42.5t31.5 41t39 31t46.5 12.5q28 0 58.5 -18.5t64 -46.5t69.5 -60.5t74 -60.5t79 -46.5t84 -18.5q31 0 60 10.5t53 29.5v325q-9 -20 -22.5 -42.5t-31 -41t-39 -31t-46.5 -12.5q-30 0 -61 18.5t-64.5 46.5t-69 60.5t-73.5 60.5t-78.5 46.5t-84.5 18.5 q-31 0 -60 -10.5t-53 -29.5v-325zM1184 13h-687q-11 0 -26 -6.5t-26 -6.5h-318l-27 27v1573l27 27h317v95l10 20q34 27 73 43.5t83 16.5q46 0 91 -18.5t87 -47t80.5 -61.5t71.5 -61h174l69 132l50 -13v-106h293l26 -27v-1573l-26 -27h-319q-2 2 -12 6.5t-11 6.5zM1499 1574 h-266v-1135l-671 951q-19 -31 -35 -63.5t-33 -64.5l-50 12v282l-12 18h-279v-1521h266v1134l801 -1134h279v1521z" />
<glyph unicode="&#xd2;" d="M759 1329h108v387h-243zM920 1322q104 -2 195.5 -42.5t160 -109.5t108 -161t39.5 -196t-40.5 -196.5t-110 -161.5t-162 -109.5t-196.5 -40.5t-196.5 40.5t-161.5 109.5t-109.5 161.5t-40.5 196.5q0 79 22.5 151.5t64.5 134t101 109.5t132 78l-11 7l-79 228 q-108 -42 -196.5 -114.5t-152.5 -166t-99 -203t-35 -224.5q0 -105 27 -202t77 -181.5t119 -154t154 -119t182 -76.5t202 -27t202 27t182 76.5t154 119t119 154t77 181.5t27 202q0 104 -27 201t-76 181t-118 153.5t-153 119t-180.5 77.5t-200.5 29v-252zM562 1734l25 35h307 l26 -27v-115q46 0 93 -6q12 -1 25 -4t24 -3h639l14 -14v-639q0 -10 2.5 -21.5t4.5 -22.5q6 -51 6 -104q0 -52 -6 -103q-2 -10 -4.5 -22t-2.5 -22v-639l-14 -14h-639q-11 0 -24 -2.5t-24 -4.5q-50 -6 -100 -6t-99 6q-11 2 -24 4.5t-24 2.5h-640l-14 14v639q0 11 -2.5 24 t-4.5 24q-6 49 -6 99t6 100q2 11 4.5 24t2.5 24v639l14 14h477z" />
<glyph unicode="&#xd3;" d="M1224 1614h477l14 -14v-639q0 -11 2.5 -24t4.5 -24q6 -50 6 -100t-6 -99q-2 -11 -4.5 -24t-2.5 -24v-639l-14 -14h-640q-11 0 -24 -2.5t-24 -4.5q-50 -6 -99 -6q-51 0 -100 6q-11 2 -24 4.5t-24 2.5h-639l-14 14v639q0 10 -2.5 22t-4.5 22q-6 51 -6 103q0 53 6 104 q2 11 4.5 22.5t2.5 21.5v639l14 14h639q11 0 24 3t25 4q46 6 93 6v115l26 27h307l25 -35zM908 1574q-105 -2 -201.5 -30t-180 -77.5t-152.5 -118.5t-118 -153t-76 -180.5t-27 -201.5q0 -106 27 -203t76.5 -181.5t119 -153.5t154 -118.5t182 -76.5t202.5 -27t202 27t182 76.5 t154 119t119 154t77 181.5t27 202q0 115 -35 224.5t-99 203t-152.5 166t-196.5 114.5l-79 -228l-11 -7q73 -30 132 -78t101 -109.5t64.5 -134t22.5 -151.5q0 -104 -40.5 -196.5t-109.5 -161.5t-161.5 -109.5t-196.5 -40.5t-196.5 40t-162 109t-110 161.5t-40.5 197.5 q0 104 39.5 196t108 161t160 109.5t195.5 42.5v252zM1204 1716h-243v-387h108z" />
<glyph unicode="&#xd4;" d="M127 1614h448l13 20l315 135h21l316 -135l13 -20h448l14 -14v-639q0 -11 2.5 -24t4.5 -24q6 -50 6 -100q0 -48 -6 -96q-1 -12 -4 -25.5t-3 -25.5v-639l-14 -14h-640q-12 0 -25.5 -3t-25.5 -4q-48 -6 -96 -6q-51 0 -100 6q-11 2 -24 4.5t-24 2.5h-639l-14 14v639 q0 11 -3 23.5t-4 23.5q-6 49 -6 100q0 53 6 104q2 11 4.5 22.5t2.5 21.5v639zM1256 1493v-108l-37 -24l-305 131l-305 -131l-37 24v108q-95 -49 -172.5 -121t-132.5 -160.5t-84.5 -190t-29.5 -208.5q0 -106 27 -203t76.5 -181.5t119 -153.5t154 -118.5t182 -76.5t202.5 -27 t202 27t182 76.5t154 119t119 154t77 181.5t27 202q0 108 -30 209t-84.5 189.5t-132 160.5t-172.5 121zM914 1716l-289 -124v-166l278 120h21l279 -120v166zM914 1322q104 0 196.5 -40.5t161.5 -110t109.5 -162t40.5 -196.5t-40.5 -196.5t-109.5 -161.5t-161.5 -109.5 t-196.5 -40.5t-196.5 40t-162 109t-110 161.5t-40.5 197.5t40.5 197.5t109.5 161.5t161.5 109.5t197.5 40.5z" />
<glyph unicode="&#xd5;" horiz-adv-x="1827" d="M572 1383q8 20 22 42.5t33 41t41 31t46 12.5q27 0 57.5 -18.5t63.5 -46.5t69 -60.5t74.5 -60.5t79 -46.5t83.5 -18.5q63 0 114 40v325q-12 -20 -25 -42t-29.5 -41t-37 -31.5t-47.5 -12.5q-30 0 -61 18.5t-64.5 46.5t-69.5 60.5t-74 60.5t-78.5 46.5t-83.5 18.5 q-31 0 -60 -10.5t-53 -29.5v-325zM1188 1614q7 9 17 26.5t19.5 37t18.5 38.5t15 30l50 -13v-119h393l13 -14v-639q0 -11 3 -23.5t4 -23.5q6 -50 6 -101t-6 -100q-1 -11 -4 -23.5t-3 -23.5v-639l-13 -14h-640q-12 0 -25.5 -3t-25.5 -4q-48 -6 -97 -6q-48 0 -96 6 q-12 1 -25.5 4t-25.5 3h-639l-13 14v639q0 11 -3 25t-5 25q-6 48 -6 97q0 48 6 98q2 11 5 25t3 25v639l13 14h392v108l10 20q34 27 73 43.5t83 16.5q45 0 88.5 -17.5t85 -44.5t78.5 -58.5t68 -59.5q14 -1 28 -4.5t27 -3.5h128zM1219 1219q48 -36 85.5 -81.5t64 -97.5 t40 -109.5t13.5 -117.5q0 -104 -40.5 -196.5t-110 -161.5t-162 -109.5t-196.5 -40.5t-196.5 40.5t-161.5 109.5t-109.5 161.5t-40.5 196.5q0 102 38.5 193t105 160t156 110.5t191.5 44.5q-11 9 -37 31.5t-55 45.5t-55 41t-36 18q-16 0 -29.5 -9.5t-24.5 -23t-19.5 -29 t-14.5 -26.5q-14 -26 -28 -53l-28 -54l-50 12v189q-85 -52 -152.5 -122.5t-115 -154.5t-72.5 -178.5t-25 -194.5q0 -106 27 -203t76 -181.5t118 -153.5t153.5 -118.5t182 -76.5t202.5 -27t202 27t182 76.5t154 119t119 154t77 181.5t27 202q0 100 -25.5 194.5t-73 178 t-115 154t-152.5 123.5v-177l-10 -21q-18 -14 -37.5 -26t-41.5 -20z" />
<glyph unicode="&#xd6;" d="M1547 1318q52 0 90 38t38 90t-38 90t-90 38t-90 -38q-38 -37 -38 -90q0 -54 38 -90q38 -38 90 -38zM127 1614h86q34 13 68 13q33 0 68 -13h418q67 13 147 13q77 0 147 -13h418q34 13 68 13q33 0 68 -13h86l14 -14v-86q13 -35 13 -68q0 -34 -13 -68v-417q13 -78 13 -148 q0 -69 -13 -147v-639l-14 -14h-640q-78 -13 -147 -13q-70 0 -148 13h-639l-14 14v639q-13 69 -13 147t13 148v417q-13 34 -13 68q0 33 13 68v86zM914 1322q210 0 359 -149t149 -360q0 -210 -149 -359t-359 -149q-211 0 -360 149t-149 359q0 211 149 360t360 149zM1367 1424 q-96 71 -209 110q-117 40 -244 40q-128 0 -244 -40q-114 -39 -209 -110q-8 -62 -52 -106q-45 -45 -106 -52q-72 -96 -110 -209q-40 -117 -40 -244q0 -158 59.5 -296.5t163.5 -241.5q103 -103 241.5 -162.5t296.5 -59.5q157 0 295.5 59.5t242.5 162.5q102 103 162.5 241.5 t60.5 296.5q0 122 -40 244q-39 113 -110 209q-62 7 -106 52q-45 44 -52 106zM281 1318q52 0 90 38t38 90t-38 90t-90 38t-90 -38t-38 -90t38 -90t90 -38z" />
<glyph unicode="&#xd7;" horiz-adv-x="714" d="M376 647l99 -99l71 71l-99 99v38l99 99l-71 71l-99 -99h-38l-99 99l-71 -71l99 -99v-38l-99 -99l71 -71l99 99h38zM100 27v1573l13 14h488l13 -14v-1573l-13 -14h-488z" />
<glyph unicode="&#xd8;" d="M127 1614h639q10 0 22 2.5t22 4.5q52 6 104 6q50 0 101 -6q11 -1 23 -4t23 -3h407l8 8h37l9 -8h179l14 -14v-179l8 -8v-38l-8 -8v-407q0 -11 3 -24.5t4 -24.5q6 -50 6 -98t-6 -96q-1 -12 -4 -25.5t-3 -25.5v-639l-14 -14h-640q-12 0 -25.5 -3t-25.5 -4q-48 -6 -96 -6 q-49 0 -98 6q-11 1 -24.5 4t-24.5 3h-407l-8 -8h-38l-8 8h-179l-14 14v179l-8 8v37l8 8v407q0 11 -3 23.5t-4 23.5q-6 49 -6 100q0 53 6 104q2 11 4.5 22.5t2.5 21.5v639zM914 1574q-105 0 -202 -27t-182 -77t-154 -119t-119 -154t-77 -182t-27 -202q0 -114 33.5 -223.5 t97.5 -203.5l-3 -34l-119 -120l171 -170l120 119l34 3q94 -66 203 -98.5t224 -32.5q105 0 202 27t182 76.5t154 119t119 154t77 181.5t27 202q0 116 -33.5 223.5t-98.5 203.5l4 34l119 120l-171 171l-120 -119l-34 -3q-96 64 -204 97.5t-223 33.5zM676 403l648 649l42 -7 q27 -55 41.5 -112.5t14.5 -119.5q0 -104 -40.5 -196.5t-109.5 -161.5t-161.5 -109.5t-196.5 -40.5q-62 0 -119.5 13.5t-112.5 42.5zM1152 1223l-648 -648l-43 6q-56 109 -56 232q0 105 40.5 197.5t109.5 161.5t161.5 109.5t197.5 40.5q61 0 119.5 -14.5t112.5 -41.5z" />
<glyph unicode="&#xd9;" horiz-adv-x="1510" d="M755 53q95 0 183 28.5t162 80t130.5 124.5t89.5 162q17 45 27 94t10 97v935h-243v-937q0 -71 -30.5 -133.5t-80.5 -109t-114.5 -73.5t-133.5 -27q-60 0 -115.5 19.5t-101.5 54.5t-79.5 83t-49.5 106q-4 16 -8.5 39.5t-4.5 40.5v937h-243l1 -935q0 -123 48.5 -229.5 t131 -186t191.5 -125t230 -45.5zM734 1329h107v387h-242zM536 1734l25 35h307l27 -27v-128h179l13 13h296l27 -27v-962q0 -20 -2.5 -41.5t-5.5 -41.5q-1 -8 -3 -16.5t-2 -16.5v-495l-14 -14h-493q-10 0 -21.5 -3t-22.5 -5q-23 -3 -45.5 -4t-45.5 -1t-45 1t-45 4q-11 2 -23 5 t-22 3h-493l-14 14v495q0 8 -2 17t-3 17q-3 20 -5 41t-3 41h1v962l26 27h296l13 -13h142z" />
<glyph unicode="&#xda;" horiz-adv-x="1510" d="M932 1614h142l13 13h296l27 -27v-962q0 -20 -2.5 -41t-5.5 -41q-1 -8 -3 -17t-2 -17v-495l-14 -14h-493q-10 0 -22 -3t-23 -5q-23 -3 -45 -4t-45 -1t-45.5 1t-45.5 4q-11 2 -22.5 5t-21.5 3h-493l-14 14v495q0 8 -2 16.5t-3 16.5q-3 20 -5.5 41.5t-2.5 41.5v962l27 27 h296l13 -13h179v128l27 27h307l25 -35zM911 1716h-242v-387h107zM1357 1574h-243v-937q0 -17 -4.5 -40.5t-8.5 -39.5q-17 -58 -50.5 -106t-79 -83t-101 -54.5t-115.5 -19.5q-69 0 -133.5 27t-114.5 73.5t-80.5 109t-30.5 133.5v937h-243v-935q0 -48 10 -97t27 -94 q33 -89 89.5 -162t130.5 -124.5t162 -80t183 -28.5q121 0 230 45.5t191.5 125t131 186t48.5 229.5z" />
<glyph unicode="&#xdb;" horiz-adv-x="1510" d="M1086 1626h297l27 -26v-962q0 -20 -2.5 -41t-5.5 -41q-1 -8 -3 -17t-2 -17v-495l-14 -14h-493q-10 0 -22 -3t-23 -5q-23 -3 -45 -4t-45 -1t-45.5 1t-45.5 4q-11 2 -22.5 5t-21.5 3h-493l-14 14v495q0 8 -2 16.5t-3 16.5q-3 20 -5.5 41.5t-2.5 41.5v962l27 27h297l5 7 l315 135h21l316 -135zM755 1716l-289 -124v-166l278 120h21l279 -120v166zM1357 1574h-243v-937q0 -17 -4.5 -40.5t-8.5 -39.5q-17 -58 -50.5 -106t-79 -83t-101 -54.5t-115.5 -19.5q-69 0 -133.5 27t-114.5 73.5t-80.5 109t-30.5 133.5v937h-243v-935q0 -48 10 -97t27 -94 q33 -89 89.5 -162t130.5 -124.5t162 -80t183 -28.5q121 0 230 45.5t191.5 125t131 186t48.5 229.5z" />
<glyph unicode="&#xdc;" horiz-adv-x="1510" d="M281 1318q25 0 48.5 10.5t41 28t28 40.5t10.5 49q0 25 -10.5 48.5t-28 41t-41 28t-48.5 10.5q-26 0 -49 -10.5t-40.5 -28t-28 -41t-10.5 -48.5q0 -26 10.5 -49t28 -40.5t40.5 -28t49 -10.5zM1229 1318q25 0 48.5 10.5t41 28t28 40.5t10.5 49q0 25 -10.5 48.5t-28 41 t-41 28t-48.5 10.5q-26 0 -49 -10.5t-40.5 -28t-28 -41t-10.5 -48.5q0 -26 10.5 -49t28 -40.5t40.5 -28t49 -10.5zM1161 1614q32 13 68 13t68 -13h86l14 -14v-86q13 -32 13 -68t-13 -68v-83l13 -13v-644q0 -21 -2.5 -43t-5.5 -43q-2 -7 -3.5 -15t-1.5 -15v-495l-14 -14h-493 q-10 0 -21 -3t-21 -4q-47 -6 -93 -6q-23 0 -47 1t-47 5q-10 1 -21 4t-20 3h-493l-14 14v495q0 8 -2 17.5t-4 17.5q-3 20 -5 40.5t-2 40.5v644l13 13v83q-13 32 -13 68t13 68v86l14 14h86q32 13 68 13t68 -13h812zM1357 1255h-243q0 -155 0.5 -309t-0.5 -309q0 -17 -4 -40.5 t-9 -39.5q-17 -58 -50.5 -106t-79 -83t-101 -54.5t-115.5 -19.5q-69 0 -133.5 27t-114.5 73.5t-80.5 109t-30.5 133.5q-1 155 -0.5 309t0.5 309h-243v-616q0 -48 10 -97t27 -94q33 -89 89.5 -162t130.5 -124.5t162 -80t183 -28.5q245 0 420 170q86 84 133 189.5t48 226.5 q1 155 1 308v308z" />
<glyph unicode="&#xdd;" horiz-adv-x="1449" d="M612 1759h307l25 -36l-39 -109h61l20 13h338l25 -36l-11 -28v-1536l-14 -14h-438l-14 -13h-295l-14 13h-438l-14 14v1536l-11 28l25 36h338l20 -13h102v118zM846 53v433l2 10l437 1078h-281l-255 -628h-49l-255 628h-281l437 -1078l2 -10v-433h243zM881 1705h-242v-387 h107z" />
<glyph unicode="&#xde;" horiz-adv-x="1259" d="M1106 813q0 106 -41.5 201t-112.5 166t-166 112.5t-201 41.5h-162l-27 26v214h-243v-1521h243v213l27 26h162q106 0 201 41.5t166 112.5t112.5 165.5t41.5 201.5zM436 1614h696l14 -14v-663q0 -9 2.5 -20t4.5 -20q6 -42 6 -84t-6 -82q-1 -9 -4 -20.5t-3 -20.5v-663 l-14 -14h-696l-13 -13h-296l-27 27v1573l27 27h296zM585 1080q55 0 103.5 -21t85 -57.5t57.5 -85t21 -103.5t-21 -103.5t-57.5 -84.5t-85 -57t-103.5 -21h-162l-27 26v480l27 27h162z" />
<glyph unicode="&#xdf;" horiz-adv-x="1614" d="M936 53q218 0 371 153q154 155 154 372q0 186 -117 331q-119 144 -301 183l-15 43l356 439h-353.5h-352.5q-219 0 -371 -154q-76 -76 -114 -170q-40 -95 -40 -202v-995h237v995q0 58 22 111q21 52 62 93t94 63q55 22 110 22h144h23l21 -44l-268 -326l154 -167 q78 66 184 66q119 0 203 -84q85 -84 85 -204q0 -121 -85 -204q-84 -84 -203 -84q-60 0 -111 21q-40 17 -73 45l-168 -168q149 -135 352 -135zM127 1614h427q59 13 124 13h762l6 -13h42l13 -14v-898q13 -58 13 -124q0 -67 -13 -124v-427l-13 -14h-428q-65 -13 -124 -13 q-61 0 -124 13h-382l-14 -13h-289l-27 27v1021q0 60 14 124v428z" />
<glyph unicode="&#xe0;" horiz-adv-x="1824" d="M937 1221l242 -608l-25 -37h-484l-25 37l242 608h50zM777 1329h108v387h-242zM939 1302l-27 -27h-153l-26 18l-34 101l-535 -1341h258l124 310l24 17h684l25 -17l123 -310h258l-606 1521h-115v-272zM580 1734l25 35h307l27 -27v-115h133l19 -13h608l14 -14v-1535l11 -28 l-25 -37h-315l-19 13h-906l-19 -13h-315l-25 37l11 28v1535l14 14h497z" />
<glyph unicode="&#xe1;" horiz-adv-x="1824" d="M1202 1614h497l14 -14v-1535l11 -28l-25 -37h-315l-19 13h-906l-19 -13h-315l-25 37l11 28v1535l14 14h608l19 13h133v115l27 27h307l25 -35zM885 1574h-115l-606 -1521h258l123 310l25 17h684l24 -17l124 -310h258l-535 1341l-34 -101l-26 -18h-153l-27 27v272z M1181 1716h-242v-387h108zM937 1221l242 -592l-25 -53h-484l-25 37l242 608h50z" />
<glyph unicode="&#xe2;" horiz-adv-x="1824" d="M586 1634l315 135h21l316 -135l13 -20h448l14 -14v-1535l11 -28l-25 -37h-315l-19 13h-906l-19 -13h-315l-25 37l11 28v1535l14 14h448zM1122 1402l-210 90l-210 -90l-538 -1349h258l123 310l25 17h684l24 -17l124 -310h258zM937 1221l242 -592l-25 -53h-484l-25 37 l242 608h50zM912 1716l-289 -124v-166l278 120h21l279 -120v166z" />
<glyph unicode="&#xe3;" horiz-adv-x="1823" d="M570 1383q10 19 23.5 41.5t31 41.5t39 31.5t46.5 12.5q28 0 58.5 -18.5t64 -46.5t69.5 -60.5t74.5 -60.5t79.5 -46.5t84 -18.5q32 0 60 11t53 29v325q-10 -19 -23.5 -41.5t-31 -41.5t-38.5 -31.5t-46 -12.5q-24 0 -47 11t-44 26.5t-40 33.5t-36 33q-22 19 -54 45 t-68 49.5t-72.5 39.5t-66.5 16q-32 0 -61 -12.5t-55 -30.5v-325zM997 1627h74l19 -13h96q20 32 36.5 65.5t33.5 66.5l50 -13v-119h393l13 -14v-1535l11 -28l-24 -37h-315l-20 13h-906l-19 -13h-314l-25 37l12 28v1535l13 14h392v108l10 20q34 27 73 43.5t83 16.5 q43 0 86 -17t83.5 -43.5t77 -57t67.5 -57.5zM1659 53l-462 1160q-15 -5 -30 -6.5t-31 -1.5q-48 0 -93.5 19t-88.5 48t-81 63.5t-71 64.5q-16 14 -37.5 31.5t-42.5 23.5l-558 -1402h257l124 310l25 17h683l25 -17l124 -310h257zM936 1221l242 -592l-24 -53h-485l-25 37 l243 608h49z" />
<glyph unicode="&#xe4;" d="M281 1318q25 0 48.5 10.5t41 28t28 40.5t10.5 49q0 25 -10.5 48.5t-28 41t-41 28t-48.5 10.5q-26 0 -49 -10.5t-40.5 -28t-28 -41t-10.5 -48.5q0 -26 10.5 -49t28 -40.5t40.5 -28t49 -10.5zM1547 1318q25 0 48.5 10.5t41 28t28 40.5t10.5 49q0 25 -10.5 48.5t-28 41 t-41 28t-48.5 10.5q-26 0 -49 -10.5t-40.5 -28t-28 -41t-10.5 -48.5q0 -26 10.5 -49t28 -40.5t40.5 -28t49 -10.5zM1479 1614q32 13 68 13t68 -13h86l14 -14v-86q13 -32 13 -68t-13 -68v-1313l11 -28l-25 -37h-315l-19 13h-906l-19 -13h-315l-25 37l11 28v1313 q-13 32 -13 68t13 68v86l14 14h86q32 13 68 13t68 -13h386l19 13h319l20 -13h386zM1056 1574h-284l-606 -1521h258l123 310l25 17h684l24 -17l124 -310h258zM939 1221l242 -608l-25 -37h-484l-25 37l242 608h50z" />
<glyph unicode="&#xe5;" horiz-adv-x="1821" d="M123 1614h687q5 0 14 3t15 4q36 6 72 6q34 0 69 -6q6 -1 16 -4t15 -3h687l13 -14v-1542l10 -19l-23 -39h-315l-22 13h-900l-23 -13h-315l-23 39l10 19v1542zM1653 53l-503 936l3 30q44 46 66 103.5t22 120.5q0 67 -26.5 127t-71.5 105.5t-105 72t-127 26.5 q-68 0 -128 -26.5t-105 -71.5t-71.5 -105.5t-26.5 -127.5q0 -62 22 -120.5t66 -103.5l4 -30l-504 -936h254l169 313l24 14h592l23 -14l169 -313h254zM943 899l153 -270l-23 -53h-324l-24 39l153 284l24 14h9h8zM911 1409q34 0 64 -13.5t52.5 -36t35.5 -52.5t13 -64t-13 -64 t-35.5 -52.5t-52.5 -35.5t-64 -13t-64 13t-52.5 35.5t-36 52.5t-13.5 64t13.5 64t36 52.5t52.5 36t64 13.5z" />
<glyph unicode="&#xe6;" horiz-adv-x="1929" d="M125 1614h608l19 13h1051l26 -27v-307l-13 -13v-933l13 -14v-306l-26 -27h-751l-14 13h-579l-19 -13h-315l-25 37l11 28v1535zM1776 1574h-1006l-606 -1521h258l123 310l25 17h482l26 -27v-300h698v254h-428l-27 26v326l27 27h239v254h-239l-27 27v326l27 27h428v254z M954 1329h71l53 -27v-699l-26 -27h-382l-25 37l284 699z" />
<glyph unicode="&#xe7;" horiz-adv-x="1596" d="M1487 1335v-1058l2 -2v-37l-2 -3v-208l-13 -14h-413q-14 0 -31.5 -3t-31.5 -6q-6 -37 -23 -69t-42.5 -55t-59 -36.5t-71.5 -13.5t-75 15.5t-64 42.5v37l75 75h-106l-14 13h-488l-13 14v621q0 12 -3.5 26.5t-5.5 26.5q-4 28 -6 55.5t-2 56.5t2 56.5t6 55.5q2 12 5.5 26.5 t3.5 26.5v622l13 14h636q11 0 25 3t26 5q24 2 48.5 3.5t48.5 1.5t48.5 -1t48.5 -4q12 -2 25.5 -5t24.5 -3h413l13 -14v-209l9 -9v-38zM996 58q253 27 437 199l-179 178q-59 -53 -131.5 -86t-151.5 -41q-18 -28 -36.5 -55t-37.5 -54q39 -26 65 -60t34 -81zM753 331 q-77 25 -141 73t-110 112t-71.5 140t-25.5 157q0 105 40.5 197.5t109.5 161.5t161.5 109.5t197.5 40.5q97 0 185.5 -35t159.5 -100l180 176q-106 100 -242.5 155.5t-282.5 55.5q-105 0 -202 -27t-182 -77t-154 -119t-119 -154t-77 -182t-27 -202q0 -114 34 -222t95.5 -200.5 t148.5 -165t193 -115.5q29 57 62.5 112t66.5 109zM848 162l-13 40q17 26 34.5 52.5t36.5 52.5q-25 0 -49 3t-49 7q-8 -12 -21 -33t-28.5 -46.5t-32 -52.5t-30.5 -52.5t-23.5 -46.5t-11.5 -33h75q8 20 26.5 32t39.5 12q28 0 49.5 -19.5t21.5 -48.5q0 -30 -20 -51.5t-51 -21.5 q-12 0 -27 5l-54 -53q20 -11 39 -18t42 -7q29 0 55 11t46 30.5t31.5 45.5t11.5 55v5v-3q0 22 -7.5 43.5t-20.5 39.5t-31 32t-39 20zM771 14h18q5 -5 13 -5t13 4.5t5 12.5t-5 13.5t-13 5.5q-10 0 -14 -7q-1 -2 -1.5 -2.5t-1.5 -2.5q-1 -1 -1 -2v-1v-3z" />
<glyph unicode="&#xe8;" horiz-adv-x="1231" d="M638 1716h-243l135 -387h108v387zM1118 1280v-933l13 -14v-306l-27 -27h-977l-27 27v1573l27 27h243l-37 107l25 35h307l26 -27v-115h413l27 -27v-307zM388 1574h-235v-1521h925v254h-655l-27 26v326l27 27h420v254h-420l-27 27v326l27 27h54zM691 1320h387v254h-387 v-254z" />
<glyph unicode="&#xe9;" horiz-adv-x="1231" d="M1118 1280v-933l13 -14v-306l-27 -27h-977l-27 27v1573l27 27h475v115l27 27h306l25 -35l-37 -107h181l27 -27v-307zM602 1574h-449v-1521h925v254h-655l-27 26v326l27 27h420v254h-420l-27 27v326l27 27h179v254zM816 1320h262v254h-173zM898 1716h-243v-387h108z" />
<glyph unicode="&#xea;" horiz-adv-x="1231" d="M946 1627h158l27 -27v-307l-13 -13v-933l13 -14v-306l-27 -27h-977l-27 27v1573l27 27h158l4 7l316 135h21l316 -135zM958 1574v-189l-37 -24l-305 131l-306 -131l-37 24v189h-120v-1521h925v254h-655l-27 26v326l27 27h420v254h-420l-27 27v326l27 27h655v254h-120z M616 1716l-289 -142v-148l278 120h21l278 -120v166z" />
<glyph unicode="&#xeb;" horiz-adv-x="1239" d="M153 1266v-1213h925v254h-655l-27 26v182l27 27h420v254h-420l-27 27v163l27 27h655v253h-925zM977 1320q22 0 42 12t35 30.5t23.5 41t8.5 42.5q0 25 -10.5 48.5t-28 41t-41 28t-48.5 10.5q-26 0 -49 -10.5t-40.5 -28t-28 -41t-10.5 -48.5q0 -21 8.5 -43t23.5 -40.5 t34.5 -30.5t42.5 -12h38zM890 1614q32 13 68 13t68 -13h78l14 -14v-69q21 -39 21 -85t-21 -85v-55l13 -13v-307l-13 -13v-626l13 -14v-306l-27 -27h-977l-27 27v1266l13 14v71q-13 32 -13 68t13 68v86l14 14h86q32 13 68 13q37 0 69 -13h540zM300 1320q23 0 43 12t34.5 30 t23 40.5t8.5 43.5q0 26 -10.5 49t-28 40.5t-40.5 28t-49 10.5t-49 -10.5t-40.5 -28t-28 -41t-10.5 -48.5q0 -21 8.5 -43t23.5 -40.5t34.5 -30.5t42.5 -12h38z" />
<glyph unicode="&#xec;" horiz-adv-x="558" d="M297 1329h108v387h-243zM100 1734l25 35h306l27 -27v-1711l-27 -27h-296l-26 27v1574l26 26zM278 1275l-25 18l-91 261v-1496h243v1217h-127z" />
<glyph unicode="&#xed;" horiz-adv-x="558" d="M153 1275v-1217h243v1496l-91 -261l-25 -18h-127zM423 1631l26 -26v-1574l-26 -27h-296l-27 27v1711l27 27h306l25 -35zM396 1716l-243 2v-389h108z" />
<glyph unicode="&#xee;" horiz-adv-x="884" d="M321 1440v-1382h243v1382l-122 52zM771 1377v-1350l-13 -14h-159l-9 -9h-296l-9 9h-158l-14 14v1350l-13 8v224l16 25l316 135h21l315 -135l16 -25v-224zM442 1716l-289 -124v-166l279 120h21l278 -120v166z" />
<glyph unicode="&#xef;" horiz-adv-x="871" d="M309 53h253v1212h-253v-1212zM589 0h-307l-13 13h-142l-14 14v1351q-13 32 -13 68t13 68v86l14 14h86q32 13 68 13t68 -13h172q32 13 69 13q36 0 68 -13h86l13 -14v-86q6 -17 10 -34t4 -34q0 -34 -14 -68v-1351l-13 -14h-142zM281 1574q-26 0 -49 -10.5t-40.5 -28 t-28 -41t-10.5 -48.5q0 -26 10.5 -49t28 -40.5t40.5 -28t49 -10.5q25 0 48.5 10.5t41 28t28 40.5t10.5 49t-10 49.5t-27.5 41t-41 27.5t-49.5 10zM462 1446q0 -26 10.5 -49t28 -40.5t40.5 -28t49 -10.5t49 10.5t40.5 28t27.5 40.5t10 49q0 25 -10 48.5t-27.5 41t-40.5 28 t-49 10.5t-49 -10.5t-40.5 -28t-28 -40.5t-10.5 -49z" />
<glyph unicode="&#xf0;" horiz-adv-x="1510" d="M1370 1614l13 -14v-580q0 -5 2 -14t4.5 -18.5l5 -19t3.5 -15.5q12 -69 12 -140t-12 -140q-1 -6 -3.5 -15.5l-5 -19t-4.5 -18.5t-2 -14v-579l-13 -14h-626q-11 0 -23.5 -2.5t-23.5 -4.5q-51 -6 -101 -6h-469l-27 27v1573l27 27h469q52 0 105 -6q10 -2 21.5 -4.5t21.5 -2.5 h626zM596 1574h-443v-1521h443q105 0 202 27t182 76.5t154 119t119 154t77 181.5t27 202q0 104 -27.5 201.5t-77 182t-119 154t-154 119t-181.5 77t-202 27.5zM790 940h-362l-26 27v328l26 27h168q104 0 196.5 -40.5t161.5 -110t109.5 -162t40.5 -196.5t-40.5 -196.5 t-109.5 -161.5t-161.5 -109.5t-196.5 -40.5h-168l-26 26v328l26 27h362v254z" />
<glyph unicode="&#xf1;" horiz-adv-x="1652" d="M497 1383q10 20 24 42.5t31.5 41t39 31t46.5 12.5q28 0 58.5 -18.5t64 -46.5t69.5 -60.5t74 -60.5t79 -46.5t84 -18.5q31 0 60 10.5t53 29.5v325q-9 -20 -22.5 -42.5t-31 -41t-39 -31t-46.5 -12.5q-30 0 -61 18.5t-64.5 46.5t-69 60.5t-73.5 60.5t-78.5 46.5t-84.5 18.5 q-31 0 -60 -10.5t-53 -29.5v-325zM1184 13h-687q-11 0 -26 -6.5t-26 -6.5h-318l-27 27v1573l27 27h317v95l10 20q34 27 73 43.5t83 16.5q46 0 91 -18.5t87 -47t80.5 -61.5t71.5 -61h174l69 132l50 -13v-106h293l26 -27v-1573l-26 -27h-319q-2 2 -12 6.5t-11 6.5zM1499 1574 h-266v-1135l-671 951q-19 -31 -35 -63.5t-33 -64.5l-50 12v282l-12 18h-279v-1521h266v1134l801 -1134h279v1521z" />
<glyph unicode="&#xf2;" d="M759 1329h108v387h-243zM920 1322q104 -2 195.5 -42.5t160 -109.5t108 -161t39.5 -196t-40.5 -196.5t-110 -161.5t-162 -109.5t-196.5 -40.5t-196.5 40.5t-161.5 109.5t-109.5 161.5t-40.5 196.5q0 79 22.5 151.5t64.5 134t101 109.5t132 78l-11 7l-79 228 q-108 -42 -196.5 -114.5t-152.5 -166t-99 -203t-35 -224.5q0 -105 27 -202t77 -181.5t119 -154t154 -119t182 -76.5t202 -27t202 27t182 76.5t154 119t119 154t77 181.5t27 202q0 104 -27 201t-76 181t-118 153.5t-153 119t-180.5 77.5t-200.5 29v-252zM562 1734l25 35h307 l26 -27v-115q46 0 93 -6q12 -1 25 -4t24 -3h639l14 -14v-639q0 -10 2.5 -21.5t4.5 -22.5q6 -51 6 -104q0 -52 -6 -103q-2 -10 -4.5 -22t-2.5 -22v-639l-14 -14h-639q-11 0 -24 -2.5t-24 -4.5q-50 -6 -100 -6t-99 6q-11 2 -24 4.5t-24 2.5h-640l-14 14v639q0 11 -2.5 24 t-4.5 24q-6 49 -6 99t6 100q2 11 4.5 24t2.5 24v639l14 14h477z" />
<glyph unicode="&#xf3;" d="M1224 1614h477l14 -14v-639q0 -11 2.5 -24t4.5 -24q6 -50 6 -100t-6 -99q-2 -11 -4.5 -24t-2.5 -24v-639l-14 -14h-640q-11 0 -24 -2.5t-24 -4.5q-50 -6 -99 -6q-51 0 -100 6q-11 2 -24 4.5t-24 2.5h-639l-14 14v639q0 10 -2.5 22t-4.5 22q-6 51 -6 103q0 53 6 104 q2 11 4.5 22.5t2.5 21.5v639l14 14h639q11 0 24 3t25 4q46 6 93 6v115l26 27h307l25 -35zM908 1574q-105 -2 -201.5 -30t-180 -77.5t-152.5 -118.5t-118 -153t-76 -180.5t-27 -201.5q0 -106 27 -203t76.5 -181.5t119 -153.5t154 -118.5t182 -76.5t202.5 -27t202 27t182 76.5 t154 119t119 154t77 181.5t27 202q0 115 -35 224.5t-99 203t-152.5 166t-196.5 114.5l-79 -228l-11 -7q73 -30 132 -78t101 -109.5t64.5 -134t22.5 -151.5q0 -104 -40.5 -196.5t-109.5 -161.5t-161.5 -109.5t-196.5 -40.5t-196.5 40t-162 109t-110 161.5t-40.5 197.5 q0 104 39.5 196t108 161t160 109.5t195.5 42.5v252zM1204 1716h-243v-387h108z" />
<glyph unicode="&#xf4;" d="M127 1614h448l13 20l315 135h21l316 -135l13 -20h448l14 -14v-639q0 -11 2.5 -24t4.5 -24q6 -50 6 -100q0 -48 -6 -96q-1 -12 -4 -25.5t-3 -25.5v-639l-14 -14h-640q-12 0 -25.5 -3t-25.5 -4q-48 -6 -96 -6q-51 0 -100 6q-11 2 -24 4.5t-24 2.5h-639l-14 14v639 q0 11 -3 23.5t-4 23.5q-6 49 -6 100q0 53 6 104q2 11 4.5 22.5t2.5 21.5v639zM1256 1493v-108l-37 -24l-305 131l-305 -131l-37 24v108q-95 -49 -172.5 -121t-132.5 -160.5t-84.5 -190t-29.5 -208.5q0 -106 27 -203t76.5 -181.5t119 -153.5t154 -118.5t182 -76.5t202.5 -27 t202 27t182 76.5t154 119t119 154t77 181.5t27 202q0 108 -30 209t-84.5 189.5t-132 160.5t-172.5 121zM914 1716l-289 -124v-166l278 120h21l279 -120v166zM914 1322q104 0 196.5 -40.5t161.5 -110t109.5 -162t40.5 -196.5t-40.5 -196.5t-109.5 -161.5t-161.5 -109.5 t-196.5 -40.5t-196.5 40t-162 109t-110 161.5t-40.5 197.5t40.5 197.5t109.5 161.5t161.5 109.5t197.5 40.5z" />
<glyph unicode="&#xf5;" horiz-adv-x="1827" d="M572 1383q8 20 22 42.5t33 41t41 31t46 12.5q27 0 57.5 -18.5t63.5 -46.5t69 -60.5t74.5 -60.5t79 -46.5t83.5 -18.5q63 0 114 40v325q-12 -20 -25 -42t-29.5 -41t-37 -31.5t-47.5 -12.5q-30 0 -61 18.5t-64.5 46.5t-69.5 60.5t-74 60.5t-78.5 46.5t-83.5 18.5 q-31 0 -60 -10.5t-53 -29.5v-325zM1188 1614q7 9 17 26.5t19.5 37t18.5 38.5t15 30l50 -13v-119h393l13 -14v-639q0 -11 3 -23.5t4 -23.5q6 -50 6 -101t-6 -100q-1 -11 -4 -23.5t-3 -23.5v-639l-13 -14h-640q-12 0 -25.5 -3t-25.5 -4q-48 -6 -97 -6q-48 0 -96 6 q-12 1 -25.5 4t-25.5 3h-639l-13 14v639q0 11 -3 25t-5 25q-6 48 -6 97q0 48 6 98q2 11 5 25t3 25v639l13 14h392v108l10 20q34 27 73 43.5t83 16.5q45 0 88.5 -17.5t85 -44.5t78.5 -58.5t68 -59.5q14 -1 28 -4.5t27 -3.5h128zM1219 1219q48 -36 85.5 -81.5t64 -97.5 t40 -109.5t13.5 -117.5q0 -104 -40.5 -196.5t-110 -161.5t-162 -109.5t-196.5 -40.5t-196.5 40.5t-161.5 109.5t-109.5 161.5t-40.5 196.5q0 102 38.5 193t105 160t156 110.5t191.5 44.5q-11 9 -37 31.5t-55 45.5t-55 41t-36 18q-16 0 -29.5 -9.5t-24.5 -23t-19.5 -29 t-14.5 -26.5q-14 -26 -28 -53l-28 -54l-50 12v189q-85 -52 -152.5 -122.5t-115 -154.5t-72.5 -178.5t-25 -194.5q0 -106 27 -203t76 -181.5t118 -153.5t153.5 -118.5t182 -76.5t202.5 -27t202 27t182 76.5t154 119t119 154t77 181.5t27 202q0 100 -25.5 194.5t-73 178 t-115 154t-152.5 123.5v-177l-10 -21q-18 -14 -37.5 -26t-41.5 -20z" />
<glyph unicode="&#xf6;" d="M1547 1318q52 0 90 38t38 90t-38 90t-90 38t-90 -38q-38 -37 -38 -90q0 -54 38 -90q38 -38 90 -38zM127 1614h86q34 13 68 13q33 0 68 -13h418q67 13 147 13q77 0 147 -13h418q34 13 68 13q33 0 68 -13h86l14 -14v-86q13 -35 13 -68q0 -34 -13 -68v-417q13 -78 13 -148 q0 -69 -13 -147v-639l-14 -14h-640q-78 -13 -147 -13q-70 0 -148 13h-639l-14 14v639q-13 69 -13 147t13 148v417q-13 34 -13 68q0 33 13 68v86zM914 1322q210 0 359 -149t149 -360q0 -210 -149 -359t-359 -149q-211 0 -360 149t-149 359q0 211 149 360t360 149zM1367 1424 q-96 71 -209 110q-117 40 -244 40q-128 0 -244 -40q-114 -39 -209 -110q-8 -62 -52 -106q-45 -45 -106 -52q-72 -96 -110 -209q-40 -117 -40 -244q0 -158 59.5 -296.5t163.5 -241.5q103 -103 241.5 -162.5t296.5 -59.5q157 0 295.5 59.5t242.5 162.5q102 103 162.5 241.5 t60.5 296.5q0 122 -40 244q-39 113 -110 209q-62 7 -106 52q-45 44 -52 106zM281 1318q52 0 90 38t38 90t-38 90t-90 38t-90 -38t-38 -90t38 -90t90 -38z" />
<glyph unicode="&#xf7;" horiz-adv-x="714" d="M376 647l99 -99l71 71l-99 99v38l99 99l-71 71l-99 -99h-38l-99 99l-71 -71l99 -99v-38l-99 -99l71 -71l99 99h38zM100 27v1573l13 14h488l13 -14v-1573l-13 -14h-488z" />
<glyph unicode="&#xf8;" d="M127 1614h639q10 0 22 2.5t22 4.5q52 6 104 6q50 0 101 -6q11 -1 23 -4t23 -3h407l8 8h37l9 -8h179l14 -14v-179l8 -8v-38l-8 -8v-407q0 -11 3 -24.5t4 -24.5q6 -50 6 -98t-6 -96q-1 -12 -4 -25.5t-3 -25.5v-639l-14 -14h-640q-12 0 -25.5 -3t-25.5 -4q-48 -6 -96 -6 q-49 0 -98 6q-11 1 -24.5 4t-24.5 3h-407l-8 -8h-38l-8 8h-179l-14 14v179l-8 8v37l8 8v407q0 11 -3 23.5t-4 23.5q-6 49 -6 100q0 53 6 104q2 11 4.5 22.5t2.5 21.5v639zM914 1574q-105 0 -202 -27t-182 -77t-154 -119t-119 -154t-77 -182t-27 -202q0 -114 33.5 -223.5 t97.5 -203.5l-3 -34l-119 -120l171 -170l120 119l34 3q94 -66 203 -98.5t224 -32.5q105 0 202 27t182 76.5t154 119t119 154t77 181.5t27 202q0 116 -33.5 223.5t-98.5 203.5l4 34l119 120l-171 171l-120 -119l-34 -3q-96 64 -204 97.5t-223 33.5zM676 403l648 649l42 -7 q27 -55 41.5 -112.5t14.5 -119.5q0 -104 -40.5 -196.5t-109.5 -161.5t-161.5 -109.5t-196.5 -40.5q-62 0 -119.5 13.5t-112.5 42.5zM1152 1223l-648 -648l-43 6q-56 109 -56 232q0 105 40.5 197.5t109.5 161.5t161.5 109.5t197.5 40.5q61 0 119.5 -14.5t112.5 -41.5z" />
<glyph unicode="&#xf9;" horiz-adv-x="1510" d="M755 53q95 0 183 28.5t162 80t130.5 124.5t89.5 162q17 45 27 94t10 97v935h-243v-937q0 -71 -30.5 -133.5t-80.5 -109t-114.5 -73.5t-133.5 -27q-60 0 -115.5 19.5t-101.5 54.5t-79.5 83t-49.5 106q-4 16 -8.5 39.5t-4.5 40.5v937h-243l1 -935q0 -123 48.5 -229.5 t131 -186t191.5 -125t230 -45.5zM734 1329h107v387h-242zM536 1734l25 35h307l27 -27v-128h179l13 13h296l27 -27v-962q0 -20 -2.5 -41.5t-5.5 -41.5q-1 -8 -3 -16.5t-2 -16.5v-495l-14 -14h-493q-10 0 -21.5 -3t-22.5 -5q-23 -3 -45.5 -4t-45.5 -1t-45 1t-45 4q-11 2 -23 5 t-22 3h-493l-14 14v495q0 8 -2 17t-3 17q-3 20 -5 41t-3 41h1v962l26 27h296l13 -13h142z" />
<glyph unicode="&#xfa;" horiz-adv-x="1510" d="M932 1614h142l13 13h296l27 -27v-962q0 -20 -2.5 -41t-5.5 -41q-1 -8 -3 -17t-2 -17v-495l-14 -14h-493q-10 0 -22 -3t-23 -5q-23 -3 -45 -4t-45 -1t-45.5 1t-45.5 4q-11 2 -22.5 5t-21.5 3h-493l-14 14v495q0 8 -2 16.5t-3 16.5q-3 20 -5.5 41.5t-2.5 41.5v962l27 27 h296l13 -13h179v128l27 27h307l25 -35zM911 1716h-242v-387h107zM1357 1574h-243v-937q0 -17 -4.5 -40.5t-8.5 -39.5q-17 -58 -50.5 -106t-79 -83t-101 -54.5t-115.5 -19.5q-69 0 -133.5 27t-114.5 73.5t-80.5 109t-30.5 133.5v937h-243v-935q0 -48 10 -97t27 -94 q33 -89 89.5 -162t130.5 -124.5t162 -80t183 -28.5q121 0 230 45.5t191.5 125t131 186t48.5 229.5z" />
<glyph unicode="&#xfb;" horiz-adv-x="1510" d="M1086 1626h297l27 -26v-962q0 -20 -2.5 -41t-5.5 -41q-1 -8 -3 -17t-2 -17v-495l-14 -14h-493q-10 0 -22 -3t-23 -5q-23 -3 -45 -4t-45 -1t-45.5 1t-45.5 4q-11 2 -22.5 5t-21.5 3h-493l-14 14v495q0 8 -2 16.5t-3 16.5q-3 20 -5.5 41.5t-2.5 41.5v962l27 27h297l5 7 l315 135h21l316 -135zM755 1716l-289 -124v-166l278 120h21l279 -120v166zM1357 1574h-243v-937q0 -17 -4.5 -40.5t-8.5 -39.5q-17 -58 -50.5 -106t-79 -83t-101 -54.5t-115.5 -19.5q-69 0 -133.5 27t-114.5 73.5t-80.5 109t-30.5 133.5v937h-243v-935q0 -48 10 -97t27 -94 q33 -89 89.5 -162t130.5 -124.5t162 -80t183 -28.5q121 0 230 45.5t191.5 125t131 186t48.5 229.5z" />
<glyph unicode="&#xfc;" horiz-adv-x="1510" d="M281 1318q25 0 48.5 10.5t41 28t28 40.5t10.5 49q0 25 -10.5 48.5t-28 41t-41 28t-48.5 10.5q-26 0 -49 -10.5t-40.5 -28t-28 -41t-10.5 -48.5q0 -26 10.5 -49t28 -40.5t40.5 -28t49 -10.5zM1229 1318q25 0 48.5 10.5t41 28t28 40.5t10.5 49q0 25 -10.5 48.5t-28 41 t-41 28t-48.5 10.5q-26 0 -49 -10.5t-40.5 -28t-28 -41t-10.5 -48.5q0 -26 10.5 -49t28 -40.5t40.5 -28t49 -10.5zM1161 1614q32 13 68 13t68 -13h86l14 -14v-86q13 -32 13 -68t-13 -68v-83l13 -13v-644q0 -21 -2.5 -43t-5.5 -43q-2 -7 -3.5 -15t-1.5 -15v-495l-14 -14h-493 q-10 0 -21 -3t-21 -4q-47 -6 -93 -6q-23 0 -47 1t-47 5q-10 1 -21 4t-20 3h-493l-14 14v495q0 8 -2 17.5t-4 17.5q-3 20 -5 40.5t-2 40.5v644l13 13v83q-13 32 -13 68t13 68v86l14 14h86q32 13 68 13t68 -13h812zM1357 1255h-243q0 -155 0.5 -309t-0.5 -309q0 -17 -4 -40.5 t-9 -39.5q-17 -58 -50.5 -106t-79 -83t-101 -54.5t-115.5 -19.5q-69 0 -133.5 27t-114.5 73.5t-80.5 109t-30.5 133.5q-1 155 -0.5 309t0.5 309h-243v-616q0 -48 10 -97t27 -94q33 -89 89.5 -162t130.5 -124.5t162 -80t183 -28.5q245 0 420 170q86 84 133 189.5t48 226.5 q1 155 1 308v308z" />
<glyph unicode="&#xfd;" horiz-adv-x="1449" d="M612 1759h307l25 -36l-39 -109h61l20 13h338l25 -36l-11 -28v-1536l-14 -14h-438l-14 -13h-295l-14 13h-438l-14 14v1536l-11 28l25 36h338l20 -13h102v118zM846 53v433l2 10l437 1078h-281l-255 -628h-49l-255 628h-281l437 -1078l2 -10v-433h243zM881 1705h-242v-387 h107z" />
<glyph unicode="&#xfe;" horiz-adv-x="1259" d="M1106 813q0 106 -41.5 201t-112.5 166t-166 112.5t-201 41.5h-162l-27 26v214h-243v-1521h243v213l27 26h162q106 0 201 41.5t166 112.5t112.5 165.5t41.5 201.5zM436 1614h696l14 -14v-663q0 -9 2.5 -20t4.5 -20q6 -42 6 -84t-6 -82q-1 -9 -4 -20.5t-3 -20.5v-663 l-14 -14h-696l-13 -13h-296l-27 27v1573l27 27h296zM585 1080q55 0 103.5 -21t85 -57.5t57.5 -85t21 -103.5t-21 -103.5t-57.5 -84.5t-85 -57t-103.5 -21h-162l-27 26v480l27 27h162z" />
<glyph unicode="&#xff;" horiz-adv-x="1312" d="M168 1266l356 -667l4 -12v-534h253v534l4 12l356 667h-235l-214 -407h-46l-242 407h-236zM1043 1319q24 0 45.5 11.5t37 29.5t24.5 40.5t9 45.5q0 26 -10 49.5t-27.5 41t-41 27.5t-49.5 10t-49 -10.5t-40.5 -28t-27.5 -40.5t-10 -49q0 -24 8.5 -46.5t24 -40t36.5 -28.5 t46 -12h24zM963 1614q32 13 68 13q37 0 69 -13h86l13 -14v-86q8 -16 10.5 -33.5t2.5 -34.5t-2.5 -34.5t-10.5 -33.5v-81l10 -17l-10 -19v-1234l-13 -14h-365l-13 -13h-307l-13 13h-365l-13 14v1234l-10 19l10 17v110q0 9 -2 19t-2 20t2 20t2 19v115l13 14h96q32 13 68 13 t68 -13h608zM299 1319q24 0 45.5 11.5t37 29.5t24.5 40.5t9 45.5q0 25 -10.5 48.5t-28 41t-41 28t-48.5 10.5q-26 0 -49 -10.5t-40.5 -28t-28 -40.5t-10.5 -49q0 -31 11 -55t30 -40t44.5 -24t54.5 -8z" />
<glyph unicode="&#x152;" horiz-adv-x="2037" d="M1924 1280v-933l13 -14v-306l-27 -27h-786l-13 13h-50q-12 0 -25.5 -3t-25.5 -4q-48 -6 -96 -6q-51 0 -100 6q-11 2 -24 4.5t-24 2.5h-639l-14 14v639q0 11 -3 23.5t-4 23.5q-6 49 -6 100q0 53 6 104q2 11 4.5 22.5t2.5 21.5v639l14 14h639q10 0 22 2.5t22 4.5 q52 6 104 6q50 0 98.5 -7.5t98.5 -5.5l13 13h786l27 -27v-307zM914 305q-104 0 -196.5 40t-162 109t-110 161.5t-40.5 197.5t40.5 197.5t109.5 161.5t161.5 109.5t197.5 40.5q124 0 236 -58v-886q-13 -10 -26 -21.5t-27 -19.5q-12 -8 -36.5 -13.5t-52 -10t-53.5 -6.5t-41 -2 zM1150 53h734v254h-464l-27 26v326l27 27h229v254h-229l-27 27v326l27 27h464v254h-734l-53 -22q-88 22 -183 22q-105 0 -202 -27t-182 -77t-154 -119t-119 -154t-77 -182t-27 -202q0 -106 27 -203t76.5 -181.5t119 -153.5t154 -118.5t182 -76.5t202.5 -27q95 0 183 22z" />
<glyph unicode="&#x153;" horiz-adv-x="2037" d="M1924 1280v-933l13 -14v-306l-27 -27h-786l-13 13h-50q-12 0 -25.5 -3t-25.5 -4q-48 -6 -96 -6q-51 0 -100 6q-11 2 -24 4.5t-24 2.5h-639l-14 14v639q0 11 -3 23.5t-4 23.5q-6 49 -6 100q0 53 6 104q2 11 4.5 22.5t2.5 21.5v639l14 14h639q10 0 22 2.5t22 4.5 q52 6 104 6q50 0 98.5 -7.5t98.5 -5.5l13 13h786l27 -27v-307zM914 305q-104 0 -196.5 40t-162 109t-110 161.5t-40.5 197.5t40.5 197.5t109.5 161.5t161.5 109.5t197.5 40.5q124 0 236 -58v-886q-13 -10 -26 -21.5t-27 -19.5q-12 -8 -36.5 -13.5t-52 -10t-53.5 -6.5t-41 -2 zM1150 53h734v254h-464l-27 26v326l27 27h229v254h-229l-27 27v326l27 27h464v254h-734l-53 -22q-88 22 -183 22q-105 0 -202 -27t-182 -77t-154 -119t-119 -154t-77 -182t-27 -202q0 -106 27 -203t76.5 -181.5t119 -153.5t154 -118.5t182 -76.5t202.5 -27q95 0 183 22z" />
<glyph unicode="&#x160;" horiz-adv-x="1205" d="M314 1539l289 -125l289 125v165l-279 -119h-21l-278 119v-165zM592 1361l-278 116q-37 -32 -67 -72t-51 -85t-32 -93.5t-11 -97.5q0 -91 35.5 -171t96 -140t141 -95.5t170.5 -36.5l1 1q39 0 73.5 -15t60.5 -40.5t41 -60t15 -73.5t-15 -73.5t-41 -60.5t-60.5 -41 t-73.5 -15q-35 0 -67 12.5t-57.5 34t-42.5 51.5t-21 65h-255q5 -89 42.5 -165t98.5 -132t140.5 -87.5t167.5 -31.5q91 0 173 34.5t143 94.5t97 140.5t36 172.5t-36.5 173.5t-98.5 141.5t-144 94.5t-174 33.5h1q-40 0 -75 14.5t-61.5 40t-41.5 60.5t-15 75q0 39 15 73.5 t41 60.5t60.5 41t73.5 15q36 0 67.5 -12.5t56.5 -34t41.5 -51.5t22.5 -65h266q-8 97 -51 178.5t-118 141.5l-269 -116h-21zM260 1613v132l37 24l306 -131l305 131l37 -24v-132h133l14 -14v-356q0 -8 2.5 -18l4.5 -18q6 -39 6 -77l-13 -13v-506q0 -8 2.5 -18l4.5 -18 q6 -39 6 -78q0 -40 -6 -79q-2 -8 -4.5 -17.5t-2.5 -17.5v-357l-14 -14h-370q-7 0 -15 -2t-15 -3q-38 -6 -75 -6q-38 0 -77 6q-7 1 -14.5 3t-14.5 2h-370l-14 14v357q0 7 -2.5 16t-4.5 17q-6 40 -6 81l13 14v504q0 7 -2.5 16t-4.5 17q-6 40 -6 81q0 40 6 81q2 8 4.5 17 t2.5 16v356l14 14h133z" />
<glyph unicode="&#x161;" horiz-adv-x="1205" d="M314 1539l289 -125l289 125v165l-279 -119h-21l-278 119v-165zM592 1361l-278 116q-37 -32 -67 -72t-51 -85t-32 -93.5t-11 -97.5q0 -91 35.5 -171t96 -140t141 -95.5t170.5 -36.5l1 1q39 0 73.5 -15t60.5 -40.5t41 -60t15 -73.5t-15 -73.5t-41 -60.5t-60.5 -41 t-73.5 -15q-35 0 -67 12.5t-57.5 34t-42.5 51.5t-21 65h-255q5 -89 42.5 -165t98.5 -132t140.5 -87.5t167.5 -31.5q91 0 173 34.5t143 94.5t97 140.5t36 172.5t-36.5 173.5t-98.5 141.5t-144 94.5t-174 33.5h1q-40 0 -75 14.5t-61.5 40t-41.5 60.5t-15 75q0 39 15 73.5 t41 60.5t60.5 41t73.5 15q36 0 67.5 -12.5t56.5 -34t41.5 -51.5t22.5 -65h266q-8 97 -51 178.5t-118 141.5l-269 -116h-21zM260 1613v132l37 24l306 -131l305 131l37 -24v-132h133l14 -14v-356q0 -8 2.5 -18l4.5 -18q6 -39 6 -77l-13 -13v-506q0 -8 2.5 -18l4.5 -18 q6 -39 6 -78q0 -40 -6 -79q-2 -8 -4.5 -17.5t-2.5 -17.5v-357l-14 -14h-370q-7 0 -15 -2t-15 -3q-38 -6 -75 -6q-38 0 -77 6q-7 1 -14.5 3t-14.5 2h-370l-14 14v357q0 7 -2.5 16t-4.5 17q-6 40 -6 81l13 14v504q0 7 -2.5 16t-4.5 17q-6 40 -6 81q0 40 6 81q2 8 4.5 17 t2.5 16v356l14 14h133z" />
<glyph unicode="&#x178;" horiz-adv-x="1312" d="M168 1266l356 -667l4 -12v-534h253v534l4 12l356 667h-235l-214 -407h-46l-242 407h-236zM1043 1319q24 0 45.5 11.5t37 29.5t24.5 40.5t9 45.5q0 26 -10 49.5t-27.5 41t-41 27.5t-49.5 10t-49 -10.5t-40.5 -28t-27.5 -40.5t-10 -49q0 -24 8.5 -46.5t24 -40t36.5 -28.5 t46 -12h24zM963 1614q32 13 68 13q37 0 69 -13h86l13 -14v-86q8 -16 10.5 -33.5t2.5 -34.5t-2.5 -34.5t-10.5 -33.5v-81l10 -17l-10 -19v-1234l-13 -14h-365l-13 -13h-307l-13 13h-365l-13 14v1234l-10 19l10 17v110q0 9 -2 19t-2 20t2 20t2 19v115l13 14h96q32 13 68 13 t68 -13h608zM299 1319q24 0 45.5 11.5t37 29.5t24.5 40.5t9 45.5q0 25 -10.5 48.5t-28 41t-41 28t-48.5 10.5q-26 0 -49 -10.5t-40.5 -28t-28 -40.5t-10.5 -49q0 -31 11 -55t30 -40t44.5 -24t54.5 -8z" />
<glyph unicode="&#x17d;" horiz-adv-x="1529" d="M482 1539l289 -125l289 125v165l-279 -119h-21l-278 119v-165zM1113 1627h289l23 -40l-10 -17v-1212l14 -14v-317l-27 -27h-1275l-23 40l9 17v1211l-13 14v318l27 27h302v118l37 24l305 -131l305 131l37 -24v-118zM760 1361l-315 136l-16 24v53h-276v-266h691l23 -39 l-695 -1216h1203v265h-690l-23 40l694 1216h-243v-53l-16 -24l-316 -136h-21z" />
<glyph unicode="&#x17e;" horiz-adv-x="1529" d="M482 1539l289 -125l289 125v165l-279 -119h-21l-278 119v-165zM1113 1627h289l23 -40l-10 -17v-1212l14 -14v-317l-27 -27h-1275l-23 40l9 17v1211l-13 14v318l27 27h302v118l37 24l305 -131l305 131l37 -24v-118zM760 1361l-315 136l-16 24v53h-276v-266h691l23 -39 l-695 -1216h1203v265h-690l-23 40l694 1216h-243v-53l-16 -24l-316 -136h-21z" />
<glyph unicode="&#x192;" horiz-adv-x="1231" d="M153 1578v-1520h243v606l27 27h376v254h-376l-27 26v326l27 27h655v254h-925zM1118 1284v-1253l-14 -13h-668l-13 -14h-296l-27 27v1574l27 26h977l27 -26v-308z" />
<glyph unicode="&#x2013;" horiz-adv-x="865" d="M711 841h-558v-154h558v154zM113 27v620l-13 13v208l13 13v719l14 14h611l13 -14v-719l14 -13v-208l-14 -13v-620l-13 -14h-611z" />
<glyph unicode="&#x2014;" horiz-adv-x="1036" d="M882 841h-729v-154h729v154zM113 27v620l-13 13v208l13 13v719l14 14h782l13 -14v-719l14 -13v-208l-14 -13v-620l-13 -14h-782z" />
<glyph unicode="&#x2018;" horiz-adv-x="558" d="M431 0h-306l-14 14v1126l-11 17q0 1 2 6t4 11t3.5 11l1.5 5v397l14 14h134l19 13h153l27 -27v-439l-13 -13v-1121zM162 1175h243v386h-108z" />
<glyph unicode="&#x2019;" horiz-adv-x="558" d="M447 27l-14 -14h-306l-14 14v1120l-13 13v440l27 27h306l25 -35q0 -1 -2 -6.5t-4 -11.5t-3.5 -11l-1.5 -5v-1531zM396 1574h-243v-387h108z" />
<glyph unicode="&#x201a;" horiz-adv-x="558" d="M127 1614h306l14 -14v-1126l11 -17q0 -1 -2 -6t-4 -11t-3.5 -11l-1.5 -5v-397l-14 -14h-134l-19 -13h-153l-27 27v439l13 13v1121zM396 439h-243v-386h108z" />
<glyph unicode="&#x201c;" horiz-adv-x="1032" d="M125 1614h135l18 13h154l13 -13h288l19 13h153l27 -27v-440l-14 -13v-1120l-13 -14h-780l-13 14v1125l-12 17q0 1 2 6.5t4.5 11.5t4 11l1.5 5v397zM163 1187h242v387h-108zM636 1187h242v387h-107z" />
<glyph unicode="&#x201d;" horiz-adv-x="1032" d="M443 1614h144l13 13h307l25 -35q0 -1 -2 -6.5t-4.5 -11.5t-4 -11l-1.5 -5v-1531l-13 -14h-780l-14 14v1120l-13 13v440l27 27h306zM869 1574h-242v-387h108zM396 1574h-243v-387h108z" />
<glyph unicode="&#x201e;" horiz-adv-x="1032" d="M127 1614h780l13 -14v-1126l12 -17q0 -1 -2 -6t-4.5 -11t-4 -11l-1.5 -5v-397l-13 -14h-135l-19 -13h-153l-13 13h-288l-19 -13h-153l-27 27v439l13 13v1121zM869 439h-242v-386h108zM396 439h-243v-386h108z" />
<glyph unicode="&#x2020;" horiz-adv-x="846" d="M113 27v1135l-13 13v258l13 13v154l14 14h154l12 12h259l12 -12h155l13 -14v-154l14 -13v-258l-14 -13v-1135l-13 -14h-155l-12 -12h-259l-12 12h-154zM320 1175v-1121h205v1121l27 27h140v204h-140l-27 27v140h-205v-140l-27 -27h-140v-204h140z" />
<glyph unicode="&#x2021;" horiz-adv-x="854" d="M754 455v-261l-14 -13v-154l-13 -14h-155l-12 -12h-267l-12 12h-154l-14 14v154l-13 13v261l13 13v692l-13 13v260l13 13v154l14 14h154l12 12h267l12 -12h155l13 -14v-154l14 -13v-260l-14 -13v-692zM293 428h-140v-207h140l27 -27v-140h213v140l27 27h140v207h-140 l-27 27v718l27 27h140v206h-140l-27 27v140h-213v-140l-27 -27h-140v-206h140l27 -27v-718z" />
<glyph unicode="&#x2022;" horiz-adv-x="741" d="M320 520h100l167 167v100l-167 167h-100l-167 -167v-100zM113 27v620l-13 13v154l13 13v773l14 14h487l13 -14v-773l14 -13v-154l-14 -13v-620l-13 -14h-487z" />
<glyph unicode="&#x2026;" horiz-adv-x="1388" d="M281 53q26 0 49 10t40.5 27.5t28 40.5t10.5 49t-10.5 49t-28 40.5t-40.5 28t-49 10.5t-49.5 -10t-41 -27.5t-27.5 -41t-10 -49.5t10 -49.5t27.5 -40.5t41 -27t49.5 -10zM1107 53q26 0 49 10t40.5 27.5t28 40.5t10.5 49t-10.5 49t-28 40.5t-40.5 28t-49 10.5 q-27 0 -50 -10t-40.5 -27.5t-27.5 -40.5t-10 -50q0 -26 10 -49.5t27.5 -40.5t41 -27t49.5 -10zM1175 13q-32 -13 -68 -13t-68 13h-276q-32 -13 -69 -13q-36 0 -68 13h-277q-32 -13 -68 -13t-68 13h-86l-14 14v85q-13 32 -13 68t13 68v1352l14 14h1133l13 -14v-1348 q15 -35 15 -72q0 -38 -15 -72v-81l-13 -14h-85zM694 53q26 0 49 10t40.5 27.5t28 40.5t10.5 49t-10 49.5t-27.5 41t-41 27.5t-49.5 10t-49 -10.5t-40.5 -28t-27.5 -40.5t-10 -49t10 -49.5t27 -40.5t40.5 -27t49.5 -10z" />
<glyph unicode="&#x2039;" horiz-adv-x="965" d="M100 629l14 19v952l13 14h712l13 -14v-678l13 -9v-315l-13 -20v-218l13 -19v-314l-36 -25l-29 11h-673l-13 14v263l-14 20v319zM154 611v-284l658 -261v257l-305 121v50l305 122v257z" />
<glyph unicode="&#x203a;" horiz-adv-x="965" d="M153 873v-257l305 -122v-50l-305 -121v-257l658 261v284zM865 310l-14 -20v-263l-13 -14h-673l-29 -11l-36 25v314l13 19v218l-13 20v315l13 9v678l13 14h712l13 -14v-952l14 -19v-319z" />
<glyph unicode="&#x20ac;" horiz-adv-x="1582" d="M1016 1627q50 0 101 -6q11 -1 23 -4t23 -3h281l14 -14v-103l16 -11l8 -35l-24 -45v-1379l-14 -14h-281q-12 0 -25.5 -3t-25.5 -4q-48 -6 -96 -6q-51 0 -100 6q-11 2 -24 4.5t-24 2.5h-741l-14 14v463l-13 13v207l13 13v180l-13 14v206l13 14v463l14 14h741q10 0 22 2.5 t22 4.5q52 6 104 6zM1016 1574q-113 0 -219.5 -33t-199 -93.5t-165 -145.5t-116.5 -189l-24 -16h-139v-154h82l26 -30q-5 -25 -5.5 -50t-0.5 -50t0.5 -50t5.5 -50l-26 -30h-82v-153h139l24 -17q45 -105 117.5 -190t164 -145t198 -92.5t220.5 -32.5q181 0 342 81v304 q-71 -65 -158.5 -99t-183.5 -34q-56 0 -110.5 12t-104.5 35t-94.5 56.5t-79.5 77.5l20 44h270l84 153h-456l-26 21q-12 54 -12 109q0 28 2.5 55t9.5 54l26 21h599l84 154h-581l-20 43q72 86 174.5 134t214.5 48q76 0 149.5 -23t136.5 -66l122 222q-92 59 -195.5 89 t-212.5 30z" />
<glyph unicode="&#x25fc;" horiz-adv-x="1625" d="M0 1625h1625v-1625h-1625v1625z" />
<glyph horiz-adv-x="0" />
<glyph horiz-adv-x="1614" d="M936 53q218 0 371 153q154 155 154 372q0 186 -117 331q-119 144 -301 183l-15 43l356 439h-353.5h-352.5q-219 0 -371 -154q-76 -76 -114 -170q-40 -95 -40 -202v-995h237v995q0 58 22 111q21 52 62 93t94 63q55 22 110 22h144h23l21 -44l-268 -326l154 -167 q78 66 184 66q119 0 203 -84q85 -84 85 -204q0 -121 -85 -204q-84 -84 -203 -84q-60 0 -111 21q-40 17 -73 45l-168 -168q149 -135 352 -135zM127 1614h427q59 13 124 13h762l6 -13h42l13 -14v-898q13 -58 13 -124q0 -67 -13 -124v-427l-13 -14h-428q-65 -13 -124 -13 q-61 0 -124 13h-382l-14 -13h-289l-27 27v1021q0 60 14 124v428z" />
</font>
</defs>
</svg>
