<?xml version="1.0" standalone="no"?>
<!DOCTYPE svg PUBLIC "-//W3C//DTD SVG 1.1//EN" "http://www.w3.org/Graphics/SVG/1.1/DTD/svg11.dtd" >
<svg xmlns="http://www.w3.org/2000/svg">
<metadata></metadata>
<defs>
<font id="cut_me_outregular" horiz-adv-x="1828" >
<font-face units-per-em="2000" ascent="1600" descent="-400" />
<missing-glyph horiz-adv-x="600" />
<glyph unicode="&#xd;" horiz-adv-x="2000" />
<glyph unicode=" "  horiz-adv-x="600" />
<glyph unicode="&#x09;" horiz-adv-x="600" />
<glyph unicode="&#xa0;" horiz-adv-x="600" />
<glyph unicode="!" horiz-adv-x="562" d="M127 1627h306l27 -27v-994l-13 -13v-340q7 -17 11 -35.5t4 -37.5t-4 -37.5t-11 -35.5v-80l-14 -14h-84q-32 -13 -68 -13t-68 13h-86l-14 14v85q-13 32 -13 68t13 68v345l-13 13v994zM407 1574h-254v-942h254v942zM420 579h-278l-2 -285q24 33 62.5 50t78.5 17 q82 0 139 -65v283zM281 53q26 0 49 10t40.5 27.5t28 40.5t10.5 49t-10.5 49t-28 40.5t-40.5 28t-49 10.5t-49.5 -10t-41 -27.5t-27.5 -41t-10 -49.5t10 -49.5t27.5 -40.5t41 -27t49.5 -10zM168 40l1 -1q-8 6 -15 13q-8 8 -14 16v-28h28zM409 53l-16 -13h27v25z" />
<glyph unicode="&#x22;" horiz-adv-x="1032" d="M442 1614h144l13 13h307l25 -35q0 -1 -2 -6.5t-4.5 -11.5t-4.5 -11l-1 -5v-1531l-13 -14h-780l-14 14v1120l-13 13v440l27 27h306zM892 1481l-115 -330l-25 -18h-152l-27 27v427h-116l-152 -436l-25 -18h-140v-1093h752v1441zM396 1574h-243v-388h108zM868 1574h-242 v-388h108z" />
<glyph unicode="#" horiz-adv-x="1192" d="M153 993h201l25 -35l-44 -152l-26 -19h-156v-101h111l26 -34l-60 -205h112l64 220l26 19h168l25 -34l-60 -205h112l65 220l25 19h272v101h-227l-25 34l45 152l25 20h182v101h-137l-26 34l60 205h-112l-64 -220l-26 -19h-167l-26 34l60 205h-112l-65 -220l-25 -19h-246 v-101zM127 1614h939l13 -14v-466l13 -14v-153l-13 -13v-127l13 -14v-154l-13 -13v-619l-13 -14h-939l-14 14v619l-13 13v154l13 14v127l-13 13v153l13 14v466zM318 940h-178v-100h149zM140 1147h239l64 220l26 19h167l26 -34l-60 -205h113l64 220l25 19h168l25 -34l-60 -205 h115v440h-912v-440zM1052 940h-175l-29 -100h204v100zM1052 633h-265l-64 -220l-26 -19h-167l-26 34l60 205h-112l-65 -220l-25 -19h-168l-26 34l60 205h-88v-593h912v593zM644 787h-167l-26 34l45 152l26 20h167l26 -35l-45 -152zM512 840h113l29 100h-112z" />
<glyph unicode="$" horiz-adv-x="1118" d="M1018 1063l-14 -14v-380q0 -7 2.5 -16.5t4.5 -16.5q7 -34 7 -72t-7 -72q-1 -7 -4 -17t-3 -16v-433l-13 -14h-317l-13 -13h-204l-13 13h-316l-14 14v433q0 6 -3 16t-4 17q-7 34 -7 72l14 15v378q0 7 -2.5 16.5t-4.5 16.5q-7 34 -7 72t7 72q2 7 4.5 16.5t2.5 16.5v432 l14 14h316l13 13h204l13 -13h317l13 -14v-432q0 -6 2.5 -14t3.5 -15q8 -38 8 -75zM658 1403l-24 27v143h-150v-143l-24 -27q-65 -8 -121 -37.5t-97.5 -75t-65 -104t-23.5 -124.5q0 -65 24 -123.5t65 -104.5t97 -76t121 -37l24 -26v-253l-35 -25q-39 12 -68 45.5t-36 75.5 h-190q4 -62 29.5 -116t67 -96t95.5 -69t113 -34l24 -27v-144h150v144l24 27q64 7 120 37t97.5 76t65.5 104.5t24 123.5t-24 123.5t-65.5 104.5t-97.5 75.5t-120 37.5l-24 27v250l37 25q38 -17 62 -47.5t32 -70.5h199q-5 62 -30.5 116t-66 95.5t-94.5 68t-115 34.5zM977 389 q-45 -88 -118.5 -143.5t-171.5 -72.5v-134h290v350zM431 39v134q-96 17 -171.5 72.5t-118.5 143.5v-350h290zM687 1453q97 -18 171 -73t119 -143v349h-290v-133zM141 1237q42 88 118 143.5t172 72.5v133h-290v-349zM141 591h228l27 -27q0 -22 8.5 -42.5t26.5 -34.5v185 q-95 16 -171.5 72t-118.5 144v-297zM977 1036h-236l-27 27q0 17 -7 37t-20 32v-177q97 -18 170.5 -73t119.5 -143v297zM449 1210l35 -25v-244l-35 -26q-48 16 -77 56.5t-29 91.5t29.5 91t76.5 56zM671 421l-37 24v239l37 24q45 -17 70.5 -57t25.5 -87t-25.5 -86.5 t-70.5 -56.5zM431 1140q-17 -13 -26 -34.5t-9 -42.5t9 -42.5t26 -34.5v154zM687 495q14 14 20.5 32t6.5 37q0 21 -7.5 37t-19.5 33v-139z" />
<glyph unicode="%" horiz-adv-x="1645" d="M1517 480q25 -59 25 -127t-25 -127v-199l-13 -14h-228q-8 0 -18 -3t-18 -5q-36 -6 -72 -6q-37 0 -71 6q-8 2 -18 5t-18 3l-612 -1l-22 -12h-300l-22 42l8 12v1123q0 6 -2.5 14.5t-4.5 14.5q-6 31 -6 65q0 33 6 68q2 5 4.5 13.5t2.5 13.5v234l14 14h245q6 0 16 3l18 5 q17 3 33.5 4t33.5 1t34 -1t34 -4l17 -5q11 -3 17 -3h625l1 2l22 11h301l21 -42l-28 -40v-1065zM645 1587q93 -48 147 -129t54 -187q0 -76 -30.5 -141t-82.5 -112.5t-119.5 -74.5t-140.5 -27q-52 0 -102 12.5t-93.5 37.5t-79 61t-58.5 84v-1019l1041 1495h-536zM1473 1574 h-236l-1059 -1521h235zM1168 709q102 0 185 -45t138 -131v974l-1022 -1467h524q-92 49 -145 128t-53 185q0 76 30.5 141t82 113t119 75t141.5 27zM1168 656q-64 0 -122 -23t-102 -63.5t-70.5 -96t-26.5 -120.5t26.5 -120t70.5 -95.5t102 -63t122 -22.5q63 0 121 22.5 t102.5 62.5t71 95.5t26.5 120.5q0 66 -26.5 121.5t-70.5 96t-102 63t-122 22.5zM473 1574q-63 0 -121 -23t-102 -63.5t-70.5 -96t-26.5 -120.5t26.5 -120t71 -95.5t102 -63.5t120.5 -23t120.5 23t102 63.5t71 95.5t26.5 120q0 66 -26 121.5t-70 96t-102 63t-122 22.5z M473 1410q28 0 54.5 -11t47 -30t32.5 -44.5t12 -53.5q0 -29 -12 -54.5t-32.5 -44.5t-47 -29.5t-54.5 -10.5q-29 0 -55.5 10.5t-46.5 29t-31.5 44t-11.5 55.5q0 28 12 53.5t32 44.5t46 30t55 11zM1168 493q-29 0 -55 -11t-46 -30t-32 -44.5t-12 -54.5t12 -54.5t32 -44.5 t46 -29.5t55 -10.5q28 0 54.5 10.5t47 29.5t32.5 44.5t12 54.5t-12 54.5t-32.5 44.5t-47 30t-54.5 11zM1261 353q0 -19 -8 -34.5t-20.5 -27t-29.5 -18t-35 -6.5t-34.5 6.5t-29.5 18t-20.5 27.5t-7.5 34q0 19 7.5 34.5t20.5 27t29.5 18t34.5 6.5t35 -6.5t30 -17.5t20.5 -27 t7.5 -35zM473 1357q-18 0 -34.5 -6.5t-29 -18t-20.5 -27.5t-8 -34q0 -19 7.5 -34.5t20.5 -27t29.5 -18t34.5 -6.5q17 0 34 6.5t30 18.5t21 27.5t8 33.5q0 19 -7.5 35t-20.5 27t-30 17.5t-35 6.5zM140 1432q29 52 69 89.5t92 65.5h-161v-155zM1491 173q-30 -45 -64.5 -76 t-82.5 -57h147v133z" />
<glyph unicode="&#x26;" horiz-adv-x="1357" d="M128 1614h354q8 0 17.5 3t17.5 4q20 4 40 5t40 1q40 0 79 -6q8 -1 18 -4t18 -3h519l13 -14v-620l13 -13v-308l-13 -13v-301l13 -13v-306l-26 -27q-20 0 -41 1.5t-41 5.5q-8 2 -19 4.5t-19 2.5h-395q-8 0 -19 -2.5t-19 -4.5q-20 -3 -40.5 -5t-40.5 -2q-43 0 -81 7 q-8 2 -19 4.5t-19 2.5h-350l-13 14v348q0 8 -3 18.5t-5 18.5q-4 20 -5.5 41t-1.5 42t1.5 42t5.5 41q2 8 5 18.5t3 18.5v396q0 8 -3 18t-5 18q-4 21 -5.5 41.5t-1.5 41.5t1.5 42t5.5 41q2 8 5 18.5t3 18.5v350zM597 1319q36 0 68 -13t57.5 -36t42 -54t20.5 -67h255 q-4 88 -40.5 165.5t-96.5 135t-139 90.5t-167 33q-91 0 -172 -35t-141.5 -95.5t-95.5 -141.5t-35 -172q0 -85 29.5 -160t86.5 -138v-36q-57 -63 -86.5 -139t-29.5 -160q0 -92 35 -172.5t95.5 -140.5t141 -95t172.5 -35q82 0 160.5 29t138.5 86h36q55 -53 126 -81t146 -33 v254q-34 4 -64 20.5t-52 42t-34.5 56.5t-12.5 65v166l27 27h136v255h-487v-255h42l27 -27q0 -38 0.5 -75.5t0.5 -75.5q0 -41 -14 -77t-39.5 -63.5t-60 -44t-76.5 -16.5q-39 0 -73 15t-60 41t-41 60t-15 73q0 36 12.5 67.5t34.5 56t51.5 41t64.5 22.5v259q-35 5 -64.5 21.5 t-51.5 41.5t-34.5 57t-12.5 68q0 39 15 73.5t41 60.5t60 41t73 15zM1217 1587l-424 13q69 -35 124 -84t94 -109.5t60.5 -131t21.5 -148.5v-4l-26 -27h-307l-26 28q0 29 -10 55t-28.5 45.5t-43.5 30.5t-55 11q-28 0 -53 -10.5t-43.5 -29t-29 -43.5t-10.5 -53q0 -29 10.5 -54 t29 -43.5t43.5 -29t53 -10.5l27 -27v-308l-27 -26q-28 0 -52.5 -11t-43 -30t-29.5 -43.5t-11 -52.5q0 -29 10.5 -53.5t29 -43t43 -29t53.5 -10.5q28 0 52.5 11t43.5 29.5t30 43t11 52.5v74q0 16 -0.5 32t-0.5 32h-42l-27 26v307l27 27h526v594zM1217 359v274h-124v-138 q0 -26 9 -49q9 -24 25.5 -42t39.5 -30t50 -15zM401 1587h-260v-259q38 87 105 154t155 105zM141 297v-257h258q-88 38 -154.5 103.5t-103.5 153.5zM141 932v-238q28 64 74 119q-46 52 -74 119zM795 40h238q-32 14 -61.5 32t-57.5 40q-53 -45 -119 -72z" />
<glyph unicode="'" horiz-adv-x="558" d="M447 27l-14 -14h-306l-14 14v1120l-13 13v440l27 27h306l25 -35q0 -1 -2 -6.5t-4 -11.5t-4 -11l-1 -5v-1531zM420 1481l-115 -330l-25 -18h-140v-1093h280v1441zM396 1574h-243v-387h108z" />
<glyph unicode="(" horiz-adv-x="736" d="M127 1614h188l23 13h276l22 -42l-8 -11v-1520l8 -12l-22 -42h-276l-23 13h-188l-14 14v578q0 17 -3 35t-5 35q-2 35 -3.5 69t-1.5 69t1.5 69t3.5 69q2 17 5 35.5t3 35.5v578zM601 1535q-106 -162 -161.5 -345t-55.5 -377q0 -193 55.5 -377t161.5 -345v1444zM300 40 q-56 97 -97 202t-63 214v-416h160zM140 1170q22 111 64 214.5t96 202.5h-160v-417zM563 1574h-209q-100 -174 -150.5 -367.5t-50.5 -393.5q0 -98 12.5 -197t38 -196t63 -189.5t87.5 -177.5h209q-115 167 -173.5 362.5t-58.5 397.5q0 204 59.5 397.5t172.5 363.5z" />
<glyph unicode=")" horiz-adv-x="736" d="M173 1574q113 -170 172.5 -363.5t59.5 -397.5q0 -100 -15 -200.5t-44.5 -197t-72.5 -188t-100 -174.5h209q99 172 150 367t51 393q0 200 -50.5 393.5t-150.5 367.5h-209zM596 1587h-160q54 -99 95.5 -202.5t64.5 -214.5v417zM596 40v416q-22 -109 -63 -214t-97 -202h160z M135 91q106 161 161.5 345t55.5 377q0 194 -55.5 377t-161.5 345v-1444zM623 1600v-578q0 -17 3 -35.5t5 -35.5q2 -35 3.5 -69t1.5 -69t-1.5 -69t-3.5 -69q-2 -17 -5 -35t-3 -35v-578l-14 -14h-188l-23 -13h-276l-22 42l8 12v1520l-8 11l22 42h276l23 -13h188z" />
<glyph unicode="*" horiz-adv-x="745" d="M476 1587v-51l56 32l36 -10l35 -60v89h-127zM630 1452l15 -27l-10 -36l-5 -3v-58l5 -4l10 -36l-15 -27v-1234l-14 -14h-487l-14 14v1234l-15 27l10 36l5 4v58l-5 3l-10 36l15 27v148l14 14h153l14 13h153l14 -13h153l14 -14v-148zM603 1370l-24 -13l24 -14v27zM603 1215 l-35 -60l-36 -10l-56 33v-65l-27 -27h-153l-27 27v65l-56 -33l-36 10l-35 60v-1175h461v1175zM142 1343l24 14l-24 13v-27zM142 1498l35 60l36 10l56 -32v51h-127v-89zM423 1490v87l-101 -3v-84l-40 -23l-72 42l-51 -87l73 -42v-46l-73 -42l51 -87l72 42l40 -23v-84h101v84 l40 23l72 -42l51 87l-73 42v46l73 42l-51 87l-72 -42z" />
<glyph unicode="+" horiz-adv-x="795" d="M320 597v-139h154v139l27 27h140v163h-140l-27 27v140h-154v-140l-27 -27h-140v-163h140zM654 1587h-514v-747h127v141l26 26h207l27 -26v-141h127v747zM140 40h514v531h-127v-140l-27 -26h-207l-26 26v140h-127v-531zM113 27v558l-13 13v216l13 13v773l14 14h541l13 -14 v-773l14 -13v-216l-14 -13v-558l-13 -14h-541z" />
<glyph unicode="," horiz-adv-x="558" d="M127 1614h306l14 -14v-1126l11 -17q0 -1 -2 -6t-4 -11t-4 -11l-1 -5v-397l-14 -14h-134l-19 -13h-153l-27 27v439l13 13v1121zM140 492h280v1094h-280v-1094zM396 439h-243v-386h108zM420 347l-107 -307h107v307z" />
<glyph unicode="-" horiz-adv-x="741" d="M587 841h-434v-155h434v155zM601 1587h-461v-693h461v693zM140 40h461v593h-461v-593zM113 27v620l-13 13v208l13 13v719l14 14h487l13 -14v-719l14 -13v-208l-14 -13v-620l-13 -14h-487z" />
<glyph unicode="." horiz-adv-x="562" d="M127 1614h306l14 -14v-1347q7 -17 11 -35.5t4 -37.5t-4 -37.5t-11 -35.5v-80l-14 -14h-84q-32 -13 -68 -13t-68 13h-86l-14 14v85q-13 32 -13 68t13 68v1352zM140 294q24 33 62.5 50t78.5 17q82 0 139 -65v1291h-280v-1293zM281 53q26 0 49 10t40.5 27.5t28 40.5t10.5 49 t-10.5 49t-28 40.5t-40.5 28t-49 10.5t-49.5 -10t-41 -27.5t-27.5 -41t-10 -49.5t10 -49.5t27.5 -40.5t41 -27t49.5 -10zM168 40l1 -1q-8 6 -15 13q-8 8 -14 16v-28h28zM395 40h25v25q-12 -13 -25 -25z" />
<glyph unicode="/" horiz-adv-x="1116" d="M953 1574h-202l-587 -1521h202zM699 1587h-561v-1453zM418 40h552v1432zM732 1627h259l25 -36l-19 -50v-1514l-13 -14h-581l-19 -13h-259l-25 36l11 30v1534l14 14h588z" />
<glyph unicode="0" horiz-adv-x="1194" d="M597 1266q-29 0 -54 -10.5t-43.5 -29t-29 -43.5t-10.5 -53v-635q0 -29 10.5 -53.5t29 -43t43 -29t54.5 -10.5q28 0 52.5 11t43.5 29.5t30 43t11 52.5v635q0 28 -11 53t-29.5 43.5t-43.5 29t-53 10.5zM1054 1591h-272q92 -36 162.5 -105t109.5 -160v265zM412 1591h-272 v-265q38 91 109.5 159.5t162.5 105.5zM140 299v-255h249q-85 40 -149 104t-100 151zM805 44h249v255q-36 -85 -100.5 -151t-148.5 -104zM127 1618h376q7 0 15 2t15 3q16 2 32 3t32 1q17 0 33 -1t33 -3q7 -1 14.5 -3t14.5 -2h376l13 -13v-360q0 -8 3 -18t4 -18q6 -39 6 -79 v-635q0 -20 -1 -40t-5 -40q-1 -8 -4 -17.5t-3 -17.5v-349l-13 -13h-335q-8 0 -20.5 -4t-22.5 -6q-45 -9 -93 -9t-94 9q-9 2 -21.5 6t-20.5 4h-334l-14 13v348q0 8 -2.5 18.5t-4.5 18.5q-6 39 -6 79v635q0 40 6 79q2 8 4.5 18.5t2.5 18.5v359zM597 1319q39 0 73.5 -15 t60.5 -41t41 -60.5t15 -73.5v-633q0 -39 -15 -73.5t-41 -60.5t-60.5 -41t-73.5 -15t-73.5 15t-60.5 41t-41 60.5t-15 73.5v633q0 39 15 74t40.5 60.5t60.5 40.5t74 15zM1041 495v635q0 91 -35.5 171.5t-96 141t-141 96t-171.5 35.5t-172 -35t-141.5 -95.5t-95.5 -141.5 t-35 -172v-635q0 -92 35 -172.5t95.5 -140.5t141 -95t172.5 -35q93 0 174 34.5t141 94t94.5 140.5t34.5 174z" />
<glyph unicode="1" horiz-adv-x="791" d="M310 1591h-170v-140zM140 1021v-978h202l-1 1140l-197 -163zM113 1035l-13 6v364q2 3 6 12.5t7 11.5v176l14 13h215q3 4 12.5 8.5t13.5 4.5h295l27 -26v-1574l-27 -27h-295l-13 14h-228l-14 13v1004zM153 1098l198 163l44 -20v-1184h242v1521h-259l-225 -185v-295z" />
<glyph unicode="2" horiz-adv-x="1194" d="M597 1319q39 0 73.5 -15t60.5 -41t41 -60.5t15 -72.5q0 -40 -15 -74t-40.5 -59.5t-60 -40.5t-73.5 -16l-1 -1q-90 0 -171.5 -35t-142 -95.5t-96 -141t-35.5 -171.5q0 -112 0.5 -221.5t1.5 -221.5h887v254h-607l-27 26v162q0 39 15 73.5t41 60.5t60 41t73 15l1 1 q91 0 172 35t141.5 95.5t95.5 141t35 172.5q0 91 -35.5 171.5t-96 141t-141 96t-171.5 35.5q-88 0 -166 -32.5t-138 -89t-97 -133t-43 -163.5h255q5 35 22 65t42.5 51.5t57.5 34t67 12.5zM1053 1587h-260q88 -38 155 -105.5t105 -155.5v261zM401 1587h-261l1 -258 q38 87 105.5 154.5t154.5 103.5zM140 1103v-409q30 69 76.5 124t106 94t129 59.5t144.5 20.5l1 2q28 0 53 10.5t44 29t29.5 43t10.5 53.5q0 28 -11 53t-29.5 43.5t-43.5 29t-53 10.5q-29 0 -54 -10.5t-43.5 -29t-29 -43.5t-10.5 -53l-27 -27h-293zM1053 360v574 q-29 -69 -76 -124.5t-106.5 -95t-129 -60.5t-144.5 -21l-1 -1q-28 0 -52.5 -11t-43 -30t-29.5 -43.5t-11 -52.5v-135h593zM115 1115l-15 15q0 21 1.5 42t5.5 41q2 8 5 18.5t3 18.5v350l13 14h354q8 0 17.5 3t17.5 4q20 4 40 5t40 1q39 0 78 -6q8 -1 18 -4t18 -3h356l13 -14 v-355q0 -8 3 -18t4 -18q6 -39 6 -79q0 -20 -1 -40t-5 -40q-1 -8 -4 -17.5t-3 -17.5v-668l13 -14v-306l-26 -27h-939l-27 27l-1 468q0 21 1.5 42t5.5 42q2 8 5 18t3 18v500z" />
<glyph unicode="3" horiz-adv-x="1194" d="M113 1110l-13 13v6q0 38 6 76q1 9 4 20t3 20v355l14 14h355q8 0 17.5 3t17.5 4q20 4 40 5t40 1q40 0 79 -6q8 -1 18 -4t18 -3h354l14 -14v-350q0 -9 2.5 -20t4.5 -19q3 -20 5 -40.5t2 -40.5q0 -43 -7 -81q-2 -8 -4.5 -19t-2.5 -19v-396q0 -9 2.5 -20t4.5 -19 q3 -20 5 -40.5t2 -40.5t-1.5 -41t-5.5 -41q-2 -8 -4.5 -19t-2.5 -19v-348l-14 -14h-349q-9 0 -20 -2.5t-19 -4.5q-20 -3 -40.5 -5t-40.5 -2q-43 0 -81 7q-8 2 -19 4.5t-19 2.5h-351l-14 14v353q0 8 -3 19t-4 20q-6 38 -6 76v8l13 13v594zM597 1319q39 0 73.5 -15t60.5 -41 t41 -60.5t15 -73.5q0 -35 -12.5 -66.5t-34 -57t-51.5 -42t-65 -21.5v-259q35 -6 65 -22.5t51.5 -41.5t34 -56t12.5 -67q0 -39 -15 -73.5t-41 -60.5t-60.5 -41t-73.5 -15q-36 0 -68.5 13t-58.5 36t-42.5 53.5t-20.5 66.5h-254q4 -89 40.5 -166t96.5 -134t138.5 -90t167.5 -33 q91 0 172 35t141.5 95t95.5 140.5t35 172.5q0 85 -31 160.5t-85 139.5v36q56 63 86 138.5t30 160.5q0 91 -35.5 171.5t-96 141t-141 96t-171.5 35.5q-89 0 -167.5 -33t-138.5 -90.5t-96.5 -135.5t-40.5 -166h254q4 36 20.5 67.5t42.5 54t58.5 35.5t68.5 13zM139 1096v-568 h295l27 -28q0 -29 10 -54.5t28 -45t43 -30.5t55 -11q28 0 52.5 11t43.5 29.5t30 43t11 52.5t-11 52.5t-30 43.5t-43.5 30t-52.5 11l-26 26v309l26 27q28 0 53 10.5t44 29t29.5 43t10.5 53.5q0 28 -11 53t-29.5 43.5t-43.5 29t-53 10.5q-30 0 -55 -11t-43 -30.5t-28 -45.5 t-10 -55l-27 -28h-295zM400 1587h-261v-261q38 88 105.5 155.5t155.5 105.5zM1053 1587h-260q87 -38 154.5 -104.5t105.5 -154.5v259zM139 299v-259h260q-88 38 -155 104t-105 155zM795 40h258v257q-38 -88 -104 -154t-154 -103zM1053 694v238q-14 -32 -32 -62t-41 -57 q22 -28 40 -57.5t33 -61.5z" />
<glyph unicode="4" horiz-adv-x="1193" d="M474 616h78v175zM1053 1591h-152v-975h152v975zM543 1591h-403v-906zM140 256v-212h412v212h-412zM901 44h152v212h-152v-212zM408 601l146 327l51 -11v-327l-27 -27h-145zM113 625v980l14 13h431l20 13h296l14 -13h178l14 -13v-1002l13 -13v-307l-13 -14v-238l-14 -13 h-178l-14 -14h-296l-13 14h-438l-14 13v238l-13 14v307q0 7 5 18t8 17zM596 1578l-443 -993v-276h425l27 -26v-225h243v225l26 26h166v254h-166l-26 27v988h-252z" />
<glyph unicode="5" horiz-adv-x="1194" d="M1053 848v418h-593v-120h136q75 0 145 -21t129 -59.5t105.5 -93.5t77.5 -124zM1080 769q0 -8 2.5 -19t4.5 -19q4 -20 5.5 -41t1.5 -41v-154q0 -20 -1.5 -41t-5.5 -41q-2 -8 -4.5 -19t-2.5 -19v-348l-14 -14h-349q-9 0 -20 -2.5t-19 -4.5q-20 -3 -40.5 -5t-40.5 -2 q-43 0 -81 7q-8 2 -19 4.5t-19 2.5h-351l-14 14v353q0 8 -3 17.5t-4 17.5q-4 20 -5 40t-1 40l13 14v291l-13 13v787l27 27h939l27 -27v-307l-13 -13v-511zM1053 297q-38 -88 -104 -154t-154 -103h258v257zM399 40q-88 38 -154.5 104t-104.5 155v-259h259zM140 522h293 l27 -27q0 -29 10.5 -53.5t29 -43t43 -29t54.5 -10.5q28 0 52.5 11t43.5 29.5t30 43t11 52.5v154q0 28 -11 52.5t-30 43.5t-43.5 30t-52.5 11l-457 1v-265zM434 1093l-27 26v173l27 27h606v255h-887v-734l444 -1q39 0 73.5 -15t60.5 -41t41 -60.5t15 -73.5v-153 q0 -39 -15 -73.5t-41 -60.5t-60.5 -41t-73.5 -15q-35 0 -67 12.5t-57.5 34.5t-42 51.5t-21.5 64.5h-255q6 -87 43 -163.5t96.5 -132.5t137.5 -88.5t166 -32.5q91 0 172 35t141.5 95t95.5 140.5t35 172.5v154q0 93 -34.5 174t-94.5 141t-141 94.5t-174 34.5h-163z" />
<glyph unicode="6" horiz-adv-x="1194" d="M597 939q-79 0 -154 -27l-36 25v193q0 38 15 72.5t41 60.5t60.5 41t73.5 15q36 0 67.5 -12.5t56 -34t41.5 -51.5t23 -65h255q-6 87 -43 163.5t-97 133t-138 89t-165 32.5q-91 0 -172 -35t-141.5 -95.5t-95.5 -141.5t-35 -172v-635q0 -92 35 -172.5t95.5 -140.5t141 -95 t172.5 -35q91 0 172 35t141.5 95t95.5 140.5t35 172.5q0 91 -35 172t-95.5 141.5t-141.5 95.5t-172 35zM1053 1587h-260q88 -38 155 -105.5t105 -155.5v261zM401 1587h-261v-261q38 88 105.5 155.5t155.5 105.5zM140 299v-259h259q-88 38 -154.5 104t-104.5 155zM795 40h258 v259q-37 -88 -104 -154.5t-154 -104.5zM1053 691v412h-293l-26 27q0 28 -11 53t-29.5 43.5t-43.5 29t-53 10.5q-29 0 -54 -10.5t-43.5 -29t-29 -43.5t-10.5 -53v-157q33 11 67 15t69 4q76 0 145.5 -21t128.5 -60t106 -94.5t77 -125.5zM127 1614h355q8 0 17.5 3t17.5 4 q20 4 40 5t40 1q39 0 78 -6q8 -1 18 -4t18 -3h356l13 -14v-355q0 -8 3 -18t4 -18q6 -39 6 -79l-13 -13v-507q0 -8 3 -18t4 -18q6 -39 6 -79q0 -20 -1 -40t-5 -40q-1 -8 -4 -17.5t-3 -17.5v-353l-13 -14h-351q-9 0 -20 -2.5t-19 -4.5q-20 -3 -40.5 -5t-39.5 -2q-43 0 -81 7 q-8 2 -19 4.5t-19 2.5h-351l-14 14v353q0 8 -3 19t-4 20q-6 37 -6 76v635q0 38 6 76q1 9 4 20t3 19v355zM597 632q-29 0 -53.5 -11t-43 -30t-29.5 -43.5t-11 -52.5q0 -29 10.5 -53.5t29 -43t43 -29t54.5 -10.5q28 0 52.5 11t43.5 29.5t30 43t11 52.5t-11 52.5t-30 43.5 t-43.5 30t-52.5 11zM597 685q39 0 73.5 -15t60.5 -41t41 -60.5t15 -72.5q0 -39 -15 -73.5t-41 -60.5t-60.5 -41t-73.5 -15t-73.5 15t-60.5 41t-41 60.5t-15 73.5q0 38 15 73t40.5 60.5t60.5 40.5t74 15z" />
<glyph unicode="7" horiz-adv-x="1230" d="M140 1271v-1227h189l329 1227h-518zM714 44h377v1408zM113 1284l-13 13v308l27 26h977l26 -33q0 -2 -2 -9t-4.5 -15t-4 -14.5t-1.5 -7.5v-1521l-14 -13h-404l-17 -14h-330l-10 14h-216l-14 13v1253zM153 1324h540l26 -33l-331 -1233h274l408 1520h-917v-254z" />
<glyph unicode="8" horiz-adv-x="1194" d="M597 1266q-29 0 -54 -10.5t-43.5 -29t-29 -43.5t-10.5 -53q0 -29 10.5 -54t29 -43.5t43.5 -29t54 -10.5q28 0 53 10.5t44 29t29.5 43t10.5 54.5q0 28 -11 53t-29.5 43.5t-43.5 29t-53 10.5zM1054 1591h-272q92 -36 162.5 -105t109.5 -160v265zM412 1591h-272v-265 q38 91 109.5 159.5t162.5 105.5zM140 934v-243q14 33 33 63.5t42 58.5q-24 27 -42.5 57.5t-32.5 63.5zM140 299v-255h249q-85 40 -149 104t-100 151zM805 44h249v255q-36 -85 -100.5 -151t-148.5 -104zM1054 691v244q-14 -33 -32.5 -63.5t-41.5 -58.5q46 -56 74 -122z M127 1618h376q7 0 15 2t15 3q16 2 32 3t32 1q17 0 33 -1t33 -3q7 -1 14.5 -3t14.5 -2h376l13 -13v-360q0 -8 3 -18t4 -18q6 -39 6 -79q0 -20 -1 -40t-5 -40q-1 -8 -4 -17.5t-3 -17.5v-405q0 -8 3 -18t4 -18q6 -39 6 -79q0 -20 -1 -40t-5 -40q-1 -8 -4 -17.5t-3 -17.5v-349 l-13 -13h-335q-8 0 -20.5 -4t-22.5 -6q-45 -9 -93 -9t-94 9q-9 2 -21.5 6t-20.5 4h-334l-14 13v348q0 8 -2.5 18.5t-4.5 18.5q-6 39 -6 79t6 79q2 8 4.5 18.5t2.5 18.5v404q0 8 -3 18.5t-4 19.5q-6 37 -6 77t6 79q2 8 4.5 18.5t2.5 18.5v359zM597 1319q39 0 73.5 -15 t60.5 -41t41 -60.5t15 -72.5q0 -39 -15 -73.5t-41 -60.5t-60.5 -41t-73.5 -15t-73.5 15t-60.5 41t-41 60.5t-15 73.5q0 38 15 73t40.5 60.5t60.5 40.5t74 15zM269 795q-57 -63 -86.5 -139t-29.5 -161q0 -92 35 -172.5t95.5 -140.5t141 -95t172.5 -35q91 0 172 35t141.5 95 t95.5 140.5t35 172.5q0 85 -31 161t-85 139v36q56 63 86 138.5t30 160.5q0 91 -35.5 171.5t-96 141t-141 96t-171.5 35.5t-172 -35t-141.5 -95.5t-95.5 -141.5t-35 -172q0 -85 29.5 -160.5t86.5 -138.5v-36zM597 632q-29 0 -53.5 -11t-43 -30t-29.5 -43.5t-11 -52.5 q0 -29 10.5 -53.5t29 -43t43 -29t54.5 -10.5q28 0 52.5 11t43.5 29.5t30 43t11 52.5t-11 52.5t-30 43.5t-43.5 30t-52.5 11zM597 685q39 0 73.5 -15t60.5 -41t41 -60.5t15 -72.5q0 -39 -15 -73.5t-41 -60.5t-60.5 -41t-73.5 -15t-73.5 15t-60.5 41t-41 60.5t-15 73.5 q0 38 15 73t40.5 60.5t60.5 40.5t74 15z" />
<glyph unicode="9" horiz-adv-x="1194" d="M787 689v-194q0 -39 -15 -73.5t-41 -60.5t-60.5 -41t-72.5 -15q-35 0 -67 12.5t-57.5 34.5t-42 52t-21.5 65h-255q6 -87 43 -163.5t96.5 -132.5t137.5 -88.5t166 -32.5q91 0 171.5 35t141 95t95.5 140.5t35 172.5v635q0 91 -35.5 171.5t-96 141t-141 96t-171.5 35.5 t-172 -35t-141.5 -95.5t-95.5 -141.5t-35 -172q0 -92 35 -172.5t95.5 -141t141 -95.5t172.5 -35q38 0 78 7.5t76 20.5zM140 39h261q-89 38 -156 104.5t-105 155.5v-260zM793 39h261v260q-38 -88 -105.5 -155t-155.5 -105zM1054 1326v259h-259q88 -38 154.5 -105t104.5 -154z M399 1585h-259v-259q37 88 104 154.5t155 104.5zM140 934v-412h294l27 -27q0 -29 10.5 -54t29 -43.5t43 -29t53.5 -10.5q28 0 52.5 11t43.5 29.5t30 43t11 52.5v158q-33 -11 -67.5 -15t-69.5 -4q-75 0 -144.5 21t-129.5 60t-107 95t-76 125zM1068 12h-356q-8 0 -19 -3 t-20 -4q-38 -6 -76 -6q-39 0 -76 6q-9 1 -20 4t-19 3h-355l-14 14v354q0 8 -3 19t-4 20q-6 37 -6 76l13 14v506q0 8 -3 19t-4 20q-6 37 -6 76q0 38 6 76q1 9 4 20t3 19v354l14 14l351 -1q8 0 19 3t19 5q38 7 81 7q20 0 40.5 -2t40.5 -5q8 -2 19 -4.5t20 -2.5l351 -1l13 -14 v-354q0 -8 3 -18t4 -18q6 -39 6 -79v-634q0 -20 -1 -40t-5 -40q-1 -8 -4 -17.5t-3 -17.5v-354zM597 993q28 0 53 10.5t44 29t29.5 43t10.5 54.5q0 28 -11 53t-29.5 43.5t-43.5 29t-53 10.5t-53 -10.5t-43.5 -29t-29 -43.5t-10.5 -53q0 -29 10.5 -54t29 -43.5t43.5 -29 t53 -10.5zM598 940q-39 0 -73.5 15t-60.5 41t-41 60.5t-15 73.5q0 38 15 72.5t41 60.5t60.5 41t73.5 15q38 0 72.5 -15t60.5 -41t41 -60.5t15 -72.5q0 -39 -15 -74t-40.5 -60.5t-60.5 -40.5t-73 -15z" />
<glyph unicode=":" horiz-adv-x="562" d="M113 692q-13 32 -13 68q0 37 13 69v771l14 14h306l14 -14v-766q7 -18 11 -36.5t4 -37.5t-4 -37.5t-11 -35.5v-434q7 -17 11 -35.5t4 -37.5t-4 -37.5t-11 -35.5v-80l-14 -14h-84q-32 -13 -68 -13t-68 13h-86l-14 14v85q-13 32 -13 68t13 68v444zM140 874q24 34 62 50.5 t79 16.5q43 0 77 -16.5t62 -48.5v711h-280v-713zM281 579q-41 0 -79.5 16.5t-61.5 51.5v-353q24 33 62.5 50t78.5 17q82 0 139 -65v348q-26 -31 -62.5 -48t-76.5 -17zM281 632q26 0 49 10t40.5 27.5t28 40.5t10.5 50q0 26 -10 49.5t-27.5 41t-41 27.5t-49.5 10t-49.5 -10 t-41 -27.5t-27.5 -41t-10 -49.5q0 -27 10 -50.5t27.5 -40.5t41 -27t49.5 -10zM281 53q26 0 49 10t40.5 27.5t28 40.5t10.5 49t-10.5 49t-28 40.5t-40.5 28t-49 10.5t-49.5 -10t-41 -27.5t-27.5 -41t-10 -49.5t10 -49.5t27.5 -40.5t41 -27t49.5 -10zM168 40l1 -1q-8 6 -15 13 q-8 8 -14 16v-28h28zM395 40h25v25q-12 -13 -25 -25z" />
<glyph unicode=";" horiz-adv-x="562" d="M447 474l11 -17q0 -1 -2 -6t-4 -11t-4 -11l-1 -5v-397l-14 -14h-134l-19 -13h-153l-27 27v439l13 13v213q-13 32 -13 68q0 37 13 69v771l14 14h306l14 -14v-766q7 -18 11 -36.5t4 -37.5t-4 -37.5t-11 -35.5v-213zM140 874q24 34 62 50.5t79 16.5q43 0 77 -16.5t62 -48.5 v711h-280v-713zM396 439h-243v-386h108zM281 632q26 0 49 10t40.5 27.5t28 40.5t10.5 50q0 26 -10 49.5t-27.5 41t-41 27.5t-49.5 10t-49.5 -10t-41 -27.5t-27.5 -41t-10 -49.5q0 -27 10 -50.5t27.5 -40.5t41 -27t49.5 -10zM140 492h280v152q-26 -31 -62.5 -48t-76.5 -17 q-41 0 -79.5 16.5t-61.5 51.5v-155zM420 347l-107 -307h107v307z" />
<glyph unicode="&#x3c;" horiz-adv-x="965" d="M100 629l14 19v952l13 14h712l13 -14v-678l13 -9v-315l-13 -20v-218l13 -19v-314l-36 -25l-29 11h-673l-13 14v263l-14 20v319zM140 663l685 273v651h-685v-924zM825 564l-237 -95l237 -94v189zM734 40l-594 236v-236h594zM154 611v-284l658 -261v257l-305 121v50 l305 122v257z" />
<glyph unicode="=" horiz-adv-x="741" d="M140 40h461v330h-461v-330zM140 631h461v101h-461v-101zM113 1600l27 14h474l13 -14v-619l14 -13v-209l-14 -14v-127l14 -13v-208l-14 -14v-356l-13 -14h-487l-14 14v356l-13 14v208l13 13v127l-13 14v209l13 13v619zM601 1587h-461v-593h461v593zM153 785h434v156h-434 v-156zM153 423h434v155h-434v-155z" />
<glyph unicode="&#x3e;" horiz-adv-x="965" d="M153 873v-257l305 -122v-50l-305 -121v-257l658 261v284zM825 40v236l-594 -236h594zM140 375l237 94l-237 95v-189zM825 1587h-685v-651l685 -273v924zM865 310l-14 -20v-263l-13 -14h-673l-29 -11l-36 25v314l13 19v218l-13 20v315l13 9v678l13 14h712l13 -14v-952 l14 -19v-319z" />
<glyph unicode="?" horiz-adv-x="1194" d="M666 13q-32 -13 -67 -13q-36 0 -68 13h-404l-14 14v1090l-13 13q0 19 1.5 38t3.5 38q2 8 5 19t3 19v356l14 14h355q8 0 16.5 2.5t16.5 3.5q38 7 81 7q37 0 76 -6q8 -2 19 -4.5t19 -2.5h357l13 -14v-356q0 -8 2.5 -17t3.5 -17q3 -20 5 -39.5t2 -39.5q0 -38 -6 -77 q-2 -8 -4.5 -19t-2.5 -19v-989l-13 -14h-401zM712 40h341v895q-34 -80 -83.5 -134.5t-122.5 -100.5q-28 -17 -45 -41t-22 -57l-27 -23h-308l-27 28q8 128 72 233t175 170v2q32 19 50.5 50t18.5 69q0 18 -5 34.5t-13 32.5h-1q-19 33 -50.5 50.5t-69.5 17.5q-27 0 -51.5 -11 t-43 -29.5t-29.5 -43.5t-11 -52l-26 -27h-294v-1063h346q-34 23 -51 60q-17 38 -17 80q0 37 14.5 70t39 57.5t57.5 39t70 14.5t70 -14.5t57.5 -39t39 -57.5t14.5 -70q0 -45 -17 -78t-51 -62zM596 1319q39 0 73.5 -15t60.5 -40.5t41.5 -60t15.5 -73.5q0 -53 -24.5 -95.5 t-69.5 -69.5v-1q-45 -26 -82.5 -61.5t-66 -78.5t-46.5 -92t-24 -100h258q23 72 87 112v1q52 30 93.5 71.5t70.5 91.5t44 106.5t15 117.5q0 91 -36.5 171.5t-98 140.5t-143 95t-171.5 35q-58 0 -113 -16t-105 -45h-1q-48 -28 -87 -66.5t-67.5 -84.5t-45.5 -98.5t-20 -107.5 h255q6 34 22.5 64t41 52t56 34.5t67.5 12.5zM599 53q26 0 49 10t40.5 27.5t28 40.5t10.5 49t-10.5 49t-28 40.5t-40.5 28t-49 10.5t-49.5 -10t-41 -27.5t-27.5 -41t-10 -49.5t10 -49.5t27.5 -40.5t41 -27t49.5 -10zM402 1587h-262v-262q39 93 105 156.5t157 105.5z M1053 1587h-261q182 -79 261 -262v262z" />
<glyph unicode="@" horiz-adv-x="1194" d="M597 -1q-43 0 -81 7q-8 2 -19 4.5t-19 2.5h-351l-14 14v354q0 8 -3 19t-4 20q-6 37 -6 76q0 38 6 76q1 9 4 20t3 19v506l-13 14q0 38 6 76q1 9 4 20t3 19v354l14 14h355q8 0 19 3t20 4q37 6 76 6q37 0 75 -6q9 -1 20 -4t19 -3h356l13 -14v-354q0 -8 3 -17.5t4 -17.5 q4 -20 5 -40t1 -40l-1 -1105l-27 -27h-468zM1039 52l2 1079q0 91 -35.5 171.5t-96.5 141t-141.5 95.5t-171.5 35q-88 0 -166 -32.5t-137.5 -88.5t-96.5 -132.5t-43 -163.5h255q5 35 21.5 64.5t42 51.5t57.5 34.5t67 12.5q39 0 73.5 -15t60.5 -41t41 -60.5t15 -72.5v-194 q-10 -5 -18.5 -11.5t-17.5 -13.5q-35 13 -75.5 20.5t-78.5 7.5q-92 0 -172.5 -35t-141 -95.5t-95.5 -141.5t-35 -172t35 -172t95.5 -141.5t141.5 -95.5t172 -35h443zM140 692q29 69 76 125t107 95t129.5 60t144.5 21q35 0 69.5 -4t67.5 -15v157q0 28 -11 52.5t-30 43 t-43.5 29.5t-52.5 11q-29 0 -53.5 -10.5t-43 -29t-29 -43.5t-10.5 -53l-27 -27h-294v-412zM408 496q0 38 15 72.5t41 60.5t60 41t73 15t73 -15t60 -41t41 -60.5t15 -72.5q0 -41 0.5 -81t0.5 -81l-27 -28h-163q-39 0 -73.5 15t-60 40.5t-40.5 60.5t-15 74zM597 359h137v138 q0 28 -11 52.5t-30 43t-44 29t-52 10.5q-28 0 -53 -10.5t-43.5 -29t-29 -43.5t-10.5 -53q0 -29 10.5 -54t29 -43.5t43.5 -29t53 -10.5zM792 1587q88 -38 156 -105t106 -155v260h-262zM140 1327q38 89 105 155.5t156 104.5h-261v-260zM399 40q-88 38 -155 105t-104 155v-260 h259z" />
<glyph unicode="A" horiz-adv-x="1824" d="M125 1614h608l19 13h320l19 -13h608l14 -14v-1535l11 -28l-25 -37h-315l-19 13h-906l-19 -13h-315l-25 37l11 28v1535zM1105 1587l581 -1456v1456h-581zM1350 40l-114 287h-648l-115 -287h877zM138 131l580 1456h-580v-1456zM1054 1574h-284l-606 -1521h258l123 310 l25 17h684l24 -17l124 -310h258zM912 1139l-203 -510h406zM937 1221l242 -608l-25 -37h-484l-25 37l242 608h50z" />
<glyph unicode="B" horiz-adv-x="1231" d="M634 993q28 0 53 10.5t43.5 29t29 43t10.5 54.5q0 28 -10.5 53t-29 43.5t-43.5 29t-53 10.5h-185v-273h185zM1104 1614l14 -14v-355q0 -8 3 -18t4 -18q6 -39 6 -79q0 -20 -1 -40t-5 -40q-1 -8 -4 -17.5t-3 -17.5v-405q0 -8 3 -18t4 -18q6 -39 6 -79q0 -20 -1 -40t-5 -40 q-1 -8 -4 -17.5t-3 -17.5v-353l-14 -14h-350q-8 0 -17.5 -2.5t-17.5 -4.5q-21 -3 -42.5 -5t-42.5 -2h-17q-123 0 -245 0.5t-245 0.5l-27 27v1573l27 27h507q40 0 79 -6q8 -1 18 -4t18 -3h355zM633 940h-210l-27 27v325l27 27h210q39 0 73.5 -15t60.5 -41t41 -60.5t15 -72.5 q0 -39 -15 -74t-40.5 -60.5t-60.5 -40.5t-74 -15zM634 52q91 0 172 35t141.5 95t95.5 140.5t35 172.5q0 85 -31 160.5t-85 139.5v36q56 63 86 138.5t30 160.5q0 91 -35.5 171.5t-96 141t-141 96t-171.5 35.5h-481v-1521q121 0 240.5 -0.5t240.5 -0.5zM830 1587 q88 -38 155.5 -105.5t105.5 -155.5v261h-261zM1091 935q-27 -68 -75 -122q23 -28 42 -58.5t33 -63.5v244zM1091 299q-38 -89 -104 -155t-155 -104h259v259zM634 632h-185v-271q47 0 93 -0.5t93 -0.5q28 0 52.5 10.5t43 29t29 43.5t10.5 53q0 27 -10.5 52t-29 43.5 t-43.5 29.5t-53 11zM634 685q39 0 73 -15t60 -41t41 -60.5t15 -73.5t-15 -73.5t-41 -60.5t-60.5 -41t-73.5 -15l-1 2h-209l-27 26v326l27 27h210z" />
<glyph unicode="C" horiz-adv-x="1596" d="M127 1614h639q10 0 22 2.5t22 4.5q52 6 104 6q50 0 101 -6q11 -1 23 -4t23 -3h410l13 -14v-206l12 -12v-38l-12 -12v-1051l5 -6v-37l-5 -6v-205l-13 -14h-410q-12 0 -25.5 -3t-25.5 -4q-48 -6 -96 -6q-51 0 -100 6q-11 2 -24 4.5t-24 2.5h-639l-14 14v639q0 11 -3 23.5 t-4 23.5q-6 49 -6 100q0 53 6 104q2 11 4.5 22.5t2.5 21.5v639zM1166 1587q81 -27 154 -69.5t137 -98.5v168h-291zM1456 1305l-180 -174h-37q-66 66 -149 101.5t-177 35.5q-93 0 -176 -36t-145 -98t-98 -145t-36 -176q0 -94 36 -176.5t98 -144.5t144.5 -98t176.5 -36 q91 0 174 34t148 99h37l184 -184v998zM1457 207q-63 -57 -136 -98.5t-154 -68.5h290v167zM661 40q-92 30 -173.5 80.5t-149 117.5t-118 148.5t-80.5 173.5v-520h521zM140 1066q29 91 80 172.5t119 149t149.5 118.5t172.5 81h-521v-521zM914 1574q-105 0 -202 -27t-182 -77 t-154 -119t-119 -154t-77 -182t-27 -202q0 -106 27 -203t76.5 -181.5t119 -153.5t154 -118.5t182 -76.5t202.5 -27q300 0 519 204l-179 178q-69 -63 -157.5 -96.5t-182.5 -33.5q-104 0 -196.5 40t-162 109t-110 161.5t-40.5 197.5q0 104 40.5 196.5t109.5 161.5t161.5 109.5 t197.5 40.5q97 0 185.5 -35t159.5 -100l180 176q-109 104 -242 158t-283 54z" />
<glyph unicode="D" horiz-adv-x="1510" d="M1383 1614l14 -14v-639q0 -11 2.5 -24t4.5 -24q6 -50 6 -100q0 -48 -6 -96q-1 -12 -4 -25.5t-3 -25.5v-639l-14 -14h-639q-11 0 -24 -2.5t-24 -4.5q-50 -6 -100 -6h-469l-27 27v1573l27 27h469q53 0 104 -6q11 -2 22.5 -4.5t21.5 -2.5h639zM849 1587q91 -30 172.5 -81 t149 -118.5t118.5 -149t81 -172.5v521h-521zM1370 560q-30 -92 -81 -173.5t-118 -148.5t-149 -117.5t-173 -80.5h521v520zM596 1574h-443v-1521h443q105 0 202 27t182 76.5t154 119t119 154t77 181.5t27 202q0 104 -27.5 201.5t-77 182t-119 154t-154 119t-181.5 77 t-202 27.5zM472 358h124q93 0 176 36t145 98t98 145t36 176t-36 176t-98 145t-145 98t-176 36h-124v-910zM596 305h-124l-53 26v963l26 27h151q104 0 196.5 -40.5t161.5 -110t109.5 -162t40.5 -195.5q0 -104 -40.5 -196.5t-109.5 -161.5t-161.5 -109.5t-196.5 -40.5z" />
<glyph unicode="E" horiz-adv-x="1231" d="M153 1574v-1521h925v254h-655l-27 26v326l27 27h420v254h-420l-27 27v325l27 27h655v255h-925zM1118 1280v-933l13 -14v-306l-27 -27h-977l-27 27v1573l27 27h977l27 -27v-307zM1091 1266h-642v-273h420l27 -27v-307l-27 -26h-420v-273h642v906z" />
<glyph unicode="F" horiz-adv-x="1231" d="M153 1578v-1521h243v606l27 27h376v255h-376l-27 26v326l27 27h655v254h-925zM1118 1284v-1253l-14 -13h-668l-13 -14h-296l-27 27v1574l27 26h977l27 -26v-308zM1091 1271h-642v-273h377l26 -27v-307l-26 -27h-377v-593h642v1227z" />
<glyph unicode="G" d="M127 1614h639q10 0 22 2.5t22 4.5q52 6 104 6q51 0 104 -6q10 -2 21.5 -4.5t21.5 -2.5h640l14 -14v-645l13 -13v-135q0 -24 -1.5 -48t-5.5 -48q-1 -11 -3.5 -22t-2.5 -22v-640l-14 -14h-640q-11 0 -24 -2.5t-24 -4.5q-50 -6 -99 -6q-51 0 -100 6q-11 2 -24 4.5t-24 2.5 h-639l-14 14v639q0 10 -2.5 22t-4.5 22q-6 51 -6 103q0 53 6 104q2 11 4.5 22.5t2.5 21.5v639zM1166 1587q91 -31 173 -80.5t150 -117.5v-38l-216 -216h-37q-65 65 -148 99t-174 34q-93 0 -176.5 -36t-145.5 -98t-98 -145t-36 -176q0 -94 36 -176.5t98 -144.5t144.5 -98 t177.5 -36q70 0 135 21t120.5 59t99 91t69.5 118h-514l-26 27v268l26 26h864v619h-522zM1688 561q-29 -92 -80 -173.5t-118.5 -149t-150 -118t-173.5 -80.5h522v521zM661 40q-92 30 -173.5 80.5t-149 117.5t-118 148.5t-80.5 173.5v-520h521zM140 1066q29 91 80 172.5 t119 149t149.5 118.5t172.5 81h-521v-521zM914 1574q-105 0 -202 -27t-182 -77t-154 -119t-119 -154t-77 -182t-27 -202q0 -106 27 -203t76.5 -181.5t119 -153.5t154 -118.5t182 -76.5t202.5 -27q104 0 200.5 27t181 76t154.5 118t120 153t77.5 180.5t27.5 200.5v107h-824 v-215h524l26 -34q-24 -80 -72 -146.5t-112.5 -114t-142 -74t-160.5 -26.5q-104 0 -196.5 40t-162 109t-110 161.5t-40.5 197.5q0 104 40.5 196.5t109.5 161.5t161.5 109.5t197.5 40.5q94 0 181.5 -34t158.5 -97l179 179q-106 100 -240 152.5t-279 52.5z" />
<glyph unicode="H" horiz-adv-x="1510" d="M1357 1574h-243v-607l-27 -27h-664l-27 27v607h-243v-1521h243v606l27 27h664l27 -27v-606h243v1521zM436 1614h638l13 13h296l27 -27v-1573l-27 -27h-296l-13 13h-638l-13 -13h-296l-27 27v1573l27 27h296zM1061 40v593h-612v-593h612zM449 1586v-593h612v593h-612z" />
<glyph unicode="I" horiz-adv-x="549" d="M396 1578h-243v-1521h243v1521zM127 1631h293l29 -26v-1574l-26 -27h-296l-27 27v1574z" />
<glyph unicode="J" horiz-adv-x="1091" d="M121 1614h523l13 13h307l27 -27v-1105q0 -39 -6 -76q-1 -9 -4 -20t-3 -19v-353l-14 -14h-351q-8 0 -19 -2.5t-19 -4.5q-20 -3 -40.5 -5t-40.5 -2q-43 0 -81 7q-8 2 -19 4.5t-19 2.5h-254l-13 14v155l-8 10l5 37l3 2v1369zM134 252l214 165l38 -5q17 -26 47.5 -39.5 t60.5 -13.5q28 0 53 10.5t43.5 29t29 43.5t10.5 53v1092h-496v-1335zM938 1575h-255v-1079q0 -39 -15 -73.5t-41 -60.5t-60.5 -41t-73.5 -15q-78 0 -133 55l-202 -156q63 -73 151 -112.5t184 -39.5q91 0 172 35t142 95t96 140.5t35 172.5v1079zM951 299q-38 -88 -105 -154 t-155 -105h260v259zM201 92q-35 27 -67 60v-112h141q-38 25 -74 52z" />
<glyph unicode="K" horiz-adv-x="1334" d="M436 1618h400l1 2l22 11h353l22 -41l-9 -13v-1518l9 -13l-22 -42h-353l-22 12l-1 2h-400l-13 -14h-296l-27 27v1574l27 26h296zM449 1591v-531l368 531h-368zM1198 1539l-499 -721l499 -722v1443zM817 44l-368 531v-531h368zM153 1578v-1534h243v616l48 15l429 -617h288 l-517 745v30l517 745h-288l-429 -618l-48 15v603h-243z" />
<glyph unicode="L" horiz-adv-x="1231" d="M1091 364v1227h-642v-1227h642zM100 31v1574l27 26h296l13 -13h668l14 -13v-1254l13 -13v-307l-27 -27h-977zM153 1578v-1521h925v254h-655l-27 27v1240h-243z" />
<glyph unicode="M" d="M772 53h284l353 889v-889h266v1521h-271l-465 -1168h-50l-465 1168h-271v-1521h266v889zM459 1614h910l14 13h318l27 -27v-1573l-27 -27h-318l-14 13h-276l-20 -13h-319l-19 13h-276l-14 -13h-318l-27 27v1573l27 27h318zM720 40l-246 622v-622h246zM476 1587l438 -1100 l438 1100h-876zM1356 40v622l-249 -622h249z" />
<glyph unicode="N" horiz-adv-x="1652" d="M468 1614h725l14 13h319l26 -27v-1573l-26 -27h-319l-23 13h-725l-14 -13h-318l-27 27v1573l27 27h318l22 -11zM1165 40l-698 978v-978h698zM487 1587l693 -981v981h-693zM1499 1574h-266v-1052l-48 -15l-753 1067h-279v-1521h266v1049l48 15l753 -1064h279v1521z" />
<glyph unicode="O" d="M127 1614h639q10 0 22 2.5t22 4.5q52 6 104 6q50 0 101 -6q11 -1 23 -4t23 -3h640l14 -14v-639q0 -11 2.5 -24t4.5 -24q6 -50 6 -100q0 -48 -6 -96q-1 -12 -4 -25.5t-3 -25.5v-639l-14 -14h-640q-12 0 -25.5 -3t-25.5 -4q-48 -6 -96 -6q-51 0 -100 6q-11 2 -24 4.5 t-24 2.5h-639l-14 14v639q0 11 -3 23.5t-4 23.5q-6 49 -6 100q0 53 6 104q2 11 4.5 22.5t2.5 21.5v639zM1167 1587q91 -30 172.5 -81t149 -118.5t118.5 -149t81 -172.5v521h-521zM1688 560q-30 -92 -81 -173t-118 -148.5t-149 -118t-173 -80.5h521v520zM661 40 q-92 30 -173.5 80.5t-149 117.5t-118 148.5t-80.5 173.5v-520h521zM140 1066q29 91 80 172.5t119 149t149.5 118.5t172.5 81h-521v-521zM914 1574q-105 0 -202 -27t-182 -77t-154 -119t-119 -154t-77 -182t-27 -202q0 -106 27 -203t76.5 -181.5t119 -153.5t154 -118.5 t182 -76.5t202.5 -27t202 27t182 76.5t154 119t119 154t77 181.5t27 202q0 104 -27.5 201.5t-77 182t-119 154t-154 119t-182 77t-201.5 27.5zM914 1321q104 0 196.5 -40.5t161.5 -110t109.5 -162t40.5 -195.5q0 -104 -40.5 -196.5t-109.5 -161.5t-161.5 -109.5 t-196.5 -40.5t-196.5 40t-162 109t-110 161.5t-40.5 197.5q0 104 40.5 196.5t109.5 161.5t161.5 109.5t197.5 40.5zM914 1268q-94 0 -177 -36t-145 -98t-98 -145t-36 -176q0 -94 36 -176.5t98 -144.5t144.5 -98t177.5 -36q93 0 176 36t145 98t98 145t36 176q0 95 -35.5 178 t-97 144.5t-144.5 97t-178 35.5z" />
<glyph unicode="P" horiz-adv-x="1296" d="M1143 1053q0 106 -41.5 201t-112.5 166t-166 112.5t-201 41.5h-469v-1522h243v453l27 27h199q107 0 201.5 41t165.5 111.5t112.5 165.5t41.5 203zM1169 1614l14 -14v-423q0 -9 2.5 -20t4.5 -20q6 -42 6 -84t-6 -82q-1 -9 -4 -20.5t-3 -20.5v-903l-14 -14h-733l-13 -13 h-296l-27 27v1573l27 27h495q43 0 85 -6q8 -1 19 -4t19 -3h424zM449 479v-439h707v802q-22 -55 -54 -104t-74 -91q-168 -168 -406 -168h-173zM833 1587q111 -45 194.5 -128.5t128.5 -194.5v323h-323zM622 1319q54 0 102.5 -21.5t85 -58t58 -85t21.5 -101.5q0 -55 -21 -103.5 t-57.5 -84.5t-85 -57t-103.5 -21h-199l-27 26v479l27 27h199zM622 1266h-173v-426h173q44 0 82.5 17t67.5 46t46 67.5t17 82.5q0 45 -16.5 83.5t-45.5 67.5t-67.5 45.5t-83.5 16.5z" />
<glyph unicode="Q" d="M127 1614h639q10 0 22 2.5t22 4.5q52 6 104 6q50 0 101 -6q11 -1 23 -4t23 -3h640l14 -14v-639q0 -11 2.5 -24t4.5 -24q6 -50 6 -100q0 -48 -6 -96q-1 -12 -4 -25.5t-3 -25.5v-426l5 -6v-38l-5 -5v-164l-14 -14h-165l-5 -5h-38l-6 5h-426q-12 0 -25.5 -3t-25.5 -4 q-48 -6 -96 -6q-51 0 -100 6q-11 2 -24 4.5t-24 2.5h-639l-14 14v639q0 11 -3 23.5t-4 23.5q-6 49 -6 100q0 53 6 104q2 11 4.5 22.5t2.5 21.5v639zM1167 1587q91 -30 172.5 -81t149 -118.5t118.5 -149t81 -172.5v521h-521zM1688 561q-17 -53 -41 -102.5t-55 -95.5l96 -97 v295zM1688 164l-125 -124h125v124zM1461 40l-97 95q-47 -29 -96 -53.5t-101 -41.5h294zM661 40q-92 30 -173.5 80.5t-149 117.5t-118 148.5t-80.5 173.5v-520h521zM140 1066q29 91 80 172.5t119 149t149.5 118.5t172.5 81h-521v-521zM914 1574q-105 0 -202 -27t-182 -77 t-154 -119t-119 -154t-77 -182t-27 -202q0 -106 27 -203t76.5 -181.5t119 -153.5t154 -118.5t182 -76.5t202.5 -27q118 0 230 35t208 104l35 -3l125 -125l152 151l-126 125l-2 35q68 96 103.5 208.5t35.5 229.5q0 104 -27.5 201.5t-77 182t-119 154t-154 119t-182 77 t-201.5 27.5zM1104 850l225 -224q18 42 29 92t11 95q0 93 -36 176t-98 145t-145 98t-176 36q-94 0 -177 -36t-145 -98t-98 -145t-36 -176q0 -94 36 -176.5t98 -144.5t145 -98t177 -36q48 0 95 10t92 30l-224 225v38l190 189h37zM1317 562l-232 232l-151 -152l231 -232 l-6 -42q-56 -32 -118.5 -47.5t-126.5 -15.5q-104 0 -196.5 40t-162 109t-110 161.5t-40.5 197.5q0 104 40.5 196.5t109.5 161.5t161.5 109.5t197.5 40.5q104 0 196.5 -40.5t161.5 -110t109.5 -162t40.5 -195.5q0 -130 -63 -245z" />
<glyph unicode="R" horiz-adv-x="1383" d="M827 545q87 20 161 68.5t128 116t84 150t30 173.5q0 106 -41.5 201t-112.5 166t-166 112.5t-201 41.5h-556v-1522h243v453l27 27h38l21 -10l403 -470h313l-386 450zM1256 1614l14 -14v-423q0 -9 2.5 -20t4.5 -20q6 -42 6 -84t-6 -82q-1 -9 -4 -20.5t-3 -20.5v-878l7 -8 q-4 -11 -9.5 -22t-11.5 -22h-383l-24 13h-413l-13 -13h-296l-27 27v1573l27 27h582q43 0 85 -6q8 -1 19 -4t19 -3h424zM880 505l363 -422v759q-50 -124 -142.5 -211t-220.5 -126zM827 40l-378 439v-439h378zM920 1587q111 -45 194.5 -128.5t128.5 -194.5v323h-323zM709 1319 q54 0 102.5 -21.5t85 -58t58 -85t21.5 -101.5q0 -55 -21 -103.5t-57.5 -84.5t-85 -57t-103.5 -21h-286l-27 26v479l27 27h286zM709 1266h-260v-426h260q44 0 82.5 17t67.5 46t46 67.5t17 82.5q0 45 -16.5 83.5t-45.5 67.5t-67.5 45.5t-83.5 16.5z" />
<glyph unicode="S" horiz-adv-x="1205" d="M603 1626q39 0 78 -6q9 -2 19.5 -4.5t18.5 -2.5h359l14 -14v-356q0 -8 2 -18l5 -18q6 -39 6 -77l-13 -13v-506q0 -8 2 -18l5 -18q6 -39 6 -78q0 -40 -6 -79q-2 -8 -4.5 -17.5t-2.5 -17.5v-357l-14 -14h-370q-7 0 -15 -2t-15 -3q-38 -6 -75 -6q-38 0 -77 6q-7 1 -14.5 3 t-14.5 2h-370l-14 14v357q0 7 -2.5 16t-4.5 17q-6 40 -6 81l13 14v504q0 7 -2.5 16t-4.5 17q-6 40 -6 81q0 40 6 81q2 8 4.5 17t2.5 16v356l14 14h360q8 0 18 2l18 5q40 6 80 6zM603 1573q-92 0 -173.5 -35t-143 -95t-97.5 -141t-36 -173q0 -91 35.5 -171t96 -140t141 -95.5 t170.5 -36.5l1 1q39 0 73.5 -15t60.5 -40.5t41 -60t15 -73.5t-15 -73.5t-41 -60.5t-60.5 -41t-73.5 -15q-35 0 -67 12.5t-57.5 34t-42.5 51.5t-21 65h-255q5 -89 42.5 -165t98.5 -132t140.5 -87.5t167.5 -31.5q91 0 173 34.5t143 94.5t97 140.5t36 172.5t-36.5 173.5 t-98.5 141.5t-144 94.5t-174 33.5q-40 0 -74 14q-35 15 -61.5 40.5t-41.5 60.5t-15 75q0 38 15 72.5t41 60.5t60.5 41t73.5 15q36 0 67.5 -12.5t56.5 -34t41.5 -51.5t22.5 -65h266q-6 89 -43.5 165.5t-98 132.5t-139.5 87.5t-167 31.5zM1065 690v413h-305l-26 27 q0 28 -11 53t-29.5 43.5t-43.5 29t-53 10.5q-29 0 -54 -10.5t-43.5 -29t-29 -43.5t-10.5 -53q0 -29 10.5 -54t29 -43.5t43.5 -29t53 -10.5l2 -1q1 1 4 1q76 0 146.5 -21.5t130.5 -61t107.5 -95.5t78.5 -125zM140 935v-411h293l27 -26q0 -29 10.5 -53.5t28.5 -43.5t43 -29.5 t55 -10.5q28 0 53 11t43.5 29.5t29.5 43.5t11 53t-11 52.5t-29.5 43t-43.5 29.5t-52 11l-1 -1q-75 0 -144.5 21.5t-129.5 61t-107 95t-76 124.5zM795 39h270v264q-38 -91 -108.5 -159t-161.5 -105zM140 39h270q-91 37 -161.5 105t-108.5 159v-264zM1065 1324v262h-265 q89 -38 158 -105.5t107 -156.5zM405 1586h-265v-262q38 88 107 156.5t158 105.5z" />
<glyph unicode="T" horiz-adv-x="1510" d="M1397 1280v-1253l-14 -14h-467l-13 -13h-296l-13 13h-467l-14 14v1253l-13 13v307l27 27h1256l27 -27v-307zM1370 1266h-441v-1226h441v1226zM580 40v1226h-440v-1226h440zM152 1574v-254h454l27 -27v-1240h243v1240l27 27h454v254h-1205z" />
<glyph unicode="U" horiz-adv-x="1510" d="M436 1614h637l13 13h296l27 -27v-962q0 -20 -2.5 -41t-5.5 -41q-1 -8 -3 -17t-2 -17v-495l-14 -14h-493q-10 0 -22 -3t-23 -5q-23 -3 -45 -4t-44 -1q-23 0 -45.5 1t-45.5 4q-11 2 -22.5 5t-21.5 3h-493l-14 14v495q0 8 -2 16.5t-3 16.5q-3 20 -5.5 41.5t-2.5 41.5v962 l27 27h296zM1370 428q-24 -67 -62.5 -127t-88 -110t-110 -88.5t-127.5 -62.5h388v388zM527 40q-67 24 -127 62.5t-109.5 88.5t-88 110t-62.5 127v-388h387zM449 1587v-949q0 -60 26.5 -112.5t69.5 -92.5t98 -63t112 -23t112 23t98 63t69.5 92.5t26.5 112.5v949h-612z M1357 1574h-243v-937q0 -17 -4.5 -40.5t-8.5 -39.5q-17 -58 -50.5 -106t-79 -83t-101 -54.5t-115.5 -19.5q-69 0 -133.5 27t-114.5 73.5t-80.5 109t-30.5 133.5v937h-243v-935q0 -48 10 -97t27 -94q33 -89 89.5 -162t130.5 -124.5t162 -80t183 -28.5q121 0 230 45.5 t191.5 125t131 186t48.5 229.5z" />
<glyph unicode="V" horiz-adv-x="1824" d="M770 53h284l606 1521h-258l-465 -1168h-50l-465 1168h-258zM459 1614h906l19 13h315l25 -36l-11 -29v-1535l-14 -14h-608l-19 -13h-320l-19 13h-608l-14 14v1535l-11 29l25 36h315zM718 40l-580 1455v-1455h580zM473 1587l439 -1100l438 1100h-877zM1686 1495l-581 -1455 h581v1455z" />
<glyph unicode="W" horiz-adv-x="2324" d="M467 1614h515l18 13h324l18 -13h515l17 13h325l25 -34q-1 -3 -5 -17.5t-8.5 -31t-8.5 -30.5l-3 -13v-1474l-14 -14h-406l-18 -13h-324l-17 13h-516l-17 -13h-324l-18 13h-419l-14 14v1522l-2 6q-1 7 -3.5 15t-4.5 14.5t-2 8.5l26 34h324zM2164 1574h-269l-270 -971h-51 l-270 971h-284l-269 -971h-52l-269 971h-269l422 -1521h284l269 971h52l269 -971h284zM532 40l-393 1413v-1413h393zM2172 1405l-379 -1365h379v1365zM481 1587l244 -878l244 878h-488zM1355 1587l244 -878l244 878h-488zM1406 40l-244 877l-244 -877h488z" />
<glyph unicode="X" horiz-adv-x="1466" d="M1298 53l-419 747v26l419 748h-278l-264 -471h-46l-263 471h-279l419 -748v-26l-419 -747h279l263 470h46l264 -470h278zM485 1614h497l22 13h339l23 -40l-10 -17v-1513l10 -17l-23 -40h-339l-22 13h-497l-23 -13h-339l-23 40l10 17v1513l-10 17l23 40h339zM966 1587 h-466l233 -416zM136 1522v-1418l397 709zM500 40h466l-233 416zM1330 104v1418l-397 -709z" />
<glyph unicode="Y" horiz-adv-x="1449" d="M899 481v-441h412v1457zM886 13l-14 -13h-295l-14 13h-438l-14 14v1536l-11 28l25 36h338l20 -13h483l20 13h338l25 -36l-11 -28v-1536l-14 -14h-438zM550 40v441l-412 1016v-1457h412zM497 1587l228 -561l227 561h-455zM846 53v433l2 10l437 1078h-281l-255 -628h-49 l-255 628h-281l437 -1078l-5 -2l7 -8v-433h243z" />
<glyph unicode="Z" horiz-adv-x="1478" d="M1364 1570v-1212l14 -14v-317l-27 -27h-1224l-23 40l9 17v1211l-13 14v318l27 27h1224l23 -40zM1338 1523l-658 -1152h658v1152zM140 103l658 1152h-658v-1152zM1305 1574h-1165v-266h704l23 -39l-695 -1216h1152v265h-690l-23 40z" />
<glyph unicode="[" horiz-adv-x="754" d="M153 1574v-1521h448v254h-178l-27 26v959l27 27h178v255h-448zM641 1280v-933l13 -14v-306l-27 -27h-500l-27 27v1573l27 27h500l27 -27v-307zM614 1266h-165v-906h165v906z" />
<glyph unicode="\" horiz-adv-x="1116" d="M403 1614h588l14 -14v-1534l11 -30l-25 -36h-259l-19 13h-581l-13 14v1514l-19 50l25 36h259zM146 1472v-1432h552zM978 134v1453h-561zM750 53h202l-587 1521h-202z" />
<glyph unicode="]" horiz-adv-x="754" d="M140 360h165v906h-165v-906zM100 1293v307l27 27h500l27 -27v-1573l-27 -27h-500l-27 27v306l13 14v933zM153 1574v-255h178l27 -27v-959l-27 -26h-178v-254h448v1521h-448z" />
<glyph unicode="^" horiz-adv-x="1136" d="M728 1627l19 -13h264l13 -14v-673l12 -28l-12 -17v-855l-13 -14h-886l-14 14v855l-11 17l11 28v673l14 14h264l19 13h320zM761 1587l237 -593v593h-237zM998 862h-302l-24 17l-104 260l-104 -260l-24 -17h-302v-822h860v822zM138 994l236 593h-236v-593zM710 1574h-284 l-262 -659h258l121 306h50l121 -306h258z" />
<glyph unicode="_" horiz-adv-x="1216" d="M153 -62v-163h909v163h-909zM100 -251v189l26 53h962l27 -26v-216l-27 -27h-962z" />
<glyph unicode="a" horiz-adv-x="1824" d="M125 1614h608l19 13h320l19 -13h608l14 -14v-1535l11 -28l-25 -37h-315l-19 13h-906l-19 -13h-315l-25 37l11 28v1535zM1105 1587l581 -1456v1456h-581zM1350 40l-114 287h-648l-115 -287h877zM138 131l580 1456h-580v-1456zM1054 1574h-284l-606 -1521h258l123 310 l25 17h684l24 -17l124 -310h258zM912 1139l-203 -510h406zM937 1221l242 -608l-25 -37h-484l-25 37l242 608h50z" />
<glyph unicode="b" horiz-adv-x="1231" d="M634 993q28 0 53 10.5t43.5 29t29 43t10.5 54.5q0 28 -10.5 53t-29 43.5t-43.5 29t-53 10.5h-185v-273h185zM1104 1614l14 -14v-355q0 -8 3 -18t4 -18q6 -39 6 -79q0 -20 -1 -40t-5 -40q-1 -8 -4 -17.5t-3 -17.5v-405q0 -8 3 -18t4 -18q6 -39 6 -79q0 -20 -1 -40t-5 -40 q-1 -8 -4 -17.5t-3 -17.5v-353l-14 -14h-350q-8 0 -17.5 -2.5t-17.5 -4.5q-21 -3 -42.5 -5t-42.5 -2h-17q-123 0 -245 0.5t-245 0.5l-27 27v1573l27 27h507q40 0 79 -6q8 -1 18 -4t18 -3h355zM633 940h-210l-27 27v325l27 27h210q39 0 73.5 -15t60.5 -41t41 -60.5t15 -72.5 q0 -39 -15 -74t-40.5 -60.5t-60.5 -40.5t-74 -15zM634 52q91 0 172 35t141.5 95t95.5 140.5t35 172.5q0 85 -31 160.5t-85 139.5v36q56 63 86 138.5t30 160.5q0 91 -35.5 171.5t-96 141t-141 96t-171.5 35.5h-481v-1521q121 0 240.5 -0.5t240.5 -0.5zM830 1587 q88 -38 155.5 -105.5t105.5 -155.5v261h-261zM1091 935q-27 -68 -75 -122q23 -28 42 -58.5t33 -63.5v244zM1091 299q-38 -89 -104 -155t-155 -104h259v259zM634 632h-185v-271q47 0 93 -0.5t93 -0.5q28 0 52.5 10.5t43 29t29 43.5t10.5 53q0 27 -10.5 52t-29 43.5 t-43.5 29.5t-53 11zM634 685q39 0 73 -15t60 -41t41 -60.5t15 -73.5t-15 -73.5t-41 -60.5t-60.5 -41t-73.5 -15l-1 2h-209l-27 26v326l27 27h210z" />
<glyph unicode="c" horiz-adv-x="1596" d="M127 1614h639q10 0 22 2.5t22 4.5q52 6 104 6q50 0 101 -6q11 -1 23 -4t23 -3h410l13 -14v-206l12 -12v-38l-12 -12v-1051l5 -6v-37l-5 -6v-205l-13 -14h-410q-12 0 -25.5 -3t-25.5 -4q-48 -6 -96 -6q-51 0 -100 6q-11 2 -24 4.5t-24 2.5h-639l-14 14v639q0 11 -3 23.5 t-4 23.5q-6 49 -6 100q0 53 6 104q2 11 4.5 22.5t2.5 21.5v639zM1166 1587q81 -27 154 -69.5t137 -98.5v168h-291zM1456 1305l-180 -174h-37q-66 66 -149 101.5t-177 35.5q-93 0 -176 -36t-145 -98t-98 -145t-36 -176q0 -94 36 -176.5t98 -144.5t144.5 -98t176.5 -36 q91 0 174 34t148 99h37l184 -184v998zM1457 207q-63 -57 -136 -98.5t-154 -68.5h290v167zM661 40q-92 30 -173.5 80.5t-149 117.5t-118 148.5t-80.5 173.5v-520h521zM140 1066q29 91 80 172.5t119 149t149.5 118.5t172.5 81h-521v-521zM914 1574q-105 0 -202 -27t-182 -77 t-154 -119t-119 -154t-77 -182t-27 -202q0 -106 27 -203t76.5 -181.5t119 -153.5t154 -118.5t182 -76.5t202.5 -27q300 0 519 204l-179 178q-69 -63 -157.5 -96.5t-182.5 -33.5q-104 0 -196.5 40t-162 109t-110 161.5t-40.5 197.5q0 104 40.5 196.5t109.5 161.5t161.5 109.5 t197.5 40.5q97 0 185.5 -35t159.5 -100l180 176q-109 104 -242 158t-283 54z" />
<glyph unicode="d" horiz-adv-x="1510" d="M1383 1614l14 -14v-639q0 -11 2.5 -24t4.5 -24q6 -50 6 -100q0 -48 -6 -96q-1 -12 -4 -25.5t-3 -25.5v-639l-14 -14h-639q-11 0 -24 -2.5t-24 -4.5q-50 -6 -100 -6h-469l-27 27v1573l27 27h469q53 0 104 -6q11 -2 22.5 -4.5t21.5 -2.5h639zM849 1587q91 -30 172.5 -81 t149 -118.5t118.5 -149t81 -172.5v521h-521zM1370 560q-30 -92 -81 -173.5t-118 -148.5t-149 -117.5t-173 -80.5h521v520zM596 1574h-443v-1521h443q105 0 202 27t182 76.5t154 119t119 154t77 181.5t27 202q0 104 -27.5 201.5t-77 182t-119 154t-154 119t-181.5 77 t-202 27.5zM472 358h124q93 0 176 36t145 98t98 145t36 176t-36 176t-98 145t-145 98t-176 36h-124v-910zM596 305h-124l-53 26v963l26 27h151q104 0 196.5 -40.5t161.5 -110t109.5 -162t40.5 -195.5q0 -104 -40.5 -196.5t-109.5 -161.5t-161.5 -109.5t-196.5 -40.5z" />
<glyph unicode="e" horiz-adv-x="1231" d="M153 1574v-1521h925v254h-655l-27 26v326l27 27h420v254h-420l-27 27v325l27 27h655v255h-925zM1118 1280v-933l13 -14v-306l-27 -27h-977l-27 27v1573l27 27h977l27 -27v-307zM1091 1266h-642v-273h420l27 -27v-307l-27 -26h-420v-273h642v906z" />
<glyph unicode="f" horiz-adv-x="1231" d="M153 1578v-1521h243v606l27 27h376v255h-376l-27 26v326l27 27h655v254h-925zM1118 1284v-1253l-14 -13h-668l-13 -14h-296l-27 27v1574l27 26h977l27 -26v-308zM1091 1271h-642v-273h377l26 -27v-307l-26 -27h-377v-593h642v1227z" />
<glyph unicode="g" d="M127 1614h639q10 0 22 2.5t22 4.5q52 6 104 6q51 0 104 -6q10 -2 21.5 -4.5t21.5 -2.5h640l14 -14v-645l13 -13v-135q0 -24 -1.5 -48t-5.5 -48q-1 -11 -3.5 -22t-2.5 -22v-640l-14 -14h-640q-11 0 -24 -2.5t-24 -4.5q-50 -6 -99 -6q-51 0 -100 6q-11 2 -24 4.5t-24 2.5 h-639l-14 14v639q0 10 -2.5 22t-4.5 22q-6 51 -6 103q0 53 6 104q2 11 4.5 22.5t2.5 21.5v639zM1166 1587q91 -31 173 -80.5t150 -117.5v-38l-216 -216h-37q-65 65 -148 99t-174 34q-93 0 -176.5 -36t-145.5 -98t-98 -145t-36 -176q0 -94 36 -176.5t98 -144.5t144.5 -98 t177.5 -36q70 0 135 21t120.5 59t99 91t69.5 118h-514l-26 27v268l26 26h864v619h-522zM1688 561q-29 -92 -80 -173.5t-118.5 -149t-150 -118t-173.5 -80.5h522v521zM661 40q-92 30 -173.5 80.5t-149 117.5t-118 148.5t-80.5 173.5v-520h521zM140 1066q29 91 80 172.5 t119 149t149.5 118.5t172.5 81h-521v-521zM914 1574q-105 0 -202 -27t-182 -77t-154 -119t-119 -154t-77 -182t-27 -202q0 -106 27 -203t76.5 -181.5t119 -153.5t154 -118.5t182 -76.5t202.5 -27q104 0 200.5 27t181 76t154.5 118t120 153t77.5 180.5t27.5 200.5v107h-824 v-215h524l26 -34q-24 -80 -72 -146.5t-112.5 -114t-142 -74t-160.5 -26.5q-104 0 -196.5 40t-162 109t-110 161.5t-40.5 197.5q0 104 40.5 196.5t109.5 161.5t161.5 109.5t197.5 40.5q94 0 181.5 -34t158.5 -97l179 179q-106 100 -240 152.5t-279 52.5z" />
<glyph unicode="h" horiz-adv-x="1510" d="M1357 1574h-243v-607l-27 -27h-664l-27 27v607h-243v-1521h243v606l27 27h664l27 -27v-606h243v1521zM436 1614h638l13 13h296l27 -27v-1573l-27 -27h-296l-13 13h-638l-13 -13h-296l-27 27v1573l27 27h296zM1061 40v593h-612v-593h612zM449 1586v-593h612v593h-612z" />
<glyph unicode="i" horiz-adv-x="549" d="M396 1578h-243v-1521h243v1521zM127 1631h293l29 -26v-1574l-26 -27h-296l-27 27v1574z" />
<glyph unicode="j" horiz-adv-x="1091" d="M121 1614h523l13 13h307l27 -27v-1105q0 -39 -6 -76q-1 -9 -4 -20t-3 -19v-353l-14 -14h-351q-8 0 -19 -2.5t-19 -4.5q-20 -3 -40.5 -5t-40.5 -2q-43 0 -81 7q-8 2 -19 4.5t-19 2.5h-254l-13 14v155l-8 10l5 37l3 2v1369zM134 252l214 165l38 -5q17 -26 47.5 -39.5 t60.5 -13.5q28 0 53 10.5t43.5 29t29 43.5t10.5 53v1092h-496v-1335zM938 1575h-255v-1079q0 -39 -15 -73.5t-41 -60.5t-60.5 -41t-73.5 -15q-78 0 -133 55l-202 -156q63 -73 151 -112.5t184 -39.5q91 0 172 35t142 95t96 140.5t35 172.5v1079zM951 299q-38 -88 -105 -154 t-155 -105h260v259zM201 92q-35 27 -67 60v-112h141q-38 25 -74 52z" />
<glyph unicode="k" horiz-adv-x="1334" d="M436 1618h400l1 2l22 11h353l22 -41l-9 -13v-1518l9 -13l-22 -42h-353l-22 12l-1 2h-400l-13 -14h-296l-27 27v1574l27 26h296zM449 1591v-531l368 531h-368zM1198 1539l-499 -721l499 -722v1443zM817 44l-368 531v-531h368zM153 1578v-1534h243v616l48 15l429 -617h288 l-517 745v30l517 745h-288l-429 -618l-48 15v603h-243z" />
<glyph unicode="l" horiz-adv-x="1231" d="M1091 364v1227h-642v-1227h642zM100 31v1574l27 26h296l13 -13h668l14 -13v-1254l13 -13v-307l-27 -27h-977zM153 1578v-1521h925v254h-655l-27 27v1240h-243z" />
<glyph unicode="m" d="M772 53h284l353 889v-889h266v1521h-271l-465 -1168h-50l-465 1168h-271v-1521h266v889zM459 1614h910l14 13h318l27 -27v-1573l-27 -27h-318l-14 13h-276l-20 -13h-319l-19 13h-276l-14 -13h-318l-27 27v1573l27 27h318zM720 40l-246 622v-622h246zM476 1587l438 -1100 l438 1100h-876zM1356 40v622l-249 -622h249z" />
<glyph unicode="n" horiz-adv-x="1652" d="M468 1614h725l14 13h319l26 -27v-1573l-26 -27h-319l-23 13h-725l-14 -13h-318l-27 27v1573l27 27h318l22 -11zM1165 40l-698 978v-978h698zM487 1587l693 -981v981h-693zM1499 1574h-266v-1052l-48 -15l-753 1067h-279v-1521h266v1049l48 15l753 -1064h279v1521z" />
<glyph unicode="o" d="M127 1614h639q10 0 22 2.5t22 4.5q52 6 104 6q50 0 101 -6q11 -1 23 -4t23 -3h640l14 -14v-639q0 -11 2.5 -24t4.5 -24q6 -50 6 -100q0 -48 -6 -96q-1 -12 -4 -25.5t-3 -25.5v-639l-14 -14h-640q-12 0 -25.5 -3t-25.5 -4q-48 -6 -96 -6q-51 0 -100 6q-11 2 -24 4.5 t-24 2.5h-639l-14 14v639q0 11 -3 23.5t-4 23.5q-6 49 -6 100q0 53 6 104q2 11 4.5 22.5t2.5 21.5v639zM1167 1587q91 -30 172.5 -81t149 -118.5t118.5 -149t81 -172.5v521h-521zM1688 560q-30 -92 -81 -173t-118 -148.5t-149 -118t-173 -80.5h521v520zM661 40 q-92 30 -173.5 80.5t-149 117.5t-118 148.5t-80.5 173.5v-520h521zM140 1066q29 91 80 172.5t119 149t149.5 118.5t172.5 81h-521v-521zM914 1574q-105 0 -202 -27t-182 -77t-154 -119t-119 -154t-77 -182t-27 -202q0 -106 27 -203t76.5 -181.5t119 -153.5t154 -118.5 t182 -76.5t202.5 -27t202 27t182 76.5t154 119t119 154t77 181.5t27 202q0 104 -27.5 201.5t-77 182t-119 154t-154 119t-182 77t-201.5 27.5zM914 1321q104 0 196.5 -40.5t161.5 -110t109.5 -162t40.5 -195.5q0 -104 -40.5 -196.5t-109.5 -161.5t-161.5 -109.5 t-196.5 -40.5t-196.5 40t-162 109t-110 161.5t-40.5 197.5q0 104 40.5 196.5t109.5 161.5t161.5 109.5t197.5 40.5zM914 1268q-94 0 -177 -36t-145 -98t-98 -145t-36 -176q0 -94 36 -176.5t98 -144.5t144.5 -98t177.5 -36q93 0 176 36t145 98t98 145t36 176q0 95 -35.5 178 t-97 144.5t-144.5 97t-178 35.5z" />
<glyph unicode="p" horiz-adv-x="1296" d="M1143 1053q0 106 -41.5 201t-112.5 166t-166 112.5t-201 41.5h-469v-1522h243v453l27 27h199q107 0 201.5 41t165.5 111.5t112.5 165.5t41.5 203zM1169 1614l14 -14v-423q0 -9 2.5 -20t4.5 -20q6 -42 6 -84t-6 -82q-1 -9 -4 -20.5t-3 -20.5v-903l-14 -14h-733l-13 -13 h-296l-27 27v1573l27 27h495q43 0 85 -6q8 -1 19 -4t19 -3h424zM449 479v-439h707v802q-22 -55 -54 -104t-74 -91q-168 -168 -406 -168h-173zM833 1587q111 -45 194.5 -128.5t128.5 -194.5v323h-323zM622 1319q54 0 102.5 -21.5t85 -58t58 -85t21.5 -101.5q0 -55 -21 -103.5 t-57.5 -84.5t-85 -57t-103.5 -21h-199l-27 26v479l27 27h199zM622 1266h-173v-426h173q44 0 82.5 17t67.5 46t46 67.5t17 82.5q0 45 -16.5 83.5t-45.5 67.5t-67.5 45.5t-83.5 16.5z" />
<glyph unicode="q" d="M127 1614h639q10 0 22 2.5t22 4.5q52 6 104 6q50 0 101 -6q11 -1 23 -4t23 -3h640l14 -14v-639q0 -11 2.5 -24t4.5 -24q6 -50 6 -100q0 -48 -6 -96q-1 -12 -4 -25.5t-3 -25.5v-426l5 -6v-38l-5 -5v-164l-14 -14h-165l-5 -5h-38l-6 5h-426q-12 0 -25.5 -3t-25.5 -4 q-48 -6 -96 -6q-51 0 -100 6q-11 2 -24 4.5t-24 2.5h-639l-14 14v639q0 11 -3 23.5t-4 23.5q-6 49 -6 100q0 53 6 104q2 11 4.5 22.5t2.5 21.5v639zM1167 1587q91 -30 172.5 -81t149 -118.5t118.5 -149t81 -172.5v521h-521zM1688 561q-17 -53 -41 -102.5t-55 -95.5l96 -97 v295zM1688 164l-125 -124h125v124zM1461 40l-97 95q-47 -29 -96 -53.5t-101 -41.5h294zM661 40q-92 30 -173.5 80.5t-149 117.5t-118 148.5t-80.5 173.5v-520h521zM140 1066q29 91 80 172.5t119 149t149.5 118.5t172.5 81h-521v-521zM914 1574q-105 0 -202 -27t-182 -77 t-154 -119t-119 -154t-77 -182t-27 -202q0 -106 27 -203t76.5 -181.5t119 -153.5t154 -118.5t182 -76.5t202.5 -27q118 0 230 35t208 104l35 -3l125 -125l152 151l-126 125l-2 35q68 96 103.5 208.5t35.5 229.5q0 104 -27.5 201.5t-77 182t-119 154t-154 119t-182 77 t-201.5 27.5zM1104 850l225 -224q18 42 29 92t11 95q0 93 -36 176t-98 145t-145 98t-176 36q-94 0 -177 -36t-145 -98t-98 -145t-36 -176q0 -94 36 -176.5t98 -144.5t145 -98t177 -36q48 0 95 10t92 30l-224 225v38l190 189h37zM1317 562l-232 232l-151 -152l231 -232 l-6 -42q-56 -32 -118.5 -47.5t-126.5 -15.5q-104 0 -196.5 40t-162 109t-110 161.5t-40.5 197.5q0 104 40.5 196.5t109.5 161.5t161.5 109.5t197.5 40.5q104 0 196.5 -40.5t161.5 -110t109.5 -162t40.5 -195.5q0 -130 -63 -245z" />
<glyph unicode="r" horiz-adv-x="1383" d="M827 545q87 20 161 68.5t128 116t84 150t30 173.5q0 106 -41.5 201t-112.5 166t-166 112.5t-201 41.5h-556v-1522h243v453l27 27h38l21 -10l403 -470h313l-386 450zM1256 1614l14 -14v-423q0 -9 2.5 -20t4.5 -20q6 -42 6 -84t-6 -82q-1 -9 -4 -20.5t-3 -20.5v-878l7 -8 q-4 -11 -9.5 -22t-11.5 -22h-383l-24 13h-413l-13 -13h-296l-27 27v1573l27 27h582q43 0 85 -6q8 -1 19 -4t19 -3h424zM880 505l363 -422v759q-50 -124 -142.5 -211t-220.5 -126zM827 40l-378 439v-439h378zM920 1587q111 -45 194.5 -128.5t128.5 -194.5v323h-323zM709 1319 q54 0 102.5 -21.5t85 -58t58 -85t21.5 -101.5q0 -55 -21 -103.5t-57.5 -84.5t-85 -57t-103.5 -21h-286l-27 26v479l27 27h286zM709 1266h-260v-426h260q44 0 82.5 17t67.5 46t46 67.5t17 82.5q0 45 -16.5 83.5t-45.5 67.5t-67.5 45.5t-83.5 16.5z" />
<glyph unicode="s" horiz-adv-x="1205" d="M603 1626q39 0 78 -6q9 -2 19.5 -4.5t18.5 -2.5h359l14 -14v-356q0 -8 2 -18l5 -18q6 -39 6 -77l-13 -13v-506q0 -8 2 -18l5 -18q6 -39 6 -78q0 -40 -6 -79q-2 -8 -4.5 -17.5t-2.5 -17.5v-357l-14 -14h-370q-7 0 -15 -2t-15 -3q-38 -6 -75 -6q-38 0 -77 6q-7 1 -14.5 3 t-14.5 2h-370l-14 14v357q0 7 -2.5 16t-4.5 17q-6 40 -6 81l13 14v504q0 7 -2.5 16t-4.5 17q-6 40 -6 81q0 40 6 81q2 8 4.5 17t2.5 16v356l14 14h360q8 0 18 2l18 5q40 6 80 6zM603 1573q-92 0 -173.5 -35t-143 -95t-97.5 -141t-36 -173q0 -91 35.5 -171t96 -140t141 -95.5 t170.5 -36.5l1 1q39 0 73.5 -15t60.5 -40.5t41 -60t15 -73.5t-15 -73.5t-41 -60.5t-60.5 -41t-73.5 -15q-35 0 -67 12.5t-57.5 34t-42.5 51.5t-21 65h-255q5 -89 42.5 -165t98.5 -132t140.5 -87.5t167.5 -31.5q91 0 173 34.5t143 94.5t97 140.5t36 172.5t-36.5 173.5 t-98.5 141.5t-144 94.5t-174 33.5q-40 0 -74 14q-35 15 -61.5 40.5t-41.5 60.5t-15 75q0 38 15 72.5t41 60.5t60.5 41t73.5 15q36 0 67.5 -12.5t56.5 -34t41.5 -51.5t22.5 -65h266q-6 89 -43.5 165.5t-98 132.5t-139.5 87.5t-167 31.5zM1065 690v413h-305l-26 27 q0 28 -11 53t-29.5 43.5t-43.5 29t-53 10.5q-29 0 -54 -10.5t-43.5 -29t-29 -43.5t-10.5 -53q0 -29 10.5 -54t29 -43.5t43.5 -29t53 -10.5l2 -1q1 1 4 1q76 0 146.5 -21.5t130.5 -61t107.5 -95.5t78.5 -125zM140 935v-411h293l27 -26q0 -29 10.5 -53.5t28.5 -43.5t43 -29.5 t55 -10.5q28 0 53 11t43.5 29.5t29.5 43.5t11 53t-11 52.5t-29.5 43t-43.5 29.5t-52 11l-1 -1q-75 0 -144.5 21.5t-129.5 61t-107 95t-76 124.5zM795 39h270v264q-38 -91 -108.5 -159t-161.5 -105zM140 39h270q-91 37 -161.5 105t-108.5 159v-264zM1065 1324v262h-265 q89 -38 158 -105.5t107 -156.5zM405 1586h-265v-262q38 88 107 156.5t158 105.5z" />
<glyph unicode="t" horiz-adv-x="1510" d="M1397 1280v-1253l-14 -14h-467l-13 -13h-296l-13 13h-467l-14 14v1253l-13 13v307l27 27h1256l27 -27v-307zM1370 1266h-441v-1226h441v1226zM580 40v1226h-440v-1226h440zM152 1574v-254h454l27 -27v-1240h243v1240l27 27h454v254h-1205z" />
<glyph unicode="u" horiz-adv-x="1510" d="M436 1614h637l13 13h296l27 -27v-962q0 -20 -2.5 -41t-5.5 -41q-1 -8 -3 -17t-2 -17v-495l-14 -14h-493q-10 0 -22 -3t-23 -5q-23 -3 -45 -4t-44 -1q-23 0 -45.5 1t-45.5 4q-11 2 -22.5 5t-21.5 3h-493l-14 14v495q0 8 -2 16.5t-3 16.5q-3 20 -5.5 41.5t-2.5 41.5v962 l27 27h296zM1370 428q-24 -67 -62.5 -127t-88 -110t-110 -88.5t-127.5 -62.5h388v388zM527 40q-67 24 -127 62.5t-109.5 88.5t-88 110t-62.5 127v-388h387zM449 1587v-949q0 -60 26.5 -112.5t69.5 -92.5t98 -63t112 -23t112 23t98 63t69.5 92.5t26.5 112.5v949h-612z M1357 1574h-243v-937q0 -17 -4.5 -40.5t-8.5 -39.5q-17 -58 -50.5 -106t-79 -83t-101 -54.5t-115.5 -19.5q-69 0 -133.5 27t-114.5 73.5t-80.5 109t-30.5 133.5v937h-243v-935q0 -48 10 -97t27 -94q33 -89 89.5 -162t130.5 -124.5t162 -80t183 -28.5q121 0 230 45.5 t191.5 125t131 186t48.5 229.5z" />
<glyph unicode="v" horiz-adv-x="1824" d="M770 53h284l606 1521h-258l-465 -1168h-50l-465 1168h-258zM459 1614h906l19 13h315l25 -36l-11 -29v-1535l-14 -14h-608l-19 -13h-320l-19 13h-608l-14 14v1535l-11 29l25 36h315zM718 40l-580 1455v-1455h580zM473 1587l439 -1100l438 1100h-877zM1686 1495l-581 -1455 h581v1455z" />
<glyph unicode="w" horiz-adv-x="2324" d="M467 1614h515l18 13h324l18 -13h515l17 13h325l25 -34q-1 -3 -5 -17.5t-8.5 -31t-8.5 -30.5l-3 -13v-1474l-14 -14h-406l-18 -13h-324l-17 13h-516l-17 -13h-324l-18 13h-419l-14 14v1522l-2 6q-1 7 -3.5 15t-4.5 14.5t-2 8.5l26 34h324zM2164 1574h-269l-270 -971h-51 l-270 971h-284l-269 -971h-52l-269 971h-269l422 -1521h284l269 971h52l269 -971h284zM532 40l-393 1413v-1413h393zM2172 1405l-379 -1365h379v1365zM481 1587l244 -878l244 878h-488zM1355 1587l244 -878l244 878h-488zM1406 40l-244 877l-244 -877h488z" />
<glyph unicode="x" horiz-adv-x="1466" d="M1298 53l-419 747v26l419 748h-278l-264 -471h-46l-263 471h-279l419 -748v-26l-419 -747h279l263 470h46l264 -470h278zM485 1614h497l22 13h339l23 -40l-10 -17v-1513l10 -17l-23 -40h-339l-22 13h-497l-23 -13h-339l-23 40l10 17v1513l-10 17l23 40h339zM966 1587 h-466l233 -416zM136 1522v-1418l397 709zM500 40h466l-233 416zM1330 104v1418l-397 -709z" />
<glyph unicode="y" horiz-adv-x="1449" d="M899 481v-441h412v1457zM886 13l-14 -13h-295l-14 13h-438l-14 14v1536l-11 28l25 36h338l20 -13h483l20 13h338l25 -36l-11 -28v-1536l-14 -14h-438zM550 40v441l-412 1016v-1457h412zM497 1587l228 -561l227 561h-455zM846 53v433l2 10l437 1078h-281l-255 -628h-49 l-255 628h-281l437 -1078l-5 -2l7 -8v-433h243z" />
<glyph unicode="z" horiz-adv-x="1478" d="M1364 1570v-1212l14 -14v-317l-27 -27h-1224l-23 40l9 17v1211l-13 14v318l27 27h1224l23 -40zM1338 1523l-658 -1152h658v1152zM140 103l658 1152h-658v-1152zM1305 1574h-1165v-266h704l23 -39l-695 -1216h1152v265h-690l-23 40z" />
<glyph unicode="{" horiz-adv-x="736" d="M127 1614h188l23 13h276l22 -42l-8 -11v-1520l8 -12l-22 -42h-276l-23 13h-188l-14 14v578q0 17 -3 35t-5 35q-2 35 -3.5 69t-1.5 69t1.5 69t3.5 69q2 17 5 35.5t3 35.5v578zM601 1535q-106 -162 -161.5 -345t-55.5 -377q0 -193 55.5 -377t161.5 -345v1444zM300 40 q-56 97 -97 202t-63 214v-416h160zM140 1170q22 111 64 214.5t96 202.5h-160v-417zM563 1574h-209q-100 -174 -150.5 -367.5t-50.5 -393.5q0 -98 12.5 -197t38 -196t63 -189.5t87.5 -177.5h209q-115 167 -173.5 362.5t-58.5 397.5q0 204 59.5 397.5t172.5 363.5z" />
<glyph unicode="|" horiz-adv-x="469" d="M316 1578h-163v-1521h163v1521zM127 1631h189l53 -26v-1574l-26 -27h-216l-27 27v1574z" />
<glyph unicode="}" horiz-adv-x="736" d="M173 1574q113 -170 172.5 -363.5t59.5 -397.5q0 -100 -15 -200.5t-44.5 -197t-72.5 -188t-100 -174.5h209q99 172 150 367t51 393q0 200 -50.5 393.5t-150.5 367.5h-209zM596 1587h-160q54 -99 95.5 -202.5t64.5 -214.5v417zM596 40v416q-22 -109 -63 -214t-97 -202h160z M135 91q106 161 161.5 345t55.5 377q0 194 -55.5 377t-161.5 345v-1444zM623 1600v-578q0 -17 3 -35.5t5 -35.5q2 -35 3.5 -69t1.5 -69t-1.5 -69t-3.5 -69q-2 -17 -5 -35t-3 -35v-578l-14 -14h-188l-23 -13h-276l-22 42l8 12v1520l-8 11l22 42h276l23 -13h188z" />
<glyph unicode="~" horiz-adv-x="989" d="M153 727q8 20 22 42.5t33 41t41 31t46 12.5q27 0 57.5 -18.5t63.5 -46.5t69 -61t74.5 -61t79 -46.5t83.5 -18.5q63 0 114 40v326q-12 -20 -25 -42t-29.5 -41t-37 -31.5t-47.5 -12.5q-29 0 -60 18.5t-64.5 46.5t-69 60.5t-74 60.5t-79.5 46.5t-84 18.5q-31 0 -60 -10.5 t-53 -29.5v-325zM140 43h709v544q-29 -17 -60.5 -27.5t-65.5 -10.5q-47 0 -92 18.5t-86.5 46.5t-78.5 61t-69 61t-58 46.5t-45 18.5q-16 0 -29 -9.5t-24 -23t-20 -28.5t-15 -27l-56 -108l-10 2v-564zM849 1087v504h-709v-483q57 37 125 37q46 0 91 -18.5t86.5 -46.5 t79 -60.5t70 -60.5t59 -46.5t45.5 -18.5q14 0 29 12t29.5 30.5t27.5 41.5t24 45t19.5 40t13.5 27zM113 615l-13 3v448q2 3 6.5 12t6.5 11v516l13 13h736l14 -13v-524l13 -4v-447l-10 -21l-3 -2v-576l-14 -13h-736l-13 13v584z" />
<glyph unicode="&#xa1;" horiz-adv-x="562" d="M435 0h-306l-27 27v994l13 13v340q-7 17 -11 35.5t-4 37.5t4 37.5t11 35.5v80l14 14h84q32 13 68 13t68 -13h86l14 -14v-85q13 -32 13 -68t-13 -68v-345l13 -13v-994zM155 53h254v941h-254v-941zM142 1047h282l-2 286q-24 -34 -62 -50.5t-79 -16.5q-45 0 -77.5 16.5 t-61.5 48.5v-284zM281 1574q-26 0 -49 -10t-40.5 -27.5t-28 -40.5t-10.5 -49t10 -49.5t27.5 -41t41 -27.5t49.5 -10t49 10.5t40.5 28t28 40.5t10.5 49t-10.5 49t-28 40.5t-41 27.5t-48.5 10zM394 1587l-2 1l1 -2q9 -7 15.5 -12t13.5 -15v28h-28zM153 1574l14 13h-25v-25z " />
<glyph unicode="&#xab;" horiz-adv-x="1677" d="M127 1614h1426l14 -14v-680l10 -7v-315l-10 -16v-226l10 -15v-314l-36 -25l-29 11h-666l-17 -11l-29 11h-673l-13 14v263l-14 20v319l14 19v952zM812 380v178l-224 -89zM865 668l675 269v650h-1400v-924l689 274l36 -24v-245zM1540 565l-240 -96l240 -95v191zM1445 40 l-580 230v-230h580zM865 611v-284l659 -261v257l-305 121v50l305 122v257zM734 40l-594 236v-236h594zM154 611v-284l658 -261v257l-305 121v50l305 122v257z" />
<glyph unicode="&#xae;" horiz-adv-x="596" d="M496 1281q0 -42 -16 -78t-43.5 -62.5t-64 -42t-77.5 -15.5q-40 0 -75.5 16t-62 43t-42 63t-15.5 76t15.5 76t42.5 63t63 43t77 16q40 0 76 -16t63 -43t43 -63t16 -76zM471 1281q0 36 -13.5 67t-37 54.5t-55 37t-67.5 13.5q-35 0 -66.5 -13.5t-55 -37t-37 -55t-13.5 -66.5 q0 -36 13.5 -67.5t37 -55t54.5 -37t67 -13.5t67.5 13.5t55 37t37 55t13.5 67.5zM354 1166l-55 92h-44v-92h-35v228h84q32 0 56 -14.5t24 -50.5q0 -55 -52 -67l61 -96h-39zM350 1329q0 21 -15.5 29.5t-33.5 8.5h-46v-82h50q45 0 45 44z" />
<glyph unicode="&#xb6;" horiz-adv-x="1485" d="M550 1574q-164 0 -281 -116q-116 -118 -116 -281q0 -164 116 -281q116 -116 281 -116l27 -27v-700h242v1252l27 26h215l27 -26v-1252h243v1521h-781zM364 1587h-224v-224q32 72 92 132q59 59 132 92zM140 991v-951h384v687q-170 10 -292 131q-60 59 -92 133zM872 40h163 v1238h-163v-1238zM127 1614h314q50 13 109 13h807l27 -27v-1573l-27 -27h-296l-13 13h-189l-14 -13h-295l-13 13h-410l-14 14v1040q-13 50 -13 110q0 58 13 109v314z" />
<glyph unicode="&#xbb;" horiz-adv-x="1677" d="M865 873v-257l305 -122v-50l-305 -121v-257l658 261v284zM1537 40v236l-594 -236h594zM153 873v-257l305 -122v-50l-305 -121v-257l659 261v284zM812 40v230l-580 -230h580zM137 374l240 95l-240 96v-191zM812 913l36 24l689 -274v924h-1400v-650l675 -269v245zM1089 469 l-224 89v-178zM1563 1600v-952l14 -19v-319l-14 -20v-263l-13 -14h-673l-29 -11l-17 11h-666l-29 -11l-36 25v314l10 15v226l-10 16v315l10 7v680l14 14h1426z" />
<glyph unicode="&#xbf;" horiz-adv-x="1194" d="M527 1627q32 13 68 13t68 -13h404l14 -14v-1090l13 -13q0 -19 -1.5 -38t-3.5 -38q-2 -8 -5 -19t-3 -19v-356l-14 -14h-355q-7 0 -16 -2.5t-17 -4.5q-41 -6 -81 -6q-38 0 -77 6q-8 1 -19 4t-19 3h-357l-13 14v356q0 7 -2.5 16t-4.5 17q-6 39 -6 80q0 39 6 77q1 9 4 19.5 t3 18.5v989l13 14h401zM481 1600h-341v-895q34 80 83.5 134t122.5 100q55 34 67 98l27 23h309l27 -28q-8 -128 -72.5 -233t-175.5 -170v-2q-33 -19 -51 -50t-18 -69q0 -18 5 -34.5t13 -32.5h1q18 -33 49.5 -51t70.5 -18q27 0 52 11t43.5 30t29.5 44t11 52l26 27h294v1064 h-346l-2 1q0 -1 3 -3.5t6 -4.5l8 -6q27 -25 40 -58t13 -69q0 -37 -14.5 -70t-39 -57.5t-57.5 -39t-70 -14.5q-38 0 -71 14.5t-57.5 39t-39 57.5t-14.5 70q0 45 17.5 78t50.5 62zM598 319q-40 0 -74.5 15t-61 40.5t-41.5 60t-15 73.5q0 53 24.5 95.5t69.5 70.5v1q45 25 83 61 t66.5 79t46.5 92t24 100h-259q-23 -72 -88 -112l1 -1q-106 -62 -164.5 -163t-58.5 -224q0 -91 36 -171.5t97.5 -140.5t143 -95t172.5 -35q117 0 219 61h1q47 27 86.5 66t68 85.5t45.5 98.5t20 107h-255q-6 -35 -22.5 -65t-41 -52t-56 -34.5t-67.5 -12.5zM595 1587 q-27 0 -50 -10t-40.5 -27.5t-28 -40.5t-10.5 -49t10 -49.5t27.5 -41t41 -27.5t50.5 -10q26 0 49 10.5t40.5 28t28 40.5t10.5 49t-10.5 49t-28 40.5t-41 27.5t-48.5 10zM140 53h261q-182 79 -261 261v-261zM792 53h262v261q-38 -94 -104.5 -156.5t-157.5 -104.5z" />
<glyph unicode="&#xc0;" horiz-adv-x="1824" d="M937 1221l242 -608l-25 -37h-484l-25 37l242 608h50zM1115 629l-203 510l-203 -510h406zM1236 327h-648l-114 -287h877zM1686 131v1456h-580zM777 1329h108v387h-242zM631 1587h-493v-1456l534 1339zM938 1302l-27 -27h-153l-26 18l-34 101l-535 -1341h258l124 310l24 17 h684l25 -17l123 -310h258l-606 1521h-115v-272zM579 1734l25 35h307l27 -27v-115h133l19 -13h608l14 -14v-1535l11 -28l-25 -37h-315l-19 13h-906l-19 -13h-315l-25 37l11 28v1535l14 14h497z" />
<glyph unicode="&#xc1;" horiz-adv-x="1824" d="M1202 1614h497l14 -14v-1535l11 -28l-25 -37h-315l-19 13h-906l-19 -13h-315l-25 37l11 28v1535l14 14h608l19 13h133v115l27 27h307l25 -35zM885 1574h-115l-606 -1521h258l123 310l25 17h684l24 -17l124 -310h258l-535 1341l-34 -101l-26 -18h-153l-27 27v272z M1152 1470l534 -1339v1456h-493zM1180 1716h-242v-387h108zM718 1587h-580v-1456zM473 40h877l-114 287h-648zM1115 629l-203 510l-203 -510h406zM937 1221l242 -592l-25 -53h-484l-25 37l242 608h50z" />
<glyph unicode="&#xc2;" horiz-adv-x="1824" d="M586 1634l315 135h21l316 -135l13 -20h448l14 -14v-1535l11 -28l-25 -37h-315l-19 13h-906l-19 -13h-315l-25 37l11 28v1535l14 14h448zM1254 1587v-202l-37 -24l-26 11l495 -1241v1456h-432zM1350 40l-114 287h-648l-115 -287h877zM138 131l495 1241l-26 -11l-37 24v202 h-432v-1456zM1122 1402l-210 90l-210 -90l-538 -1349h258l123 310l25 17h684l24 -17l124 -310h258zM1115 629l-203 510l-203 -510h406zM937 1221l242 -592l-25 -53h-484l-25 37l242 608h50zM912 1716l-289 -124v-166l278 120h21l279 -120v166z" />
<glyph unicode="&#xc3;" horiz-adv-x="1823" d="M997 1627h74l19 -13h96q20 32 36.5 65.5t33.5 66.5l50 -13v-119h393l13 -14v-1535l11 -28l-24 -37h-315l-20 13h-906l-19 -13h-314l-25 37l12 28v1535l13 14h392v108l10 20q34 27 73 43.5t83 16.5q43 0 86 -17t83.5 -43.5t77 -57t67.5 -57.5zM1659 53l-462 1160 q-15 -5 -30 -6.5t-31 -1.5q-48 0 -93.5 19t-88.5 48t-81 63.5t-71 64.5q-16 14 -37.5 31.5t-42.5 23.5l-558 -1402h257l124 310l25 17h683l25 -17l124 -310h257zM138 131l510 1280q-24 -33 -43 -73t-38 -76l-50 12v313h-379v-1456zM1306 1587v-301l-10 -21l-24 -18 q-12 -9 -26 -15l439 -1101v1456h-379zM1350 40l-115 287h-648l-114 -287h877zM936 1221l242 -592l-24 -53h-485l-25 37l243 608h49zM570 1383q10 19 23.5 41.5t31 41.5t39 31.5t46.5 12.5q28 0 58.5 -18.5t64 -46.5t69.5 -61t74.5 -61t79.5 -46.5t84 -18.5q32 0 60 11t53 29 v326q-10 -19 -23.5 -41.5t-31 -41.5t-38.5 -31.5t-46 -12.5q-24 0 -47 11t-44 26.5t-40 33.5t-36 33q-22 19 -54 45t-68 49.5t-72.5 39.5t-66.5 16q-32 0 -61 -12.5t-55 -30.5v-325zM1114 629l-203 510l-203 -510h406zM1105 1587l14 -36q16 2 28 13.5t21 22.5h-63z" />
<glyph unicode="&#xc4;" d="M1479 1614q32 13 68 13t68 -13h86l14 -14v-86q13 -32 13 -68t-13 -68v-1313l11 -28l-25 -37h-315l-19 13h-906l-19 -13h-315l-25 37l11 28v1313q-13 32 -13 68t13 68v86l14 14h86q32 13 68 13t68 -13h386l19 13h319l20 -13h386zM1056 1574h-284l-606 -1521h258l123 310 l25 17h684l24 -17l124 -310h258zM1547 1265q-37 0 -70 14.5t-57.5 39t-39 57.5t-14.5 70q0 45 17.5 78.5t49.5 62.5h-326l581 -1456v1202q-24 -33 -62.5 -50.5t-78.5 -17.5zM281 1265q-42 0 -78.5 17.5t-62.5 50.5v-1202l580 1456h-325q33 -31 50 -62.5t17 -78.5 q0 -38 -14 -71t-38.5 -57.5t-57.5 -38.5t-71 -14zM1352 40l-114 287h-648l-114 -287h876zM939 1221l242 -608l-25 -37h-484l-25 37l242 608h50zM914 1139l-203 -510h406zM1547 1318q25 0 48.5 10.5t41 28t28 40.5t10.5 49q0 25 -10.5 48.5t-28 41t-41 28t-48.5 10.5 q-26 0 -49 -10.5t-40.5 -28t-28 -41t-10.5 -48.5q0 -26 10.5 -49t28 -40.5t40.5 -28t49 -10.5zM281 1318q25 0 48.5 10.5t41 28t28 40.5t10.5 49q0 25 -10.5 48.5t-28 41t-41 28t-48.5 10.5q-26 0 -49 -10.5t-40.5 -28t-28 -41t-10.5 -48.5q0 -26 10.5 -49t28 -40.5 t40.5 -28t49 -10.5zM140 1560q6 8 13 14.5t15 12.5h-28v-27zM1660 1587l15 -12q5 -4 13 -15v27h-28z" />
<glyph unicode="&#xc5;" horiz-adv-x="1821" d="M123 1614h687q5 0 14 3t15 4q36 6 72 6q34 0 69 -6q6 -1 16 -4t15 -3h687l13 -14v-1542l10 -19l-23 -39h-315l-22 13h-900l-23 -13h-315l-23 39l10 19v1542zM1653 53l-503 936l3 30q44 46 66 103.5t22 120.5q0 67 -26.5 127t-71.5 105.5t-105 72t-127 26.5 q-68 0 -128 -26.5t-105 -71.5t-71.5 -105.5t-26.5 -127.5q0 -62 22 -120.5t66 -103.5l4 -30l-504 -936h254l169 313l24 14h592l23 -14l169 -313h254zM1205 998l480 -891v1480h-604q50 -25 89.5 -61t67 -80.5t42 -95.5t14.5 -107q0 -66 -22.5 -130t-66.5 -115zM137 107 l479 891q-45 51 -67 114t-22 131q0 115 56 203t157 141h-603v-1480zM1346 40l-155 287h-561l-154 -287h870zM911 1408q34 0 64 -13.5t52.5 -36t35.5 -52.5t13 -63q0 -34 -13 -64t-35.5 -52.5t-52.5 -35.5t-64 -13t-64 13t-52.5 35.5t-36 52.5t-13.5 64q0 33 13.5 63t36 52.5 t52.5 36t64 13.5zM943 899l153 -270l-23 -53h-324l-24 39l153 284l24 14h17zM911 1355q-24 0 -44.5 -9t-35.5 -24t-24 -35.5t-9 -43.5t9 -43.5t24 -35.5t35.5 -24t44.5 -9q23 0 43.5 9t35.5 24t24 35.5t9 43.5q0 48 -32 80t-80 32zM1028 629l-117 218l-119 -218h236z" />
<glyph unicode="&#xc6;" horiz-adv-x="1929" d="M125 1614h608l19 13h1051l26 -27v-307l-13 -13v-933l13 -14v-306l-26 -27h-751l-14 13h-579l-19 -13h-315l-25 37l11 28v1535zM1789 1266h-415v-273h239l27 -27v-307l-27 -26h-239v-273h415v906zM1025 40v290l-437 -3l-115 -287h552zM138 131l580 1456h-580v-1456z M1776 1574h-1006l-606 -1521h258l123 310l25 17h482l26 -27v-300h698v254h-428l-27 26v326l27 27h239v254h-239l-27 27v325l27 27h428v255zM1025 1265h-60l-256 -636h316v636zM954 1319h92l32 -28v-688l-26 -27h-382l-25 37l284 679z" />
<glyph unicode="&#xc7;" horiz-adv-x="1596" d="M1461 40l26 126v-139l-13 -14h-413q-14 0 -31.5 -3t-31.5 -6q-6 -37 -23 -69t-42.5 -55t-59 -36.5t-71.5 -13.5t-75 15.5t-64 42.5v37l75 75h-106l-14 13h-488l-13 14v621q0 12 -3.5 26.5t-5.5 26.5q-4 28 -6 55.5t-2 56.5t2 56.5t6 55.5q2 12 5.5 26.5t3.5 26.5v622 l13 14h636q11 0 25 3t26 5q24 2 48.5 3.5t48.5 1.5t48.5 -1t48.5 -4q12 -2 25.5 -5t24.5 -3h413l13 -14v-209l9 -9v-38l-9 -9v-1058l2 -2v-37l-2 -3v-32q-74 -48 -150 -89q-81 -44 -171 -74h295zM1461 304v1005l-184 -178h-37q-66 66 -149 101.5t-177 35.5q-93 0 -176 -36 t-145 -98t-98 -145t-36 -176q0 -101 37.5 -184.5t102 -143.5t151 -93t184.5 -33q84 0 163 37.5t139 94.5h37zM754 330q-77 25 -141 73t-110 112t-71.5 140t-25.5 157q0 105 40.5 197.5t109.5 161.5t161.5 109.5t197.5 40.5q97 0 185.5 -35t159.5 -100l180 176 q-106 101 -242.5 156.5t-282.5 55.5q-105 0 -202 -27t-182 -77.5t-154 -119.5t-119 -154t-77 -182t-27 -202q0 -114 34 -222t95.5 -200.5t148.5 -165t193 -115.5q29 57 62.5 112t66.5 109zM996 58q253 27 437 199l-179 178q-59 -53 -131.5 -86t-151.5 -41q-18 -28 -36.5 -55 t-37.5 -54q39 -26 65 -60t34 -81zM143 1076q31 90 82 170t117.5 146t147.5 116t171 79h-518v-511zM606 40l2 20q-83 32 -155 81.5t-131.5 112.5t-104.5 138t-74 159v-511h463zM848 162l-13 40q17 26 34.5 52.5t36.5 52.5q-25 0 -49 3t-49 7q-8 -12 -21 -33t-28.5 -46.5 t-32 -52.5t-30.5 -52.5t-23.5 -46.5t-11.5 -33h75q8 20 26.5 32t39.5 12q28 0 49.5 -19.5t21.5 -48.5q0 -30 -20 -51.5t-51 -21.5q-12 0 -27 5l-54 -53q20 -11 39 -18t42 -7q29 0 55 11t46 30.5t31.5 45.5t11.5 55v5q-1 20 -8 40q-7 22 -20 40t-31 32t-39 20zM1461 1416v171 h-295q82 -27 156.5 -70t138.5 -101zM771 14h18q5 -5 13 -5t13 4.5t5 12.5t-5 13.5t-13 5.5q-10 0 -14 -7q-1 -2 -1.5 -2.5t-1.5 -2.5q-1 -1 -1 -2v-4zM1496 210q-5 -3 -9 -7v-37z" />
<glyph unicode="&#xc8;" horiz-adv-x="1231" d="M638 1716h-243l135 -388h108v388zM1118 1280v-933l13 -14v-306l-27 -27h-977l-27 27v1573l27 27h243l-37 107l25 35h307l26 -27v-115h413l27 -27v-307zM388 1574h-235v-1521h925v254h-655l-27 26v326l27 27h420v254h-420l-27 27v325l27 27h54zM691 1319h387v255h-387 v-255zM1091 360v906h-642v-273h420l27 -27v-307l-27 -26h-420v-273h642z" />
<glyph unicode="&#xc9;" horiz-adv-x="1231" d="M1118 1280v-933l13 -14v-306l-27 -27h-977l-27 27v1573l27 27h475v115l27 27h306l25 -35l-37 -107h181l27 -27v-307zM602 1574h-449v-1521h925v254h-655l-27 26v326l27 27h420v254h-420l-27 27v325l27 27h179v255zM816 1319h262v255h-173zM898 1716h-243v-388h108z M1091 360v906h-642v-273h420l27 -27v-307l-27 -26h-420v-273h642z" />
<glyph unicode="&#xca;" horiz-adv-x="1231" d="M946 1627h158l27 -27v-307l-13 -13v-933l13 -14v-306l-27 -27h-977l-27 27v1573l27 27h158l4 7l316 135h21l316 -135zM958 1574v-189l-37 -24l-305 131l-306 -131l-37 24v189h-120v-1521h925v254h-655l-27 26v326l27 27h420v254h-420l-27 27v325l27 27h655v255h-120z M616 1716l-290 -142v-148l278 120h22l278 -120v166zM1091 1266h-642v-273h420l27 -27v-307l-27 -26h-420v-273h642v906z" />
<glyph unicode="&#xcb;" horiz-adv-x="1239" d="M153 1266v-1213h925v254h-655l-27 26v182l27 27h420v254h-420l-27 27v162l27 27h655v254h-925zM977 1319q22 0 42 12t35 30.5t23.5 41t8.5 42.5q0 25 -10.5 48.5t-28 41t-41 28t-48.5 10.5q-26 0 -49 -10.5t-40.5 -28t-28 -41t-10.5 -48.5q0 -21 8.5 -43t23.5 -40.5 t34.5 -30.5t42.5 -12h38zM828 1319q-51 52 -51 126q0 46 17.5 79.5t49.5 62.5h-449q33 -24 50 -62.5t17 -78.5q0 -36 -12.5 -68t-38.5 -58zM890 1614q32 13 68 13t68 -13h78l14 -14v-69q21 -39 21 -85t-21 -85v-55l13 -13v-307l-13 -13v-626l13 -14v-306l-27 -27h-977 l-27 27v1266l13 14v71q-13 32 -13 68t13 68v86l14 14h86q32 13 68 13q37 0 69 -13h540zM1072 1587l14 -13q1 -4 5 -5v18h-19zM1091 1323l-3 -3h3v3zM300 1319q23 0 43 12t34.5 30t23 40.5t8.5 43.5q0 26 -10.5 49t-28 40.5t-40.5 28t-49 10.5t-49 -10.5t-40.5 -28t-28 -41 t-10.5 -48.5q0 -21 8.5 -43t23.5 -40.5t34.5 -30.5t42.5 -12h38zM152 1319l-12 14v-14h12zM140 1560q10 16 15 19t13 8h-28v-27zM1091 959h-642v-110h420l27 -26v-308l-27 -26h-420v-129h642v599z" />
<glyph unicode="&#xcc;" horiz-adv-x="558" d="M297 1329h108v387h-243zM100 1734l25 35h306l27 -27v-1711l-27 -27h-296l-26 27v1574l26 26zM278 1275l-25 18l-91 261v-1497h243v1218h-127z" />
<glyph unicode="&#xcd;" horiz-adv-x="558" d="M153 1275v-1218h243v1497l-91 -261l-25 -18h-127zM423 1631l26 -26v-1574l-26 -27h-296l-27 27v1711l27 27h306l25 -35zM396 1716l-243 2v-389h108z" />
<glyph unicode="&#xce;" horiz-adv-x="884" d="M320 1440v-1382h244v1382l-122 52zM771 1377v-1350l-13 -14h-159l-9 -9h-296l-9 9h-158l-14 14v1350l-13 8v224l16 25l316 135h21l315 -135l16 -25v-224zM745 40v1322l-128 55v-1377h128zM139 1362v-1322h128v1377zM442 1716l-289 -124v-166l279 120h21l278 -120v166z " />
<glyph unicode="&#xcf;" horiz-adv-x="871" d="M309 53h253v1212h-253v-1212zM140 40h119l-3 1227q-34 4 -65 21t-51 45v-1293zM615 40h116v1293l1 2q-5 -4 -7.5 -8t-6.5 -9q-8 -11 -20.5 -19.5t-26.5 -15t-28.5 -11t-27.5 -5.5v-1227zM461 1318q-8 8 -14 16t-12 17q-6 -9 -12 -17t-14 -16h52zM589 0h-307l-13 13h-142 l-14 14v1351q-13 32 -13 68t13 68v86l14 14h86q32 13 68 13t68 -13h172q32 13 69 13q36 0 68 -13h86l13 -14v-86q6 -17 10 -34t4 -34q0 -34 -14 -68v-1351l-13 -14h-142zM731 1560v27h-28q8 -6 14.5 -12.5t13.5 -14.5zM476 1587h-81q12 -11 22 -21.5t18 -24.5q8 13 18 25 t23 21zM168 1587h-28v-27q6 8 13 14.5t15 12.5zM281 1574q-26 0 -49 -10.5t-40.5 -28t-28 -41t-10.5 -48.5q0 -26 10.5 -49t28 -40.5t40.5 -28t49 -10.5q25 0 48.5 10.5t41 28t28 40.5t10.5 49t-10 49.5t-27.5 41t-41 27.5t-49.5 10zM462 1446q0 -26 10.5 -49t28 -40.5 t40.5 -28t49 -10.5t49 10.5t40.5 28t27.5 40.5t10 49q0 25 -10 48.5t-27.5 41t-40.5 28t-49 10.5t-49 -10.5t-40.5 -28t-28 -40.5t-10.5 -49z" />
<glyph unicode="&#xd0;" horiz-adv-x="1510" d="M1370 1614l13 -14v-580q0 -5 2 -14t4 -19l5 -19q3 -9 4 -15q12 -69 12 -140t-12 -140q-1 -6 -4 -16l-5 -19l-4 -18t-2 -14v-579l-13 -14h-626q-11 0 -23.5 -2.5t-23.5 -4.5q-51 -6 -101 -6h-469l-27 27v1573l27 27h469q52 0 105 -6q10 -2 21.5 -4.5t21.5 -2.5h626z M596 1574h-443v-1521h443q105 0 202 27t182 76.5t154 119t119 154t77 181.5t27 202q0 104 -27.5 201.5t-77 182t-119 154t-154 119t-181.5 77t-202 27.5zM790 940h-362l-26 27v327l26 27h168q104 0 196.5 -40.5t161.5 -110t109.5 -162t40.5 -195.5q0 -104 -40.5 -196.5 t-109.5 -161.5t-161.5 -109.5t-196.5 -40.5h-168l-26 26v328l26 27h362v254zM454 993h362l27 -27v-307l-27 -26h-362v-275h141q93 0 176 36t145.5 98t98.5 145t36 176t-36 176t-98.5 145t-145.5 98t-176 36h-141v-275zM849 1587q87 -29 164.5 -76.5t142.5 -109.5t116 -137.5 t85 -160.5v484h-508zM1357 523q-34 -86 -85 -161t-115.5 -137.5t-142 -109.5t-165.5 -75h508v483z" />
<glyph unicode="&#xd1;" horiz-adv-x="1652" d="M497 1383q10 20 24 42.5t31.5 41t39 31t46.5 12.5q28 0 58.5 -18.5t64 -46.5t69.5 -60.5t74 -60.5t79 -46.5t84 -18.5q31 0 60 10.5t53 29.5v325q-9 -20 -22.5 -42.5t-31 -41t-39 -31t-46.5 -12.5q-30 0 -61 18.5t-64.5 46.5t-69 60.5t-73.5 60.5t-78.5 46.5t-84.5 18.5 q-31 0 -60 -10.5t-53 -29.5v-325zM1184 13h-687q-11 0 -26 -6.5t-26 -6.5h-318l-27 27v1573l27 27h317v94l10 20q34 27 73 43.5t83 16.5q46 0 91 -18.5t87 -46.5t80.5 -61t71.5 -61h174l69 132l50 -13v-106h293l26 -27v-1573l-26 -27h-319q-2 2 -12 6.5t-11 6.5zM472 40h693 l-693 978v-978zM1096 1587h-126q14 -11 33.5 -24t38.5 -13q17 0 30.5 12t23.5 25zM595 1435l585 -829v630q-26 -14 -54.5 -22t-57.5 -8q-48 0 -93 18.5t-87 46.5t-79.5 60.5t-69.5 60.5t-57.5 46.5t-42.5 18.5q-13 0 -24 -6.5t-20 -15.5zM1499 1574h-266v-1135l-671 951 q-19 -31 -35 -63.5t-33 -64.5l-50 12v282l-12 18h-279v-1521h266v1134l801 -1134h279v1521z" />
<glyph unicode="&#xd2;" d="M459 813q0 -93 36 -176t98 -145t145 -98t176 -36q94 0 176.5 36t144.5 98t98 144.5t36 176.5q0 93 -36 176t-98 145t-145 98t-176 36q-95 0 -178 -35.5t-144.5 -97t-97 -144.5t-35.5 -178zM661 40q-92 30 -173.5 80.5t-148.5 118t-118 148.5t-81 173v-520h521zM1688 560 q-29 -92 -80 -173t-118.5 -148.5t-149.5 -118t-173 -80.5h521v520zM1167 1587q91 -30 172.5 -81t149.5 -118.5t119 -149t80 -172.5v521h-521zM759 1328h108v388h-243zM613 1587h-473v-521q60 178 182 307.5t296 198.5zM920 1321q104 -2 195 -42.5t159.5 -109.5t108 -161 t39.5 -195q0 -104 -40.5 -196.5t-110 -161.5t-162 -109.5t-195.5 -40.5q-104 0 -196.5 40.5t-161.5 109.5t-109.5 161.5t-40.5 196.5q0 79 22.5 151.5t64.5 134t101 109.5t132 78l-11 7l-79 228q-108 -42 -196.5 -114.5t-152.5 -166t-99 -203t-35 -224.5q0 -105 27 -202 t77 -181.5t119 -154t154 -119t182 -76.5t202 -27t202 27t182 76.5t154 119t119 154t77 181.5t27 202q0 104 -27 201t-76 181t-118 153.5t-153 119t-180.5 77.5t-200.5 29v-253zM562 1734l25 35h307l26 -27v-115q46 0 93 -6q12 -1 25 -4t24 -3h639l14 -14v-639 q0 -10 2.5 -21.5t4.5 -22.5q6 -51 6 -104q0 -52 -6 -103q-2 -10 -4.5 -22t-2.5 -22v-639l-14 -14h-639q-11 0 -24 -2.5t-24 -4.5q-50 -6 -100 -6t-99 6q-11 2 -24 4.5t-24 2.5h-640l-14 14v639q0 11 -2.5 24t-4.5 24q-6 49 -6 99t6 100q2 11 4.5 24t2.5 24v639l14 14h477z " />
<glyph unicode="&#xd3;" d="M1224 1614h477l14 -14v-639q0 -11 2.5 -24t4.5 -24q6 -50 6 -100t-6 -99q-2 -11 -4.5 -24t-2.5 -24v-639l-14 -14h-640q-11 0 -24 -2.5t-24 -4.5q-50 -6 -99 -6q-51 0 -100 6q-11 2 -24 4.5t-24 2.5h-639l-14 14v639q0 10 -2.5 22t-4.5 22q-6 51 -6 103q0 53 6 104 q2 11 4.5 22.5t2.5 21.5v639l14 14h639q11 0 24 3t25 4q46 6 93 6v115l26 27h307l25 -35zM908 1574q-105 -2 -201.5 -30t-180 -77.5t-152.5 -118.5t-118 -153t-76 -180.5t-27 -201.5q0 -106 27 -203t76.5 -181.5t119 -153.5t154 -118.5t182 -76.5t202.5 -27t202 27t182 76.5 t154 119t119 154t77 181.5t27 202q0 115 -35 224.5t-99 203t-152.5 166t-196.5 114.5l-79 -228l-11 -7q73 -30 132 -78t101 -109.5t64.5 -134t22.5 -151.5q0 -103 -40.5 -195.5t-109.5 -161.5t-161.5 -109.5t-195.5 -40.5q-104 0 -196.5 40t-162 109t-110 161t-40.5 197 q0 104 39.5 195.5t108 160.5t159.5 109.5t195 42.5v253zM1210 1572q174 -69 296 -198.5t182 -307.5v521h-473zM1204 1716h-243v-388h108zM661 1587h-521v-521q29 91 80 172.5t119 149t149.5 118.5t172.5 81zM140 560v-520h521q-92 30 -173.5 80.5t-149 117.5t-118 148.5 t-80.5 173.5zM1167 40h521v520q-30 -92 -81 -173t-118 -148.5t-149 -118t-173 -80.5zM914 1268q-93 0 -176 -36t-145 -98t-98 -145t-36 -175q0 -94 36 -176.5t98 -144.5t144.5 -98t176.5 -36q93 0 176 36t145 98t98 145t36 176q0 94 -35.5 177t-97 144.5t-144.5 97 t-178 35.5z" />
<glyph unicode="&#xd4;" d="M127 1614h448l13 20l315 135h21l316 -135l13 -20h448l14 -14v-639q0 -11 2.5 -24t4.5 -24q6 -50 6 -100q0 -48 -6 -96q-1 -12 -4 -25.5t-3 -25.5v-639l-14 -14h-640q-12 0 -25.5 -3t-25.5 -4q-48 -6 -96 -6q-51 0 -100 6q-11 2 -24 4.5t-24 2.5h-639l-14 14v639 q0 11 -3 23.5t-4 23.5q-6 49 -6 100q0 53 6 104q2 11 4.5 22.5t2.5 21.5v639zM1256 1587l1 -31q73 -34 137.5 -78.5t121 -111t101 -141.5t71.5 -159v521h-432zM1256 1493v-108l-37 -24l-305 131l-305 -131l-37 24v108q-95 -49 -172.5 -121t-132.5 -160.5t-84.5 -190 t-29.5 -208.5q0 -106 27 -203t76.5 -181.5t119 -153.5t154 -118.5t182 -76.5t202.5 -27t202 27t182 76.5t154 119t119 154t77 181.5t27 202q0 108 -30 209t-84.5 189.5t-132 160.5t-172.5 121zM572 1552v35h-432v-521q52 164 164.5 288.5t267.5 197.5zM914 1716l-289 -124 v-166l278 120h21l279 -120v166zM1688 560q-30 -92 -81 -173t-118 -148.5t-149 -118t-173 -80.5h521v520zM661 40q-92 30 -173.5 80.5t-149 117.5t-118 148.5t-80.5 173.5v-520h521zM915 1321q103 0 195.5 -40.5t161.5 -110t109.5 -161.5t40.5 -196t-40.5 -196t-109.5 -161 t-161.5 -109.5t-195.5 -40.5q-104 0 -196.5 40t-162 109t-110 161t-40.5 197t40.5 197t109.5 161t161.5 109.5t197.5 40.5zM914 1268q-93 0 -176 -36t-145 -98t-98 -145t-36 -175q0 -94 36 -176.5t98 -144.5t144.5 -98t176.5 -36q93 0 176 36t145 98t98 145t36 176 q0 94 -35.5 177t-97 144.5t-144.5 97t-178 35.5z" />
<glyph unicode="&#xd5;" horiz-adv-x="1827" d="M1188 1614q7 9 17 26.5t19.5 37t18.5 38.5t15 30l50 -13v-119h393l13 -14v-639q0 -11 3 -23.5t4 -23.5q6 -50 6 -101t-6 -100q-1 -11 -4 -23.5t-3 -23.5v-639l-13 -14h-640q-12 0 -25.5 -3t-25.5 -4q-48 -6 -97 -6q-48 0 -96 6q-12 1 -25.5 4t-25.5 3h-639l-13 14v639 q0 11 -3 25t-5 25q-6 48 -6 97q0 48 6 98q2 11 5 25t3 25v639l13 14h392v107l10 20q34 27 73 43.5t83 16.5q45 0 88.5 -17.5t85 -44t78.5 -58t68 -59.5q14 -1 28 -4.5t27 -3.5h128zM1219 1219q48 -36 85 -81.5t63.5 -97.5t40 -109.5t13.5 -117.5q0 -104 -40.5 -196.5 t-110 -161.5t-162 -109.5t-195.5 -40.5q-104 0 -196.5 40.5t-161.5 109.5t-109.5 161.5t-40.5 196.5q0 102 38.5 193t105 160t156 110.5t191.5 44.5q-11 9 -37 31.5t-55 45.5t-55 41t-36 18q-16 0 -29.5 -9.5t-24.5 -23t-19.5 -29t-14.5 -26.5q-14 -26 -28 -53l-28 -54 l-50 12v189q-85 -52 -152.5 -122.5t-115 -154.5t-72.5 -178.5t-25 -194.5q0 -106 27 -203t76 -181.5t118 -153.5t153.5 -118.5t182 -76.5t202.5 -27t202 27t182 76.5t154 119t119 154t77 181.5t27 202q0 100 -25.5 194.5t-73 178t-115 154t-152.5 123.5v-177l-10 -21 q-18 -14 -37.5 -26t-41.5 -20zM972 1264q-14 2 -29 3t-30 1q-93 0 -175.5 -36t-145 -98.5t-98.5 -145t-36 -175.5t36 -176t98 -145t145 -98t176 -36t176 36t145 98t98 145t36 176q0 60 -15.5 117.5t-44.5 108.5t-70.5 93.5t-93.5 72.5q-47 0 -90.5 17t-81.5 42zM572 1383 q8 20 22 42.5t33 41t41 31t46 12.5q27 0 57.5 -18.5t63.5 -46.5t69 -60.5t74.5 -60.5t79 -46.5t83.5 -18.5q63 0 114 40v325q-12 -20 -25 -42t-29.5 -41t-37 -31.5t-47.5 -12.5q-30 0 -61 18.5t-64.5 46.5t-69.5 60.5t-74 60.5t-78.5 46.5t-83.5 18.5q-31 0 -60 -10.5 t-53 -29.5v-325zM1166 40h521v520q-30 -92 -81 -173.5t-118 -148.5t-149 -117.5t-173 -80.5zM140 560v-520h521q-92 30 -174 80.5t-149 117.5t-117.5 148.5t-80.5 173.5zM1687 1066v521h-379v-62q137 -76 233 -193.5t146 -265.5zM519 1587h-379v-521q48 148 145 266t234 193 v62z" />
<glyph unicode="&#xd6;" d="M127 1614h86q34 13 68 13q33 0 68 -13h418q67 13 147 13q77 0 147 -13h418q34 13 68 13q33 0 68 -13h86l14 -14v-86q13 -35 13 -68q0 -34 -13 -68v-417q13 -78 13 -148q0 -69 -13 -147v-639l-14 -14h-640q-78 -13 -147 -13q-70 0 -148 13h-639l-14 14v639q-13 69 -13 147 t13 148v417q-13 34 -13 68q0 33 13 68v86zM1367 1424q-96 71 -209 110q-117 40 -244 40q-129 0 -245 -40q-114 -39 -209 -110q-8 -62 -52 -106q-45 -45 -105 -52q-72 -96 -110 -209q-40 -117 -40 -244q0 -158 59.5 -296.5t163.5 -241.5q103 -103 241.5 -162.5t296.5 -59.5 q157 0 295.5 59.5t242.5 162.5q102 103 162.5 241.5t60.5 296.5q0 122 -40 244q-39 113 -110 209q-62 7 -106 52q-45 44 -52 106zM914 1321q210 0 359 -149t149 -359t-149 -359t-359 -149q-211 0 -360 149t-149 359t149 359t360 149zM1236 1135q-135 133 -322 133 q-189 0 -323 -133q-133 -133 -133 -322q0 -188 133 -322q134 -133 323 -133q187 0 322 133q133 134 133 322q0 189 -133 322zM1167 40h521v520q-61 -185 -199 -322q-136 -138 -322 -198zM140 560v-520h521q-186 60 -323 198q-139 138 -198 322zM1547 1317q52 0 90 38t38 91 q0 52 -38 90t-90 38t-90 -38q-38 -37 -38 -90q0 -55 38 -91q38 -38 90 -38zM281 1317q52 0 90 38t38 91q0 52 -38 90t-90 38t-90 -38t-38 -90q0 -53 38 -91t90 -38zM1688 1066v267q-4 -6 -13 -15q-40 -38 -87 -48q61 -92 97 -195zM661 1587h-266q5 -4 14 -13q36 -38 47 -87 q91 62 197 97q6 2 8 3zM1433 1587h-267l4 -2q2 -1 5 -1q104 -35 196 -97q10 51 48 87q9 9 14 13zM140 1333v-267l3 9q37 108 97 195q-50 10 -87 48q-9 9 -13 15zM1688 1587h-28q10 -8 15 -13q5 -4 13 -14v27zM168 1587h-28v-27q8 10 13 14q9 9 15 13z" />
<glyph unicode="&#xd7;" horiz-adv-x="714" d="M376 647l99 -99l71 71l-99 99v38l99 99l-71 71l-99 -99h-38l-99 99l-71 -71l99 -99v-38l-99 -99l71 -71l99 99h38zM127 653l84 84l-84 84v-168zM587 1587h-460v-698l93 93h38l99 -99l99 99h38l93 -93v698zM587 821l-84 -84l84 -84v168zM220 492l-93 93v-545h460v545 l-93 -93h-38l-99 99l-99 -99h-38zM100 27v1573l13 14h488l13 -14v-1573l-13 -14h-488z" />
<glyph unicode="&#xd8;" d="M127 1614h639q10 0 22 2.5t22 4.5q52 6 104 6q50 0 101 -6q11 -1 23 -4t23 -3h407l8 8h37l9 -8h179l14 -14v-179l8 -8v-38l-8 -8v-407q0 -11 3 -24.5t4 -24.5q6 -50 6 -98t-6 -96q-1 -12 -4 -25.5t-3 -25.5v-639l-14 -14h-640q-12 0 -25.5 -3t-25.5 -4q-48 -6 -96 -6 q-49 0 -98 6q-11 1 -24.5 4t-24.5 3h-407l-8 -8h-38l-8 8h-179l-14 14v179l-8 8v37l8 8v407q0 11 -3 23.5t-4 23.5q-6 49 -6 100q0 53 6 104q2 11 4.5 22.5t2.5 21.5v639zM1166 1587q50 -16 96 -38.5t91 -49.5l88 88h-275zM1548 1587l140 -140v140h-140zM1688 1340l-88 -88 q27 -45 49.5 -91t38.5 -95v274zM1688 560q-30 -92 -81 -173t-118 -148.5t-149 -118t-173 -80.5h521v520zM662 40q-100 34 -187 87l-88 -87h275zM280 40l-140 139v-139h140zM140 286l88 89q-57 89 -88 186v-275zM140 1066q29 91 80 172.5t119 149t149.5 118.5t172.5 81h-521 v-521zM914 1574q-105 0 -202 -27t-182 -77t-154 -119t-119 -154t-77 -182t-27 -202q0 -114 33.5 -223.5t97.5 -203.5l-3 -34l-119 -120l171 -170l120 119l34 3q94 -66 203 -98.5t224 -32.5q105 0 202 27t182 76.5t154 119t119 154t77 181.5t27 202q0 116 -33.5 223.5 t-98.5 203.5l4 34l119 120l-171 171l-120 -119l-34 -3q-96 64 -204 97.5t-223 33.5zM1335 987l-595 -595q41 -18 85 -26t89 -8q93 0 176 36t145 98t98 145t36 176q0 45 -8.5 88.5t-25.5 85.5zM676 403l648 649l42 -7q27 -55 41.5 -112.5t14.5 -119.5q0 -104 -40.5 -196.5 t-109.5 -161.5t-161.5 -109.5t-196.5 -40.5q-62 0 -119.5 13.5t-112.5 42.5zM493 639l595 595q-42 16 -85.5 25t-88.5 9q-93 0 -176.5 -36t-145.5 -98t-98 -145t-36 -176q0 -44 8 -88.5t27 -85.5zM1152 1222l-648 -648l-43 6q-56 109 -56 232q0 105 40.5 197.5t109.5 161.5 t161.5 109.5t197.5 40.5q61 0 119.5 -14.5t112.5 -41.5z" />
<glyph unicode="&#xd9;" horiz-adv-x="1510" d="M756 53q94 0 182 28.5t162 80t130.5 124.5t89.5 162q17 45 27 94t10 97v935h-243v-937q0 -71 -30.5 -133.5t-80.5 -109t-114.5 -73.5t-133.5 -27q-60 0 -115.5 19.5t-101.5 54.5t-79.5 83t-49.5 106q-4 16 -8.5 39.5t-4.5 40.5v937h-242l1 -935q0 -123 48.5 -229.5 t131 -186t191.5 -125t230 -45.5zM527 40q-68 24 -127.5 62.5t-108.5 88.5t-87.5 110t-62.5 127v-388h386zM1370 428q-24 -67 -62.5 -127t-88 -110t-109.5 -88.5t-127 -62.5h387v388zM734 1329h107v387h-242zM894 1302l-27 -27h-153l-25 18l-102 294h-138v-949 q0 -60 26.5 -112.5t69.5 -92.5t98 -63t112 -23t112 23t98 63t69.5 92.5t26.5 112.5v949h-167v-285zM536 1734l25 35h306l27 -27v-128h179l13 13h297l27 -27v-962q0 -20 -2.5 -41.5t-5.5 -41.5q-1 -8 -3 -16.5t-2 -16.5v-495l-14 -14h-493q-10 0 -21.5 -3t-22.5 -5 q-23 -3 -45.5 -4t-45.5 -1t-45 1t-45 4q-11 2 -23 5t-22 3h-493l-14 14v495q0 8 -2 17t-3 17q-3 20 -5 41t-3 41h1v962l26 27h296l13 -13h142z" />
<glyph unicode="&#xda;" horiz-adv-x="1510" d="M931 1614h142l13 13h296l27 -27v-962q0 -20 -2.5 -41t-5.5 -41q-1 -8 -3 -17t-2 -17v-495l-14 -14h-493q-10 0 -22 -3t-23 -5q-23 -3 -45 -4t-44 -1q-23 0 -45.5 1t-45.5 4q-11 2 -22.5 5t-21.5 3h-493l-14 14v495q0 8 -2 16.5t-3 16.5q-3 20 -5.5 41.5t-2.5 41.5v962 l27 27h296l13 -13h179v128l27 27h306l25 -35zM615 1587h-166v-949q0 -60 26.5 -112.5t69.5 -92.5t98 -63t112 -23t112 23t98 63t69.5 92.5t26.5 112.5v949h-138l-103 -294l-25 -18h-153l-27 27v285zM910 1716h-242v-387h107zM140 428v-388h387q-67 24 -127 62.5t-109.5 88.5 t-88 110t-62.5 127zM983 40h387v388q-24 -67 -62.5 -127t-88 -110t-109.5 -88.5t-127 -62.5zM1357 1574h-243v-937q0 -17 -4.5 -40.5t-8.5 -39.5q-17 -58 -50.5 -106t-79 -83t-101 -54.5t-115.5 -19.5q-69 0 -133.5 27t-114.5 73.5t-80.5 109t-30.5 133.5v937h-243v-935 q0 -48 10 -97t27 -94q33 -89 89.5 -162t130.5 -124.5t162 -80t183 -28.5q121 0 230 45.5t191.5 125t131 186t48.5 229.5z" />
<glyph unicode="&#xdb;" horiz-adv-x="1510" d="M1085 1626h297l27 -26v-962q0 -20 -2.5 -41t-5.5 -41q-1 -8 -3 -17t-2 -17v-495l-14 -14h-493q-10 0 -22 -3t-23 -5q-23 -3 -45 -4t-44 -1q-23 0 -45.5 1t-45.5 4q-11 2 -22.5 5t-21.5 3h-493l-14 14v495q0 8 -2 16.5t-3 16.5q-3 20 -5.5 41.5t-2.5 41.5v962l27 27h297 l5 7l315 135h21l315 -135zM1061 1361l-306 131l-306 -131v-723q0 -60 26.5 -112.5t69.5 -92.5t98 -63t112 -23t112 23t98 63t69.5 92.5t26.5 112.5v723zM755 1716l-289 -124v-166l278 120h21l278 -120v166zM1370 428q-24 -67 -62.5 -127t-88 -110t-110 -88.5t-127.5 -62.5 h388v388zM527 40q-67 24 -127 62.5t-109.5 88.5t-88 110t-62.5 127v-388h387zM1357 1574h-243v-937q0 -17 -4.5 -40.5t-8.5 -39.5q-17 -58 -50.5 -106t-79 -83t-101 -54.5t-115.5 -19.5q-69 0 -133.5 27t-114.5 73.5t-80.5 109t-30.5 133.5v937h-243v-935q0 -48 10 -97 t27 -94q33 -89 89.5 -162t130.5 -124.5t162 -80t183 -28.5q121 0 230 45.5t191.5 125t131 186t48.5 229.5z" />
<glyph unicode="&#xdc;" horiz-adv-x="1510" d="M1161 1614q32 13 68 13t68 -13h86l14 -14v-86q13 -32 13 -68t-13 -68v-83l13 -13v-644q0 -21 -2.5 -43t-5.5 -43q-2 -7 -3.5 -15t-1.5 -15v-495l-14 -14h-493q-10 0 -21 -3t-21 -4q-47 -6 -93 -6q-23 0 -47 1t-47 5q-10 1 -21 4t-20 3h-493l-14 14v495q0 8 -2 17.5 t-4 17.5q-3 20 -5 40.5t-2 40.5v644l13 13v83q-13 32 -13 68t13 68v86l14 14h86q32 13 68 13t68 -13h812zM1111 1308q-32 23 -47.5 61t-15.5 77q0 41 16.5 79t50.5 62h-720q33 -29 50 -62t17 -79q0 -44 -16 -76.5t-47 -61.5h24l26 -26v-644q0 -60 26.5 -112.5t69.5 -92.5 t98 -63t112 -23t112 23t98 63t69.5 92.5t26.5 112.5v644l26 26h24zM1357 1255h-243q0 -155 0.5 -309t-0.5 -309q0 -17 -4 -40.5t-9 -39.5q-17 -58 -50.5 -106t-79 -83t-101 -54.5t-115.5 -19.5q-69 0 -133.5 27t-114.5 73.5t-80.5 109t-30.5 133.5q-1 155 -0.5 309t0.5 309 h-243v-616q0 -48 10 -97t27 -94q33 -89 89.5 -162t130.5 -124.5t162 -80t183 -28.5q245 0 420 170q86 84 133 189.5t48 226.5q1 155 1 308v308zM1370 428q-24 -67 -62.5 -127t-88 -110t-109.5 -88.5t-127 -62.5h387v388zM527 40q-67 24 -127 62.5t-109.5 88.5t-88 110 t-62.5 127v-388h387zM281 1318q25 0 48.5 10.5t41 28t28 40.5t10.5 49q0 25 -10.5 48.5t-28 41t-41 28t-48.5 10.5q-26 0 -49 -10.5t-40.5 -28t-28 -41t-10.5 -48.5q0 -26 10.5 -49t28 -40.5t40.5 -28t49 -10.5zM1229 1318q25 0 48.5 10.5t41 28t28 40.5t10.5 49 q0 25 -10.5 48.5t-28 41t-41 28t-48.5 10.5q-26 0 -49 -10.5t-40.5 -28t-28 -41t-10.5 -48.5q0 -26 10.5 -49t28 -40.5t40.5 -28t49 -10.5zM1342 1587q8 -6 14.5 -12.5t13.5 -14.5v27h-28zM140 1560q6 8 13 14.5t15 12.5h-28v-27zM1347 1308h23v25l1 2q-7 -7 -12 -14 t-12 -13zM163 1308q-7 5 -13 11.5t-10 13.5v-25h23z" />
<glyph unicode="&#xdd;" horiz-adv-x="1449" d="M899 481v-441h412v1457zM612 1759l307 -1l25 -36l-39 -108h61l20 13h338l25 -36l-11 -28v-1536l-14 -14h-438l-14 -13h-295l-14 13h-438l-14 14v1536l-11 28l25 36h338l20 -13h102v118zM896 1587l-106 -304l-25 -18h-138l98 -239l227 561h-56zM585 1370v217h-88zM550 40 v441l-412 1016v-1457h412zM846 53v433l2 10l437 1078h-281l-255 -628h-49l-255 628h-281l437 -1078l2 -10v-433h243zM880 1705h-242v-387h107z" />
<glyph unicode="&#xde;" horiz-adv-x="1259" d="M1106 813q0 106 -41.5 201t-112.5 166t-166 112.5t-201 41.5h-162l-27 26v214h-243v-1521h243v213l27 26h162q106 0 201 41.5t166 112.5t112.5 165.5t41.5 201.5zM436 1614h696l14 -14v-663q0 -9 2.5 -20t4.5 -20q6 -42 6 -84t-6 -82q-1 -9 -4 -20.5t-3 -20.5v-663 l-14 -14h-696l-13 -13h-296l-27 27v1573l27 27h296zM1119 1587h-670v-200h136q89 0 171 -26t151.5 -73t124 -114.5t87.5 -149.5v563zM449 40h670v562q-33 -83 -87 -150.5t-123.5 -114.5t-151.5 -72.5t-172 -25.5h-136v-199zM585 1079q55 0 103.5 -21t85 -57.5t57.5 -85 t21 -102.5q0 -55 -21 -103.5t-57.5 -84.5t-85 -57t-103.5 -21h-162l-27 26v479l27 27h162zM585 1026h-136v-426h136q44 0 82.5 17t67.5 46t46 67.5t17 82.5q0 45 -16.5 83.5t-45.5 67.5t-67.5 45.5t-83.5 16.5z" />
<glyph unicode="&#xdf;" horiz-adv-x="1614" d="M127 1614h427q59 13 124 13h762l6 -13h42l13 -14v-898q13 -58 13 -124q0 -67 -13 -124v-427l-13 -14h-428q-65 -13 -124 -13q-61 0 -124 13h-382l-14 -13h-289l-27 27v1021q0 60 14 124v428zM936 53q218 0 371 153q154 155 154 372q0 186 -117 331q-119 144 -301 183 l-15 43l356 439h-706q-219 0 -371 -155q-76 -76 -114 -170q-40 -95 -40 -202v-995h237v995q0 58 22 111q21 52 62 93t94 63q55 22 110 22h167l21 -44l-268 -325l154 -167q78 66 184 66q119 0 203 -84q85 -84 85 -204q0 -121 -85 -204q-84 -84 -203 -84q-60 0 -111 21 q-40 17 -73 45l-168 -168q149 -135 352 -135zM724 40q-115 46 -198 129v37l206 206h37q35 -36 77 -51q40 -18 90 -18q97 0 166 69t69 166t-69 166t-166 69q-98 0 -167 -69h-37l-183 206l-2 35l242 298h-111q-46 0 -90 -17q-42 -18 -76 -51q-34 -34 -51 -76q-18 -44 -18 -91 v-1008h281zM1459 1587l1 -3l-365 -450q173 -50 290 -191q55 -69 89 -153v797h-15zM139 1260q1 2 4 10q45 105 126 188q85 85 197 129h-327v-327zM1345 169q-83 -83 -198 -129h327v326q-43 -111 -129 -197z" />
<glyph unicode="&#xe0;" horiz-adv-x="1824" d="M937 1221l242 -608l-25 -37h-484l-25 37l242 608h50zM1115 629l-203 510l-203 -510h406zM1236 327h-648l-114 -287h877zM1686 131v1456h-580zM777 1329h108v387h-242zM631 1587h-493v-1456l534 1339zM938 1302l-27 -27h-153l-26 18l-34 101l-535 -1341h258l124 310l24 17 h684l25 -17l123 -310h258l-606 1521h-115v-272zM579 1734l25 35h307l27 -27v-115h133l19 -13h608l14 -14v-1535l11 -28l-25 -37h-315l-19 13h-906l-19 -13h-315l-25 37l11 28v1535l14 14h497z" />
<glyph unicode="&#xe1;" horiz-adv-x="1824" d="M1202 1614h497l14 -14v-1535l11 -28l-25 -37h-315l-19 13h-906l-19 -13h-315l-25 37l11 28v1535l14 14h608l19 13h133v115l27 27h307l25 -35zM885 1574h-115l-606 -1521h258l123 310l25 17h684l24 -17l124 -310h258l-535 1341l-34 -101l-26 -18h-153l-27 27v272z M1152 1470l534 -1339v1456h-493zM1180 1716h-242v-387h108zM718 1587h-580v-1456zM473 40h877l-114 287h-648zM1115 629l-203 510l-203 -510h406zM937 1221l242 -592l-25 -53h-484l-25 37l242 608h50z" />
<glyph unicode="&#xe2;" horiz-adv-x="1824" d="M586 1634l315 135h21l316 -135l13 -20h448l14 -14v-1535l11 -28l-25 -37h-315l-19 13h-906l-19 -13h-315l-25 37l11 28v1535l14 14h448zM1254 1587v-202l-37 -24l-26 11l495 -1241v1456h-432zM1350 40l-114 287h-648l-115 -287h877zM138 131l495 1241l-26 -11l-37 24v202 h-432v-1456zM1122 1402l-210 90l-210 -90l-538 -1349h258l123 310l25 17h684l24 -17l124 -310h258zM1115 629l-203 510l-203 -510h406zM937 1221l242 -592l-25 -53h-484l-25 37l242 608h50zM912 1716l-289 -124v-166l278 120h21l279 -120v166z" />
<glyph unicode="&#xe3;" horiz-adv-x="1823" d="M997 1627h74l19 -13h96q20 32 36.5 65.5t33.5 66.5l50 -13v-119h393l13 -14v-1535l11 -28l-24 -37h-315l-20 13h-906l-19 -13h-314l-25 37l12 28v1535l13 14h392v108l10 20q34 27 73 43.5t83 16.5q43 0 86 -17t83.5 -43.5t77 -57t67.5 -57.5zM1659 53l-462 1160 q-15 -5 -30 -6.5t-31 -1.5q-48 0 -93.5 19t-88.5 48t-81 63.5t-71 64.5q-16 14 -37.5 31.5t-42.5 23.5l-558 -1402h257l124 310l25 17h683l25 -17l124 -310h257zM138 131l510 1280q-24 -33 -43 -73t-38 -76l-50 12v313h-379v-1456zM1306 1587v-301l-10 -21l-24 -18 q-12 -9 -26 -15l439 -1101v1456h-379zM1350 40l-115 287h-648l-114 -287h877zM936 1221l242 -592l-24 -53h-485l-25 37l243 608h49zM570 1383q10 19 23.5 41.5t31 41.5t39 31.5t46.5 12.5q28 0 58.5 -18.5t64 -46.5t69.5 -61t74.5 -61t79.5 -46.5t84 -18.5q32 0 60 11t53 29 v326q-10 -19 -23.5 -41.5t-31 -41.5t-38.5 -31.5t-46 -12.5q-24 0 -47 11t-44 26.5t-40 33.5t-36 33q-22 19 -54 45t-68 49.5t-72.5 39.5t-66.5 16q-32 0 -61 -12.5t-55 -30.5v-325zM1114 629l-203 510l-203 -510h406zM1105 1587l14 -36q16 2 28 13.5t21 22.5h-63z" />
<glyph unicode="&#xe4;" d="M1479 1614q32 13 68 13t68 -13h86l14 -14v-86q13 -32 13 -68t-13 -68v-1313l11 -28l-25 -37h-315l-19 13h-906l-19 -13h-315l-25 37l11 28v1313q-13 32 -13 68t13 68v86l14 14h86q32 13 68 13t68 -13h386l19 13h319l20 -13h386zM1056 1574h-284l-606 -1521h258l123 310 l25 17h684l24 -17l124 -310h258zM1547 1265q-37 0 -70 14.5t-57.5 39t-39 57.5t-14.5 70q0 45 17.5 78.5t49.5 62.5h-326l581 -1456v1202q-24 -33 -62.5 -50.5t-78.5 -17.5zM281 1265q-42 0 -78.5 17.5t-62.5 50.5v-1202l580 1456h-325q33 -31 50 -62.5t17 -78.5 q0 -38 -14 -71t-38.5 -57.5t-57.5 -38.5t-71 -14zM1352 40l-114 287h-648l-114 -287h876zM939 1221l242 -608l-25 -37h-484l-25 37l242 608h50zM914 1139l-203 -510h406zM1547 1318q25 0 48.5 10.5t41 28t28 40.5t10.5 49q0 25 -10.5 48.5t-28 41t-41 28t-48.5 10.5 q-26 0 -49 -10.5t-40.5 -28t-28 -41t-10.5 -48.5q0 -26 10.5 -49t28 -40.5t40.5 -28t49 -10.5zM281 1318q25 0 48.5 10.5t41 28t28 40.5t10.5 49q0 25 -10.5 48.5t-28 41t-41 28t-48.5 10.5q-26 0 -49 -10.5t-40.5 -28t-28 -41t-10.5 -48.5q0 -26 10.5 -49t28 -40.5 t40.5 -28t49 -10.5zM140 1560q6 8 13 14.5t15 12.5h-28v-27zM1660 1587l15 -12q5 -4 13 -15v27h-28z" />
<glyph unicode="&#xe5;" horiz-adv-x="1821" d="M123 1614h687q5 0 14 3t15 4q36 6 72 6q34 0 69 -6q6 -1 16 -4t15 -3h687l13 -14v-1542l10 -19l-23 -39h-315l-22 13h-900l-23 -13h-315l-23 39l10 19v1542zM1653 53l-503 936l3 30q44 46 66 103.5t22 120.5q0 67 -26.5 127t-71.5 105.5t-105 72t-127 26.5 q-68 0 -128 -26.5t-105 -71.5t-71.5 -105.5t-26.5 -127.5q0 -62 22 -120.5t66 -103.5l4 -30l-504 -936h254l169 313l24 14h592l23 -14l169 -313h254zM1205 998l480 -891v1480h-604q50 -25 89.5 -61t67 -80.5t42 -95.5t14.5 -107q0 -66 -22.5 -130t-66.5 -115zM137 107 l479 891q-45 51 -67 114t-22 131q0 115 56 203t157 141h-603v-1480zM1346 40l-155 287h-561l-154 -287h870zM911 1408q34 0 64 -13.5t52.5 -36t35.5 -52.5t13 -63q0 -34 -13 -64t-35.5 -52.5t-52.5 -35.5t-64 -13t-64 13t-52.5 35.5t-36 52.5t-13.5 64q0 33 13.5 63t36 52.5 t52.5 36t64 13.5zM943 899l153 -270l-23 -53h-324l-24 39l153 284l24 14h17zM911 1355q-24 0 -44.5 -9t-35.5 -24t-24 -35.5t-9 -43.5t9 -43.5t24 -35.5t35.5 -24t44.5 -9q23 0 43.5 9t35.5 24t24 35.5t9 43.5q0 48 -32 80t-80 32zM1028 629l-117 218l-119 -218h236z" />
<glyph unicode="&#xe6;" horiz-adv-x="1929" d="M125 1614h608l19 13h1051l26 -27v-307l-13 -13v-933l13 -14v-306l-26 -27h-751l-14 13h-579l-19 -13h-315l-25 37l11 28v1535zM1789 1266h-415v-273h239l27 -27v-307l-27 -26h-239v-273h415v906zM1025 40v290l-437 -3l-115 -287h552zM138 131l580 1456h-580v-1456z M1776 1574h-1006l-606 -1521h258l123 310l25 17h482l26 -27v-300h698v254h-428l-27 26v326l27 27h239v254h-239l-27 27v325l27 27h428v255zM1025 1265h-60l-256 -636h316v636zM954 1319h92l32 -28v-688l-26 -27h-382l-25 37l284 679z" />
<glyph unicode="&#xe7;" horiz-adv-x="1596" d="M1461 40l26 126v-139l-13 -14h-413q-14 0 -31.5 -3t-31.5 -6q-6 -37 -23 -69t-42.5 -55t-59 -36.5t-71.5 -13.5t-75 15.5t-64 42.5v37l75 75h-106l-14 13h-488l-13 14v621q0 12 -3.5 26.5t-5.5 26.5q-4 28 -6 55.5t-2 56.5t2 56.5t6 55.5q2 12 5.5 26.5t3.5 26.5v622 l13 14h636q11 0 25 3t26 5q24 2 48.5 3.5t48.5 1.5t48.5 -1t48.5 -4q12 -2 25.5 -5t24.5 -3h413l13 -14v-209l9 -9v-38l-9 -9v-1058l2 -2v-37l-2 -3v-32q-74 -48 -150 -89q-81 -44 -171 -74h295zM1461 304v1005l-184 -178h-37q-66 66 -149 101.5t-177 35.5q-93 0 -176 -36 t-145 -98t-98 -145t-36 -176q0 -101 37.5 -184.5t102 -143.5t151 -93t184.5 -33q84 0 163 37.5t139 94.5h37zM754 330q-77 25 -141 73t-110 112t-71.5 140t-25.5 157q0 105 40.5 197.5t109.5 161.5t161.5 109.5t197.5 40.5q97 0 185.5 -35t159.5 -100l180 176 q-106 101 -242.5 156.5t-282.5 55.5q-105 0 -202 -27t-182 -77.5t-154 -119.5t-119 -154t-77 -182t-27 -202q0 -114 34 -222t95.5 -200.5t148.5 -165t193 -115.5q29 57 62.5 112t66.5 109zM996 58q253 27 437 199l-179 178q-59 -53 -131.5 -86t-151.5 -41q-18 -28 -36.5 -55 t-37.5 -54q39 -26 65 -60t34 -81zM143 1076q31 90 82 170t117.5 146t147.5 116t171 79h-518v-511zM606 40l2 20q-83 32 -155 81.5t-131.5 112.5t-104.5 138t-74 159v-511h463zM848 162l-13 40q17 26 34.5 52.5t36.5 52.5q-25 0 -49 3t-49 7q-8 -12 -21 -33t-28.5 -46.5 t-32 -52.5t-30.5 -52.5t-23.5 -46.5t-11.5 -33h75q8 20 26.5 32t39.5 12q28 0 49.5 -19.5t21.5 -48.5q0 -30 -20 -51.5t-51 -21.5q-12 0 -27 5l-54 -53q20 -11 39 -18t42 -7q29 0 55 11t46 30.5t31.5 45.5t11.5 55v5q-1 20 -8 40q-7 22 -20 40t-31 32t-39 20zM1461 1416v171 h-295q82 -27 156.5 -70t138.5 -101zM771 14h18q5 -5 13 -5t13 4.5t5 12.5t-5 13.5t-13 5.5q-10 0 -14 -7q-1 -2 -1.5 -2.5t-1.5 -2.5q-1 -1 -1 -2v-4zM1496 210q-5 -3 -9 -7v-37z" />
<glyph unicode="&#xe8;" horiz-adv-x="1231" d="M638 1716h-243l135 -388h108v388zM1118 1280v-933l13 -14v-306l-27 -27h-977l-27 27v1573l27 27h243l-37 107l25 35h307l26 -27v-115h413l27 -27v-307zM388 1574h-235v-1521h925v254h-655l-27 26v326l27 27h420v254h-420l-27 27v325l27 27h54zM691 1319h387v255h-387 v-255zM1091 360v906h-642v-273h420l27 -27v-307l-27 -26h-420v-273h642z" />
<glyph unicode="&#xe9;" horiz-adv-x="1231" d="M1118 1280v-933l13 -14v-306l-27 -27h-977l-27 27v1573l27 27h475v115l27 27h306l25 -35l-37 -107h181l27 -27v-307zM602 1574h-449v-1521h925v254h-655l-27 26v326l27 27h420v254h-420l-27 27v325l27 27h179v255zM816 1319h262v255h-173zM898 1716h-243v-388h108z M1091 360v906h-642v-273h420l27 -27v-307l-27 -26h-420v-273h642z" />
<glyph unicode="&#xea;" horiz-adv-x="1231" d="M946 1627h158l27 -27v-307l-13 -13v-933l13 -14v-306l-27 -27h-977l-27 27v1573l27 27h158l4 7l316 135h21l316 -135zM958 1574v-189l-37 -24l-305 131l-306 -131l-37 24v189h-120v-1521h925v254h-655l-27 26v326l27 27h420v254h-420l-27 27v325l27 27h655v255h-120z M616 1716l-290 -142v-148l278 120h22l278 -120v166zM1091 1266h-642v-273h420l27 -27v-307l-27 -26h-420v-273h642v906z" />
<glyph unicode="&#xeb;" horiz-adv-x="1239" d="M890 1614q32 13 68 13t68 -13h78l14 -14v-69q21 -39 21 -85t-21 -85v-55l13 -13v-307l-13 -13v-626l13 -14v-306l-27 -27h-977l-27 27v1266l13 14v71q-13 32 -13 68t13 68v86l14 14h86q32 13 68 13q37 0 69 -13h540zM153 1266v-1213h925v254h-655l-27 26v182l27 27h420 v254h-420l-27 27v162l27 27h655v254h-925zM1091 959h-642v-110h420l27 -26v-308l-27 -26h-420v-129h642v599zM828 1319q-51 52 -51 126q0 46 17.5 79.5t49.5 62.5h-449q33 -24 50 -62.5t17 -78.5q0 -36 -12.5 -68t-38.5 -58zM300 1319q23 0 43 12t34.5 30t23 40.5t8.5 43.5 q0 26 -10.5 49t-28 40.5t-40.5 28t-49 10.5t-49 -10.5t-40.5 -28t-28 -41t-10.5 -48.5q0 -21 8.5 -43t23.5 -40.5t34.5 -30.5t42.5 -12h38zM977 1319q22 0 42 12t35 30.5t23.5 41t8.5 42.5q0 25 -10.5 48.5t-28 41t-41 28t-48.5 10.5q-26 0 -49 -10.5t-40.5 -28t-28 -41 t-10.5 -48.5q0 -21 8.5 -43t23.5 -40.5t34.5 -30.5t42.5 -12h38zM155 1579q5 3 13 8h-28v-13q10 2 15 5zM1072 1587l14 -13q1 -4 5 -5v18h-19zM152 1319l-12 14v-14h12zM1091 1323l-3 -3h3v3z" />
<glyph unicode="&#xec;" horiz-adv-x="558" d="M297 1329h108v387h-243zM100 1734l25 35h306l27 -27v-1711l-27 -27h-296l-26 27v1574l26 26zM278 1275l-25 18l-91 261v-1497h243v1218h-127z" />
<glyph unicode="&#xed;" horiz-adv-x="558" d="M153 1275v-1218h243v1497l-91 -261l-25 -18h-127zM423 1631l26 -26v-1574l-26 -27h-296l-27 27v1711l27 27h306l25 -35zM396 1716h-243v-387h108z" />
<glyph unicode="&#xee;" horiz-adv-x="884" d="M320 1440v-1382h244v1382l-122 52zM771 1377v-1350l-13 -14h-159l-9 -9h-296l-9 9h-158l-14 14v1350l-13 8v224l16 25l316 135h21l315 -135l16 -25v-224zM745 40v1322l-128 55v-1377h128zM139 1362v-1322h128v1377zM442 1716l-289 -124v-166l279 120h21l278 -120v166z " />
<glyph unicode="&#xef;" horiz-adv-x="871" d="M309 53h253v1212h-253v-1212zM140 40h116v1227q-34 4 -65 21t-51 45v-1293zM615 40h116v1293l1 2q-5 -4 -7.5 -8t-6.5 -9q-8 -11 -20.5 -19.5t-26.5 -15t-28.5 -11t-27.5 -5.5v-1227zM461 1318q-8 8 -14 16t-12 17q-6 -9 -12 -17t-14 -16h52zM589 0h-307l-13 13h-142 l-14 14v1351q-13 32 -13 68t13 68v86l14 14h86q32 13 68 13t68 -13h172q32 13 69 13q36 0 68 -13h86l13 -14v-86q6 -17 10 -34t4 -34q0 -34 -14 -68v-1351l-13 -14h-142zM731 1560v27h-28q8 -6 14.5 -12.5t13.5 -14.5zM476 1587h-81q12 -11 22 -21.5t18 -24.5q8 13 18 25 t23 21zM168 1587h-28v-27q6 8 13 14.5t15 12.5zM281 1574q-26 0 -49 -10.5t-40.5 -28t-28 -41t-10.5 -48.5q0 -26 10.5 -49t28 -40.5t40.5 -28t49 -10.5q25 0 48.5 10.5t41 28t28 40.5t10.5 49t-10 49.5t-27.5 41t-41 27.5t-49.5 10zM462 1446q0 -26 10.5 -49t28 -40.5 t40.5 -28t49 -10.5t49 10.5t40.5 28t27.5 40.5t10 49q0 25 -10 48.5t-27.5 41t-40.5 28t-49 10.5t-49 -10.5t-40.5 -28t-28 -40.5t-10.5 -49z" />
<glyph unicode="&#xf0;" horiz-adv-x="1510" d="M1370 1614l13 -14v-580q0 -5 2 -14t4 -19l5 -19q3 -9 4 -15q12 -69 12 -140t-12 -140q-1 -6 -4 -16l-5 -19l-4 -18t-2 -14v-579l-13 -14h-626q-11 0 -23.5 -2.5t-23.5 -4.5q-51 -6 -101 -6h-469l-27 27v1573l27 27h469q52 0 105 -6q10 -2 21.5 -4.5t21.5 -2.5h626z M596 1574h-443v-1521h443q105 0 202 27t182 76.5t154 119t119 154t77 181.5t27 202q0 104 -27.5 201.5t-77 182t-119 154t-154 119t-181.5 77t-202 27.5zM790 940h-362l-26 27v327l26 27h151q121 0 213.5 -40.5t161.5 -110t109.5 -162t40.5 -195.5q0 -104 -40.5 -196.5 t-109.5 -161.5t-161.5 -109.5t-213.5 -40.5h-151l-26 26v328l26 27h362v254zM454 993h362l27 -27v-307l-27 -26h-362v-275h124q110 0 193 36t145.5 98t98.5 145t36 176t-36 176t-98.5 145t-145.5 98t-193 36h-124v-275zM849 1587q87 -29 164.5 -76.5t142.5 -109.5 t116 -137.5t85 -160.5v484h-508zM1357 523q-34 -86 -85 -161t-115.5 -137.5t-142 -109.5t-165.5 -75h508v483z" />
<glyph unicode="&#xf1;" horiz-adv-x="1652" d="M497 1383q10 20 24 42.5t31.5 41t39 31t46.5 12.5q28 0 58.5 -18.5t64 -46.5t69.5 -60.5t74 -60.5t79 -46.5t84 -18.5q31 0 60 10.5t53 29.5v325q-9 -20 -22.5 -42.5t-31 -41t-39 -31t-46.5 -12.5q-30 0 -61 18.5t-64.5 46.5t-69 60.5t-73.5 60.5t-78.5 46.5t-84.5 18.5 q-31 0 -60 -10.5t-53 -29.5v-325zM1184 13h-687q-11 0 -26 -6.5t-26 -6.5h-318l-27 27v1573l27 27h317v94l10 20q34 27 73 43.5t83 16.5q46 0 91 -18.5t87 -46.5t80.5 -61t71.5 -61h174l69 132l50 -13v-106h293l26 -27v-1573l-26 -27h-319q-2 2 -12 6.5t-11 6.5zM472 40h693 l-693 978v-978zM1096 1587h-126q14 -11 33.5 -24t38.5 -13q17 0 30.5 12t23.5 25zM595 1435l585 -829v630q-26 -14 -54.5 -22t-57.5 -8q-48 0 -93 18.5t-87 46.5t-79.5 60.5t-69.5 60.5t-57.5 46.5t-42.5 18.5q-13 0 -24 -6.5t-20 -15.5zM1499 1574h-266v-1136l-671 952 q-19 -31 -35 -63.5t-33 -64.5l-50 12v282l-12 18h-279v-1521h266v1128l801 -1128h279v1521z" />
<glyph unicode="&#xf2;" d="M459 813q0 -93 36 -176t98 -145t145 -98t176 -36q94 0 176.5 36t144.5 98t98 144.5t36 176.5q0 93 -36 176t-98 145t-145 98t-176 36q-95 0 -178 -35.5t-144.5 -97t-97 -144.5t-35.5 -178zM661 40q-92 30 -173.5 80.5t-148.5 118t-118 148.5t-81 173v-520h521zM1688 560 q-29 -92 -80 -173t-118.5 -148.5t-149.5 -118t-173 -80.5h521v520zM1167 1587q91 -30 172.5 -81t149.5 -118.5t119 -149t80 -172.5v521h-521zM759 1328h108v388h-243zM613 1587h-473v-521q60 178 182 307.5t296 198.5zM920 1321q104 -2 195 -42.5t159.5 -109.5t108 -161 t39.5 -195q0 -104 -40.5 -196.5t-110 -161.5t-162 -109.5t-195.5 -40.5q-104 0 -196.5 40.5t-161.5 109.5t-109.5 161.5t-40.5 196.5q0 79 22.5 151.5t64.5 134t101 109.5t132 78l-11 7l-79 228q-108 -42 -196.5 -114.5t-152.5 -166t-99 -203t-35 -224.5q0 -105 27 -202 t77 -181.5t119 -154t154 -119t182 -76.5t202 -27t202 27t182 76.5t154 119t119 154t77 181.5t27 202q0 104 -27 201t-76 181t-118 153.5t-153 119t-180.5 77.5t-200.5 29v-253zM562 1734l25 35h307l26 -27v-115q46 0 93 -6q12 -1 25 -4t24 -3h639l14 -14v-639 q0 -10 2.5 -21.5t4.5 -22.5q6 -51 6 -104q0 -52 -6 -103q-2 -10 -4.5 -22t-2.5 -22v-639l-14 -14h-639q-11 0 -24 -2.5t-24 -4.5q-50 -6 -100 -6t-99 6q-11 2 -24 4.5t-24 2.5h-640l-14 14v639q0 11 -2.5 24t-4.5 24q-6 49 -6 99t6 100q2 11 4.5 24t2.5 24v639l14 14h477z " />
<glyph unicode="&#xf3;" d="M1224 1614h477l14 -14v-639q0 -11 2.5 -24t4.5 -24q6 -50 6 -100t-6 -99q-2 -11 -4.5 -24t-2.5 -24v-639l-14 -14h-640q-11 0 -24 -2.5t-24 -4.5q-50 -6 -99 -6q-51 0 -100 6q-11 2 -24 4.5t-24 2.5h-639l-14 14v639q0 10 -2.5 22t-4.5 22q-6 51 -6 103q0 53 6 104 q2 11 4.5 22.5t2.5 21.5v639l14 14h639q11 0 24 3t25 4q46 6 93 6v115l26 27h307l25 -35zM908 1574q-105 -2 -201.5 -30t-180 -77.5t-152.5 -118.5t-118 -153t-76 -180.5t-27 -201.5q0 -106 27 -203t76.5 -181.5t119 -153.5t154 -118.5t182 -76.5t202.5 -27t202 27t182 76.5 t154 119t119 154t77 181.5t27 202q0 115 -35 224.5t-99 203t-152.5 166t-196.5 114.5l-79 -228l-11 -7q73 -30 132 -78t101 -109.5t64.5 -134t22.5 -151.5q0 -103 -40.5 -195.5t-109.5 -161.5t-161.5 -109.5t-195.5 -40.5q-104 0 -196.5 40t-162 109t-110 161t-40.5 197 q0 104 39.5 195.5t108 160.5t159.5 109.5t195 42.5v253zM1210 1572q174 -69 296 -198.5t182 -307.5v521h-473zM1204 1716h-243v-388h108zM661 1587h-521v-521q29 91 80 172.5t119 149t149.5 118.5t172.5 81zM140 560v-520h521q-92 30 -173.5 80.5t-149 117.5t-118 148.5 t-80.5 173.5zM1167 40h521v520q-30 -92 -81 -173t-118 -148.5t-149 -118t-173 -80.5zM914 1268q-93 0 -176 -36t-145 -98t-98 -145t-36 -175q0 -94 36 -176.5t98 -144.5t144.5 -98t176.5 -36q93 0 176 36t145 98t98 145t36 176q0 94 -35.5 177t-97 144.5t-144.5 97 t-178 35.5z" />
<glyph unicode="&#xf4;" d="M127 1614h448l13 20l315 135h21l316 -135l13 -20h448l14 -14v-639q0 -11 2.5 -24t4.5 -24q6 -50 6 -100q0 -48 -6 -96q-1 -12 -4 -25.5t-3 -25.5v-639l-14 -14h-640q-12 0 -25.5 -3t-25.5 -4q-48 -6 -96 -6q-51 0 -100 6q-11 2 -24 4.5t-24 2.5h-639l-14 14v639 q0 11 -3 23.5t-4 23.5q-6 49 -6 100q0 53 6 104q2 11 4.5 22.5t2.5 21.5v639zM1256 1587v-29q70 -25 136.5 -75t123 -116.5t101 -141.5t71.5 -159v521h-432zM1256 1493v-108l-37 -24l-305 131l-305 -131l-37 24v108q-95 -49 -172.5 -121t-132.5 -160.5t-84.5 -190 t-29.5 -208.5q0 -106 27 -203t76.5 -181.5t119 -153.5t154 -118.5t182 -76.5t202.5 -27t202 27t182 76.5t154 119t119 154t77 181.5t27 202q0 108 -30 209t-84.5 189.5t-132 160.5t-172.5 121zM572 1552v35h-432v-521q52 164 164.5 288.5t267.5 197.5zM914 1716l-289 -124 v-166l278 120h21l279 -120v166zM1688 560q-30 -92 -81 -173t-118 -148.5t-149 -118t-173 -80.5h521v520zM661 40q-92 30 -173.5 80.5t-149 117.5t-118 148.5t-80.5 173.5v-520h521zM915 1321q103 0 195.5 -40.5t161.5 -110t109.5 -161.5t40.5 -196t-40.5 -196t-109.5 -161 t-161.5 -109.5t-195.5 -40.5q-104 0 -196.5 40t-162 109t-110 161t-40.5 197t40.5 197t109.5 161t161.5 109.5t197.5 40.5zM914 1268q-93 0 -176 -36t-145 -98t-98 -145t-36 -175q0 -94 36 -176.5t98 -144.5t144.5 -98t176.5 -36q93 0 176 36t145 98t98 145t36 176 q0 94 -35.5 177t-97 144.5t-144.5 97t-178 35.5z" />
<glyph unicode="&#xf5;" horiz-adv-x="1827" d="M1188 1614q7 9 17 26.5t19.5 37t18.5 38.5t15 30l50 -13v-119h393l13 -14v-639q0 -11 3 -23.5t4 -23.5q6 -50 6 -101t-6 -100q-1 -11 -4 -23.5t-3 -23.5v-639l-13 -14h-640q-12 0 -25.5 -3t-25.5 -4q-48 -6 -97 -6q-48 0 -96 6q-12 1 -25.5 4t-25.5 3h-639l-13 14v639 q0 11 -3 25t-5 25q-6 48 -6 97q0 48 6 98q2 11 5 25t3 25v639l13 14h392v107l10 20q34 27 73 43.5t83 16.5q45 0 88.5 -17.5t85 -44t78.5 -58t68 -59.5q14 -1 28 -4.5t27 -3.5h128zM1219 1219q48 -36 85 -81.5t63.5 -97.5t40 -109.5t13.5 -117.5q0 -104 -40.5 -196.5 t-110 -161.5t-162 -109.5t-195.5 -40.5q-104 0 -196.5 40.5t-161.5 109.5t-109.5 161.5t-40.5 196.5q0 102 38.5 193t105 160t156 110.5t191.5 44.5q-11 9 -37 31.5t-55 45.5t-55 41t-36 18q-16 0 -29.5 -9.5t-24.5 -23t-19.5 -29t-14.5 -26.5q-14 -26 -28 -53l-28 -54 l-50 12v189q-85 -52 -152.5 -122.5t-115 -154.5t-72.5 -178.5t-25 -194.5q0 -106 27 -203t76 -181.5t118 -153.5t153.5 -118.5t182 -76.5t202.5 -27t202 27t182 76.5t154 119t119 154t77 181.5t27 202q0 100 -25.5 194.5t-73 178t-115 154t-152.5 123.5v-177l-10 -21 q-18 -14 -37.5 -26t-41.5 -20zM972 1264q-14 2 -29 3t-30 1q-93 0 -175.5 -36t-145 -98.5t-98.5 -145t-36 -175.5t36 -176t98 -145t145 -98t176 -36t176 36t145 98t98 145t36 176q0 60 -15.5 117.5t-44.5 108.5t-70.5 93.5t-93.5 72.5q-47 0 -90.5 17t-81.5 42zM572 1383 q8 20 22 42.5t33 41t41 31t46 12.5q27 0 57.5 -18.5t63.5 -46.5t69 -60.5t74.5 -60.5t79 -46.5t83.5 -18.5q63 0 114 40v325q-12 -20 -25 -42t-29.5 -41t-37 -31.5t-47.5 -12.5q-30 0 -61 18.5t-64.5 46.5t-69.5 60.5t-74 60.5t-78.5 46.5t-83.5 18.5q-31 0 -60 -10.5 t-53 -29.5v-325zM1166 40h521v520q-30 -92 -81 -173.5t-118 -148.5t-149 -117.5t-173 -80.5zM140 560v-520h521q-92 30 -174 80.5t-149 117.5t-117.5 148.5t-80.5 173.5zM1687 1066v521h-379v-62q137 -76 233 -193.5t146 -265.5zM519 1587h-379v-521q48 148 145 266t234 193 v62z" />
<glyph unicode="&#xf6;" d="M127 1614h86q34 13 68 13q33 0 68 -13h418q67 13 147 13q77 0 147 -13h418q34 13 68 13q33 0 68 -13h86l14 -14v-86q13 -35 13 -68q0 -34 -13 -68v-417q13 -78 13 -148q0 -69 -13 -147v-639l-14 -14h-640q-78 -13 -147 -13q-70 0 -148 13h-639l-14 14v639q-13 69 -13 147 t13 148v417q-13 34 -13 68q0 33 13 68v86zM1367 1424q-96 71 -209 110q-117 40 -244 40q-129 0 -245 -40q-114 -39 -209 -110q-8 -62 -52 -106q-45 -45 -105 -52q-72 -96 -110 -209q-40 -117 -40 -244q0 -158 59.5 -296.5t163.5 -241.5q103 -103 241.5 -162.5t296.5 -59.5 q157 0 295.5 59.5t242.5 162.5q102 103 162.5 241.5t60.5 296.5q0 122 -40 244q-39 113 -110 209q-62 7 -106 52q-45 44 -52 106zM914 1321q210 0 359 -149t149 -359t-149 -359t-359 -149q-211 0 -360 149t-149 359t149 359t360 149zM1236 1135q-135 133 -322 133 q-189 0 -323 -133q-133 -133 -133 -322q0 -188 133 -322q134 -133 323 -133q187 0 322 133q133 134 133 322q0 189 -133 322zM1167 40h521v520q-61 -185 -199 -322q-136 -138 -322 -198zM140 560v-520h521q-186 60 -323 198q-139 138 -198 322zM1547 1317q52 0 90 38t38 91 q0 52 -38 90t-90 38t-90 -38q-38 -37 -38 -90q0 -55 38 -91q38 -38 90 -38zM281 1317q52 0 90 38t38 91q0 52 -38 90t-90 38t-90 -38t-38 -90q0 -53 38 -91t90 -38zM1688 1066v267q-4 -6 -13 -15q-40 -38 -87 -48q61 -92 97 -195zM661 1587h-266q5 -4 14 -13q36 -38 47 -87 q91 62 197 97q6 2 8 3zM1433 1587h-267l4 -2q2 -1 5 -1q104 -35 196 -97q10 51 48 87q9 9 14 13zM140 1333v-267l3 9q37 108 97 195q-50 10 -87 48q-9 9 -13 15zM1688 1587h-28q10 -8 15 -13q5 -4 13 -14v27zM168 1587h-28v-27q8 10 13 14q9 9 15 13z" />
<glyph unicode="&#xf7;" horiz-adv-x="893" d="M793 967v-307l-14 -13v-620l-13 -14h-639l-14 14v620l-13 13v307l13 13v620l14 14h639l13 -14v-620zM753 633h-613v-593h613v593zM140 993h613v594h-613v-594zM447 1080q54 0 91 37t37 91t-37 91t-91 37q-53 0 -90 -37t-37 -91t37 -91t90 -37zM576 1080q-55 -53 -128 -53 q-74 0 -128 53q-53 54 -53 128q0 75 53 128t128 53t128 -53q52 -52 52 -128q0 -75 -52 -128zM447 290q54 0 91 38q37 37 37 90t-37 90q-38 38 -91 38q-52 0 -90 -38q-37 -37 -37 -90t37 -90q36 -38 90 -38zM576 290q-53 -53 -128 -53t-128 53q-53 54 -53 128q0 73 53 128 q53 53 128 53t128 -53q52 -54 52 -128q0 -75 -52 -128zM740 686v254h-587v-254h587z" />
<glyph unicode="&#xf8;" d="M127 1614h639q10 0 22 2.5t22 4.5q52 6 104 6q50 0 101 -6q11 -1 23 -4t23 -3h407l8 8h37l9 -8h179l14 -14v-179l8 -8v-38l-8 -8v-407q0 -11 3 -24.5t4 -24.5q6 -50 6 -98t-6 -96q-1 -12 -4 -25.5t-3 -25.5v-639l-14 -14h-640q-12 0 -25.5 -3t-25.5 -4q-48 -6 -96 -6 q-49 0 -98 6q-11 1 -24.5 4t-24.5 3h-407l-8 -8h-38l-8 8h-179l-14 14v179l-8 8v37l8 8v407q0 11 -3 23.5t-4 23.5q-6 49 -6 100q0 53 6 104q2 11 4.5 22.5t2.5 21.5v639zM1166 1587q50 -16 96 -38.5t91 -49.5l88 88h-275zM1548 1587l140 -140v140h-140zM1688 1340l-88 -88 q27 -45 49.5 -91t38.5 -95v274zM1688 560q-30 -92 -81 -173t-118 -148.5t-149 -118t-173 -80.5h521v520zM662 40q-100 34 -187 87l-88 -87h275zM280 40l-140 139v-139h140zM140 286l88 89q-57 89 -88 186v-275zM140 1066q29 91 80 172.5t119 149t149.5 118.5t172.5 81h-521 v-521zM914 1574q-105 0 -202 -27t-182 -77t-154 -119t-119 -154t-77 -182t-27 -202q0 -114 33.5 -223.5t97.5 -203.5l-3 -34l-119 -120l171 -170l120 119l34 3q94 -66 203 -98.5t224 -32.5q105 0 202 27t182 76.5t154 119t119 154t77 181.5t27 202q0 116 -33.5 223.5 t-98.5 203.5l4 34l119 120l-171 171l-120 -119l-34 -3q-96 64 -204 97.5t-223 33.5zM1335 987l-595 -595q41 -18 85 -26t89 -8q93 0 176 36t145 98t98 145t36 176q0 45 -8.5 88.5t-25.5 85.5zM676 403l648 649l42 -7q27 -55 41.5 -112.5t14.5 -119.5q0 -104 -40.5 -196.5 t-109.5 -161.5t-161.5 -109.5t-196.5 -40.5q-62 0 -119.5 13.5t-112.5 42.5zM493 639l595 595q-42 16 -85.5 25t-88.5 9q-93 0 -176.5 -36t-145.5 -98t-98 -145t-36 -176q0 -44 8 -88.5t27 -85.5zM1152 1222l-648 -648l-43 6q-56 109 -56 232q0 105 40.5 197.5t109.5 161.5 t161.5 109.5t197.5 40.5q61 0 119.5 -14.5t112.5 -41.5z" />
<glyph unicode="&#xf9;" horiz-adv-x="1510" d="M756 53q94 0 182 28.5t162 80t130.5 124.5t89.5 162q17 45 27 94t10 97v935h-243v-937q0 -71 -30.5 -133.5t-80.5 -109t-114.5 -73.5t-133.5 -27q-60 0 -115.5 19.5t-101.5 54.5t-79.5 83t-49.5 106q-4 16 -8.5 39.5t-4.5 40.5v937h-242l1 -935q0 -123 48.5 -229.5 t131 -186t191.5 -125t230 -45.5zM527 40q-68 24 -127.5 62.5t-108.5 88.5t-87.5 110t-62.5 127v-388h386zM1370 428q-24 -67 -62.5 -127t-88 -110t-109.5 -88.5t-127 -62.5h387v388zM734 1329h107v387h-242zM894 1302l-27 -27h-153l-25 18l-102 294h-138v-949 q0 -60 26.5 -112.5t69.5 -92.5t98 -63t112 -23t112 23t98 63t69.5 92.5t26.5 112.5v949h-167v-285zM536 1734l25 35h306l27 -27v-128h179l13 13h297l27 -27v-962q0 -20 -2.5 -41.5t-5.5 -41.5q-1 -8 -3 -16.5t-2 -16.5v-495l-14 -14h-493q-10 0 -21.5 -3t-22.5 -5 q-23 -3 -45.5 -4t-45.5 -1t-45 1t-45 4q-11 2 -23 5t-22 3h-493l-14 14v495q0 8 -2 17t-3 17q-3 20 -5 41t-3 41h1v962l26 27h296l13 -13h142z" />
<glyph unicode="&#xfa;" horiz-adv-x="1510" d="M931 1614h142l13 13h296l27 -27v-962q0 -20 -2.5 -41t-5.5 -41q-1 -8 -3 -17t-2 -17v-495l-14 -14h-493q-10 0 -22 -3t-23 -5q-23 -3 -45 -4t-44 -1q-23 0 -45.5 1t-45.5 4q-11 2 -22.5 5t-21.5 3h-493l-14 14v495q0 8 -2 16.5t-3 16.5q-3 20 -5.5 41.5t-2.5 41.5v962 l27 27h296l13 -13h179v128l27 27h306l25 -35zM615 1587h-166v-949q0 -60 26.5 -112.5t69.5 -92.5t98 -63t112 -23t112 23t98 63t69.5 92.5t26.5 112.5v949h-138l-103 -294l-25 -18h-153l-27 27v285zM910 1716h-242v-387h107zM140 428v-388h387q-67 24 -127 62.5t-109.5 88.5 t-88 110t-62.5 127zM983 40h387v388q-24 -67 -62.5 -127t-88 -110t-109.5 -88.5t-127 -62.5zM1357 1574h-243v-937q0 -17 -4.5 -40.5t-8.5 -39.5q-17 -58 -50.5 -106t-79 -83t-101 -54.5t-115.5 -19.5q-69 0 -133.5 27t-114.5 73.5t-80.5 109t-30.5 133.5v937h-243v-935 q0 -48 10 -97t27 -94q33 -89 89.5 -162t130.5 -124.5t162 -80t183 -28.5q121 0 230 45.5t191.5 125t131 186t48.5 229.5z" />
<glyph unicode="&#xfb;" horiz-adv-x="1510" d="M1085 1626h297l27 -26v-962q0 -20 -2.5 -41t-5.5 -41q-1 -8 -3 -17t-2 -17v-495l-14 -14h-493q-10 0 -22 -3t-23 -5q-23 -3 -45 -4t-44 -1q-23 0 -45.5 1t-45.5 4q-11 2 -22.5 5t-21.5 3h-493l-14 14v495q0 8 -2 16.5t-3 16.5q-3 20 -5.5 41.5t-2.5 41.5v962l27 27h297 l5 7l315 135h21l315 -135zM1061 1361l-306 131l-306 -131v-723q0 -60 26.5 -112.5t69.5 -92.5t98 -63t112 -23t112 23t98 63t69.5 92.5t26.5 112.5v723zM755 1716l-305 -131v-166l294 127h21l296 -126v166zM1370 428q-24 -67 -62.5 -127t-88 -110t-110 -88.5t-127.5 -62.5 h388v388zM527 40q-67 24 -127 62.5t-109.5 88.5t-88 110t-62.5 127v-388h387zM1357 1574h-243v-937q0 -17 -4.5 -40.5t-8.5 -39.5q-17 -58 -50.5 -106t-79 -83t-101 -54.5t-115.5 -19.5q-69 0 -133.5 27t-114.5 73.5t-80.5 109t-30.5 133.5v937h-243v-935q0 -48 10 -97 t27 -94q33 -89 89.5 -162t130.5 -124.5t162 -80t183 -28.5q121 0 230 45.5t191.5 125t131 186t48.5 229.5z" />
<glyph unicode="&#xfc;" horiz-adv-x="1510" d="M1161 1614q32 13 68 13t68 -13h86l14 -14v-86q13 -32 13 -68t-13 -68v-83l13 -13v-644q0 -21 -2.5 -43t-5.5 -43q-2 -7 -3.5 -15t-1.5 -15v-495l-14 -14h-493q-10 0 -21 -3t-21 -4q-47 -6 -93 -6q-23 0 -47 1t-47 5q-10 1 -21 4t-20 3h-493l-14 14v495q0 8 -2 17.5 t-4 17.5q-3 20 -5 40.5t-2 40.5v644l13 13v83q-13 32 -13 68t13 68v86l14 14h86q32 13 68 13t68 -13h812zM1111 1308q-32 23 -47.5 61t-15.5 77q0 41 16.5 79t50.5 62h-720q33 -29 50 -62t17 -79q0 -44 -16 -76.5t-47 -61.5h24l26 -26v-644q0 -60 26.5 -112.5t69.5 -92.5 t98 -63t112 -23t112 23t98 63t69.5 92.5t26.5 112.5v644l26 26h24zM1357 1255h-243q0 -155 0.5 -309t-0.5 -309q0 -17 -4 -40.5t-9 -39.5q-17 -58 -50.5 -106t-79 -83t-101 -54.5t-115.5 -19.5q-69 0 -133.5 27t-114.5 73.5t-80.5 109t-30.5 133.5q-1 155 -0.5 309t0.5 309 h-243v-616q0 -48 10 -97t27 -94q33 -89 89.5 -162t130.5 -124.5t162 -80t183 -28.5q245 0 420 170q86 84 133 189.5t48 226.5q1 155 1 308v308zM1370 428q-24 -67 -62.5 -127t-88 -110t-109.5 -88.5t-127 -62.5h387v388zM527 40q-67 24 -127 62.5t-109.5 88.5t-88 110 t-62.5 127v-388h387zM281 1318q25 0 48.5 10.5t41 28t28 40.5t10.5 49q0 25 -10.5 48.5t-28 41t-41 28t-48.5 10.5q-26 0 -49 -10.5t-40.5 -28t-28 -41t-10.5 -48.5q0 -26 10.5 -49t28 -40.5t40.5 -28t49 -10.5zM1229 1318q25 0 48.5 10.5t41 28t28 40.5t10.5 49 q0 25 -10.5 48.5t-28 41t-41 28t-48.5 10.5q-26 0 -49 -10.5t-40.5 -28t-28 -41t-10.5 -48.5q0 -26 10.5 -49t28 -40.5t40.5 -28t49 -10.5zM1342 1587q8 -6 14.5 -12.5t13.5 -14.5v27h-28zM140 1560q6 8 13 14.5t15 12.5h-28v-27zM1347 1308h23v25l1 2q-7 -7 -12 -14 t-12 -13zM163 1308q-7 5 -13 11.5t-10 13.5v-25h23z" />
<glyph unicode="&#xfd;" horiz-adv-x="1449" d="M899 481v-441h412v1457zM612 1759l307 -1l25 -36l-39 -108h61l20 13h338l25 -36l-11 -28v-1536l-14 -14h-438l-14 -13h-295l-14 13h-438l-14 14v1536l-11 28l25 36h338l20 -13h102v118zM896 1587l-106 -304l-25 -18h-138l98 -239l227 561h-56zM585 1370v217h-88zM550 40 v441l-412 1016v-1457h412zM846 53v433l2 10l437 1078h-281l-255 -628h-49l-255 628h-281l437 -1078l2 -10v-433h243zM880 1705h-242v-387h107z" />
<glyph unicode="&#xfe;" horiz-adv-x="1284" d="M1131 813q0 106 -41.5 201t-112.5 166t-166 112.5t-201 41.5h-187l-27 26v214h-243v-1521h243v213l27 26h187q106 0 201 41.5t166 112.5t112.5 165.5t41.5 201.5zM436 1614h721l14 -14v-663q0 -9 2.5 -20t4.5 -20q6 -42 6 -84t-6 -82q-1 -9 -4 -20.5t-3 -20.5v-663 l-14 -14h-721l-13 -13h-296l-27 27v1573l27 27h296zM1144 1587h-695v-200h161q89 0 171 -26t151.5 -73t124 -114.5t87.5 -149.5v563zM449 40h695v562q-33 -83 -87 -150.5t-123.5 -114.5t-151.5 -72.5t-172 -25.5h-161v-199zM610 1079q55 0 103.5 -21t85 -57.5t57.5 -85 t21 -102.5q0 -55 -21 -103.5t-57.5 -84.5t-85 -57t-103.5 -21h-187l-27 26v479l27 27h187zM610 1026h-161v-426h161q44 0 82.5 17t67.5 46t46 67.5t17 82.5q0 45 -16.5 83.5t-45.5 67.5t-67.5 45.5t-83.5 16.5z" />
<glyph unicode="&#xff;" horiz-adv-x="1312" d="M168 1266l356 -667l4 -12v-534h253v534l4 12l356 667h-96q-4 -1 -14 -1q-9 0 -14 1h-111l-214 -406l-46 -1l-242 407h-103q-5 -1 -14 -1q-10 0 -14 1h-105zM1042 1319q46 4 79 37q37 37 37 90t-37 90q-38 38 -91 38q-52 0 -90 -38q-37 -37 -37 -90t37 -90q30 -33 78 -37 h24zM901 1319q-51 53 -51 127q0 73 53 128q5 5 15 13h-518q10 -8 15 -13q53 -53 53 -128q0 -74 -52 -127h3l23 -13l225 -379l199 378l23 14h12zM963 1614q34 13 68 13t69 -13h86l13 -14v-86q13 -31 13 -68q0 -38 -13 -68v-81l10 -17l-10 -19v-1234l-13 -14h-365l-13 -13 h-307l-13 13h-365l-13 14v1234l-10 19l10 17v110q-4 16 -4 39t4 39v115l13 14h96q34 13 68 13q33 0 68 -13h608zM1145 1587q10 -8 14 -13q5 -4 13 -14v27h-27zM1172 1333q-8 -10 -12 -14h12v14zM299 1319q47 4 78 37q38 38 38 90t-38 90t-90 38t-91 -38q-37 -37 -37 -90 t37 -90q32 -33 79 -37h24zM158 1319q-14 13 -21 26v-26h21zM137 1547q7 12 22 27q4 5 14 13h-36v-40zM474 580l-337 631v-1171h337v540zM1172 1211l-338 -631v-540h338v1171z" />
<glyph unicode="&#x152;" horiz-adv-x="2037" d="M1924 1280v-933l13 -14v-306l-27 -27h-786l-13 13h-50q-12 0 -25.5 -3t-25.5 -4q-48 -6 -96 -6q-51 0 -100 6q-11 2 -24 4.5t-24 2.5h-639l-14 14v639q0 11 -3 23.5t-4 23.5q-6 49 -6 100q0 53 6 104q2 11 4.5 22.5t2.5 21.5v639l14 14h639q10 0 22 2.5t22 4.5 q52 6 104 6q50 0 98.5 -7.5t98.5 -5.5l13 13h786l27 -27v-307zM914 305q-104 0 -196 40t-161.5 109t-110 161.5t-40.5 197.5q0 104 40.5 196.5t109.5 161.5t161 109.5t197 40.5q124 0 236 -58v-885q-13 -10 -26 -21.5t-27 -19.5q-12 -8 -36.5 -13.5t-52 -10t-53.5 -6.5 t-41 -2zM1150 53h734v254h-464l-27 26v326l27 27h229v254h-229l-27 27v325l27 27h464v255h-734l-53 -22q-88 22 -183 22q-105 0 -202 -27t-182 -77t-154 -119t-119 -154t-77 -182t-27 -202q0 -106 27 -203t76.5 -181.5t119 -153.5t154 -118.5t182 -76.5t202.5 -27 q95 0 183 22zM914 1268q-93 0 -176 -36t-145 -98t-98 -145t-36 -176q0 -94 36 -176.5t98 -144.5t144.5 -98t176.5 -36q96 0 183 36v837q-43 20 -89 28.5t-94 8.5zM1897 1266h-451v-273h229l27 -27v-307l-27 -26h-229v-273h451v906zM140 1066q29 91 80 172.5t119 149 t149.5 118.5t172.5 81h-521v-521zM661 40q-92 30 -173.5 80.5t-149 117.5t-118 148.5t-80.5 173.5v-520h521z" />
<glyph unicode="&#x153;" horiz-adv-x="2037" d="M1924 1280v-933l13 -14v-306l-27 -27h-786l-13 13h-50q-12 0 -25.5 -3t-25.5 -4q-48 -6 -96 -6q-51 0 -100 6q-11 2 -24 4.5t-24 2.5h-639l-14 14v639q0 11 -3 23.5t-4 23.5q-6 49 -6 100q0 53 6 104q2 11 4.5 22.5t2.5 21.5v639l14 14h639q10 0 22 2.5t22 4.5 q52 6 104 6q50 0 98.5 -7.5t98.5 -5.5l13 13h786l27 -27v-307zM914 305q-104 0 -196 40t-161.5 109t-110 161.5t-40.5 197.5q0 104 40.5 196.5t109.5 161.5t161 109.5t197 40.5q124 0 236 -58v-885q-13 -10 -26 -21.5t-27 -19.5q-12 -8 -36.5 -13.5t-52 -10t-53.5 -6.5 t-41 -2zM1150 53h734v254h-464l-27 26v326l27 27h229v254h-229l-27 27v325l27 27h464v255h-734l-53 -22q-88 22 -183 22q-105 0 -202 -27t-182 -77t-154 -119t-119 -154t-77 -182t-27 -202q0 -106 27 -203t76.5 -181.5t119 -153.5t154 -118.5t182 -76.5t202.5 -27 q95 0 183 22zM914 1268q-93 0 -176 -36t-145 -98t-98 -145t-36 -176q0 -94 36 -176.5t98 -144.5t144.5 -98t176.5 -36q96 0 183 36v837q-43 20 -89 28.5t-94 8.5zM1897 1266h-451v-273h229l27 -27v-307l-27 -26h-229v-273h451v906zM140 1066q29 91 80 172.5t119 149 t149.5 118.5t172.5 81h-521v-521zM661 40q-92 30 -173.5 80.5t-149 117.5t-118 148.5t-80.5 173.5v-520h521z" />
<glyph unicode="&#x160;" horiz-adv-x="1205" d="M261 1613v132l37 24l306 -131l304 131l37 -24v-132h133l14 -14v-356q0 -8 2 -18l5 -18q6 -39 6 -77l-13 -13v-506q0 -8 2 -18l5 -18q6 -39 6 -78q0 -40 -6 -79q-2 -8 -4.5 -17.5t-2.5 -17.5v-357l-14 -14h-370q-7 0 -15 -2t-15 -3q-38 -6 -75 -6q-38 0 -77 6 q-7 1 -14.5 3t-14.5 2h-370l-14 14v357q0 7 -2.5 16t-4.5 17q-6 40 -6 81l13 14v504q0 7 -2.5 16t-4.5 17q-6 40 -6 81q0 40 6 81q2 8 4.5 17t2.5 16v356l14 14h134zM592 1360l-278 116q-37 -32 -67 -72t-51 -85t-32 -93.5t-11 -97.5q0 -91 35.5 -170.5t96 -139.5t141 -95.5 t170.5 -36.5l1 1q39 0 73.5 -15t60.5 -40.5t41 -60t15 -73.5t-15 -73.5t-41 -60.5t-60.5 -41t-73.5 -15q-35 0 -67 12.5t-57.5 34t-42.5 51.5t-21 65h-255q5 -89 42.5 -165t98.5 -132t140.5 -87.5t167.5 -31.5q91 0 173 34.5t143 94.5t97 140.5t36 172.5t-36.5 173.5 t-98.5 141.5t-144 94.5t-173 33.5q-40 0 -75 14.5t-61.5 40t-41.5 60.5t-15 75q0 38 15 72.5t41 60.5t60.5 41t73.5 15q36 0 67.5 -12.5t56.5 -34t41.5 -51.5t22.5 -65h266q-8 97 -51 178.5t-118 141.5l-269 -116h-21zM1065 690v413h-305l-26 27q0 28 -11 53t-29.5 43.5 t-43.5 29t-53 10.5q-29 0 -54 -10.5t-43.5 -29t-29 -43.5t-10.5 -53q0 -29 10.5 -54t29 -43.5t43.5 -29t53 -10.5l2 -1q1 1 4 1q76 0 146.5 -21.5t130.5 -61t107.5 -95.5t78.5 -125zM140 935v-411h293l27 -26q0 -29 10.5 -53.5t28.5 -43.5t43 -29.5t55 -10.5q28 0 53 11 t43.5 29.5t29.5 43.5t11 53t-11 52.5t-29.5 43t-43.5 29.5t-52 11l-1 -1q-75 0 -144.5 21.5t-129.5 61t-107 95t-76 124.5zM314 1539l289 -125l289 125v165l-279 -119h-21l-278 119v-165zM795 39h270v264q-38 -91 -108.5 -159t-161.5 -105zM140 39h270q-91 37 -161.5 105 t-108.5 159v-264zM945 1586v-65l-12 -18q42 -38 75.5 -83t56.5 -97v263h-120zM273 1503l-12 18v65h-121v-262q26 55 57.5 96.5t75.5 82.5z" />
<glyph unicode="&#x161;" horiz-adv-x="1205" d="M261 1613v132l37 24l306 -131l304 131l37 -24v-132h133l14 -14v-356q0 -8 2 -18l5 -18q6 -39 6 -77l-13 -13v-506q0 -8 2 -18l5 -18q6 -39 6 -78q0 -40 -6 -79q-2 -8 -4.5 -17.5t-2.5 -17.5v-357l-14 -14h-370q-7 0 -15 -2t-15 -3q-38 -6 -75 -6q-38 0 -77 6 q-7 1 -14.5 3t-14.5 2h-370l-14 14v357q0 7 -2.5 16t-4.5 17q-6 40 -6 81l13 14v504q0 7 -2.5 16t-4.5 17q-6 40 -6 81q0 40 6 81q2 8 4.5 17t2.5 16v356l14 14h134zM592 1360l-278 116q-37 -32 -67 -72t-51 -85t-32 -93.5t-11 -97.5q0 -91 35.5 -170.5t96 -139.5t141 -95.5 t170.5 -36.5l1 1q39 0 73.5 -15t60.5 -40.5t41 -60t15 -73.5t-15 -73.5t-41 -60.5t-60.5 -41t-73.5 -15q-35 0 -67 12.5t-57.5 34t-42.5 51.5t-21 65h-255q5 -89 42.5 -165t98.5 -132t140.5 -87.5t167.5 -31.5q91 0 173 34.5t143 94.5t97 140.5t36 172.5t-36.5 173.5 t-98.5 141.5t-144 94.5t-173 33.5q-40 0 -75 14.5t-61.5 40t-41.5 60.5t-15 75q0 38 15 72.5t41 60.5t60.5 41t73.5 15q36 0 67.5 -12.5t56.5 -34t41.5 -51.5t22.5 -65h266q-8 97 -51 178.5t-118 141.5l-269 -116h-21zM1065 690v413h-305l-26 27q0 28 -11 53t-29.5 43.5 t-43.5 29t-53 10.5q-29 0 -54 -10.5t-43.5 -29t-29 -43.5t-10.5 -53q0 -29 10.5 -54t29 -43.5t43.5 -29t53 -10.5l2 -1q1 1 4 1q76 0 146.5 -21.5t130.5 -61t107.5 -95.5t78.5 -125zM140 935v-411h293l27 -26q0 -29 10.5 -53.5t28.5 -43.5t43 -29.5t55 -10.5q28 0 53 11 t43.5 29.5t29.5 43.5t11 53t-11 52.5t-29.5 43t-43.5 29.5t-52 11l-1 -1q-75 0 -144.5 21.5t-129.5 61t-107 95t-76 124.5zM314 1539l289 -125l289 125v165l-279 -119h-21l-278 119v-165zM795 39h270v264q-38 -91 -108.5 -159t-161.5 -105zM140 39h270q-91 37 -161.5 105 t-108.5 159v-264zM945 1586v-65l-12 -18q42 -38 75.5 -83t56.5 -97v263h-120zM273 1503l-12 18v65h-121v-262q26 55 57.5 96.5t75.5 82.5z" />
<glyph unicode="&#x178;" horiz-adv-x="1312" d="M168 1266l356 -667l4 -12v-534h253v534l4 12l356 667h-235l-214 -407h-46l-242 407h-236zM1042 1319q24 0 45.5 11.5t37 29.5t24.5 40.5t9 45.5q0 26 -10 49.5t-27.5 41t-41 27.5t-49.5 10t-49 -10.5t-40.5 -28t-27.5 -40.5t-10 -49q0 -24 8.5 -46.5t24 -40t36.5 -28.5 t46 -12h24zM901 1319q-51 52 -51 127q0 41 17 79t51 62h-518q34 -25 51 -62t17 -79q0 -75 -52 -127h3l23 -13l225 -379l199 378l23 14h12zM963 1614q32 13 68 13q37 0 69 -13h86l13 -14v-86q8 -16 10.5 -33.5t2.5 -34.5t-2.5 -34.5t-10.5 -33.5v-81l10 -17l-10 -19v-1234 l-13 -14h-365l-13 -13h-307l-13 13h-365l-13 14v1234l-10 19l10 17v110q0 9 -2 19t-2 20t2 20t2 19v115l13 14h96q32 13 68 13t68 -13h608zM1145 1587q15 -12 27 -27v27h-27zM1172 1333q-3 -4 -6 -7.5t-6 -6.5h12v14zM299 1319q24 0 45.5 11.5t37 29.5t24.5 40.5t9 45.5 q0 25 -10.5 48.5t-28 41t-41 28t-48.5 10.5q-26 0 -49 -10.5t-40.5 -28t-28 -40.5t-10.5 -49q0 -31 11 -55t30 -40t44.5 -24t54.5 -8zM158 1319q-6 6 -11.5 12t-9.5 14v-26h21zM137 1547q8 11 16.5 21.5t19.5 18.5h-36v-40zM474 580l-337 631v-1171h337v540zM1172 1211 l-338 -631v-540h338v1171z" />
<glyph unicode="&#x17d;" horiz-adv-x="1529" d="M482 1539l289 -125l289 125v165l-279 -119h-21l-278 119v-165zM1113 1627h289l23 -40l-10 -17v-1212l14 -14v-317l-27 -27h-1275l-23 40l9 17v1211l-13 14v318l27 27h302v118l37 24l305 -131l305 131l37 -24v-118zM760 1361l-315 136l-16 24v53h-276v-266h691l23 -39 l-695 -1216h1203v265h-690l-23 40l694 1216h-243v-53l-16 -24l-316 -136h-21zM1389 1523l-658 -1152h658v1152zM140 103l658 1152h-658v-1152z" />
<glyph unicode="&#x17e;" horiz-adv-x="1529" d="M482 1539l289 -125l289 125v165l-279 -119h-21l-278 119v-165zM1113 1627h289l23 -40l-10 -17v-1212l14 -14v-317l-27 -27h-1275l-23 40l9 17v1211l-13 14v318l27 27h302v118l37 24l305 -131l305 131l37 -24v-118zM760 1361l-315 136l-16 24v53h-276v-266h734l-715 -1255 h1203v265h-737l718 1256h-243v-53l-16 -24l-316 -136h-21zM1389 1523l-658 -1152h658v1152zM140 103l658 1152h-658v-1152z" />
<glyph unicode="&#x192;" horiz-adv-x="1231" d="M153 1578v-1521h243v606l27 27h376v255h-376l-27 26v326l27 27h655v254h-925zM1118 1284v-1253l-14 -13h-668l-13 -14h-296l-27 27v1574l27 26h977l27 -26v-308zM1091 1271h-642v-273h377l26 -27v-307l-26 -27h-377v-593h642v1227z" />
<glyph unicode="&#x2013;" horiz-adv-x="865" d="M711 841h-558v-155h558v155zM725 1587h-585v-693h585v693zM140 40h585v593h-585v-593zM113 27v620l-13 13v208l13 13v719l14 14h611l13 -14v-719l14 -13v-208l-14 -13v-620l-13 -14h-611z" />
<glyph unicode="&#x2014;" horiz-adv-x="1036" d="M882 841h-729v-155h729v155zM896 1587h-756v-693h756v693zM140 40h756v593h-756v-593zM113 27v620l-13 13v208l13 13v719l14 14h782l13 -14v-719l14 -13v-208l-14 -13v-620l-13 -14h-782z" />
<glyph unicode="&#x2018;" horiz-adv-x="558" d="M431 0h-306l-14 14v1126l-11 17q0 1 2 6t4 11t3 11l2 5v397l14 14h134l19 13h153l27 -27v-439l-13 -13v-1121zM418 1121h-280v-1094h280v1094zM162 1174h243v387h-108zM138 1267l107 307h-107v-307z" />
<glyph unicode="&#x2019;" horiz-adv-x="558" d="M447 27l-14 -14h-306l-14 14v1120l-13 13v440l27 27h306l25 -35q0 -1 -2 -6.5t-4 -11.5t-4 -11l-1 -5v-1531zM420 1481l-115 -330l-25 -18h-140v-1093h280v1441zM396 1574h-243v-387h108z" />
<glyph unicode="&#x201a;" horiz-adv-x="558" d="M127 1614h306l14 -14v-1126l11 -17q0 -1 -2 -6t-4 -11t-4 -11l-1 -5v-397l-14 -14h-134l-19 -13h-153l-27 27v439l13 13v1121zM140 492h280v1094h-280v-1094zM396 439h-243v-386h108zM420 347l-107 -307h107v307z" />
<glyph unicode="&#x201c;" horiz-adv-x="1032" d="M125 1614h135l18 13h154l13 -13h288l19 13h153l27 -27v-440l-14 -13v-1120l-13 -14h-780l-13 14v1125l-12 17q0 1 2 6.5t4.5 11.5t3.5 11l2 5v397zM432 1133h-294v-1093h754v1093h-293l-26 36l146 418h-261v-427zM163 1186h242v388h-108zM636 1186h242v388h-107z M138 1279l108 308h-108v-308z" />
<glyph unicode="&#x201d;" horiz-adv-x="1032" d="M442 1614h144l13 13h307l25 -35q0 -1 -2 -6.5t-4.5 -11.5t-4.5 -11l-1 -5v-1531l-13 -14h-780l-14 14v1120l-13 13v440l27 27h306zM892 1481l-115 -330l-25 -18h-152l-27 27v427h-116l-152 -436l-25 -18h-140v-1093h752v1441zM396 1574h-243v-388h108zM868 1574h-242 v-388h108z" />
<glyph unicode="&#x201e;" horiz-adv-x="1032" d="M126 1614h780l13 -14v-1126l12 -17q0 -1 -2 -6t-4.5 -11t-4.5 -11l-1 -5v-397l-13 -14h-135l-19 -13h-153l-13 13h-288l-19 -13h-153l-27 27v439l13 13v1121zM600 492h293v1094h-753v-1094h293l25 -36l-145 -416h260v425zM396 439h-243v-386h108zM868 439h-242v-386h108z M892 347l-107 -307h107v307z" />
<glyph unicode="&#x2020;" horiz-adv-x="846" d="M113 27v1135l-13 13v258l13 13v154l14 14h154l12 12h259l12 -12h155l13 -14v-154l14 -13v-258l-14 -13v-1135l-13 -14h-155l-12 -12h-259l-12 12h-154zM320 1174v-1121h205v1121l27 27h140v205h-140l-27 27v140h-205v-140l-27 -27h-140v-205h140zM140 40h127v1108h-127 v-1108zM705 40v1108h-127v-1108h127zM705 1587h-127v-128h127v128zM140 1459h127v128h-127v-128z" />
<glyph unicode="&#x2021;" horiz-adv-x="854" d="M754 455v-261l-14 -13v-154l-13 -14h-155l-12 -12h-267l-12 12h-154l-14 14v154l-13 13v261l13 13v692l-13 13v260l13 13v154l14 14h154l12 12h267l12 -12h155l13 -14v-154l14 -13v-260l-14 -13v-692zM293 428h-140v-207h140l27 -27v-140h213v140l27 27h140v207h-140 l-27 27v717l27 27h140v207h-140l-27 27v140h-213v-140l-27 -27h-140v-207h140l27 -27v-717zM140 481h127v665h-127v-665zM713 481v665h-127v-665h127zM713 1587h-127v-128h127v128zM713 168h-127v-128h127v128zM140 40h127v128h-127v-128zM140 1459h127v128h-127v-128z" />
<glyph unicode="&#x2022;" horiz-adv-x="741" d="M320 520h100l167 167v100l-167 167h-100l-167 -167v-100zM601 1587h-448v-731l140 151h154l154 -167v747zM140 40h461v593l-154 -166h-154l-153 166v-593zM113 27v620l-13 13v154l13 13v773l14 14h487l13 -14v-773l14 -13v-154l-14 -13v-620l-13 -14h-487z" />
<glyph unicode="&#x2026;" horiz-adv-x="1388" d="M1174 13q-32 -13 -68 -13t-68 13h-276q-32 -13 -68 -13t-68 13h-277q-32 -13 -68 -13t-68 13h-86l-14 14v85q-13 32 -13 68t13 68v1352l14 14h1132l13 -14v-1348q15 -35 15 -72q0 -38 -15 -72v-81l-13 -14h-85zM993 40q-34 31 -50.5 62t-16.5 78q0 37 14.5 70t39 57.5 t57.5 39t69 14.5q38 0 77 -16t62 -49v1291h-1105v-1293q24 33 62.5 50t78.5 17q37 0 70 -14.5t57.5 -39t39 -57.5t14.5 -70q0 -46 -17 -78t-50 -62h186q-68 54 -68 140q0 37 14.5 69.5t39 57.5t57.5 39.5t70 14.5t70 -14.5t57.5 -39t39 -57.5t14.5 -70q0 -46 -17 -78 t-51 -62h186zM1107 53q26 0 49 10t40.5 27.5t28 40.5t10.5 49t-10.5 49t-28 40.5t-40.5 28t-49 10.5q-27 0 -50 -10t-40.5 -27.5t-27.5 -40.5t-10 -50q0 -26 10 -49.5t27.5 -40.5t41 -27t49.5 -10zM281 53q26 0 49 10t40.5 27.5t28 40.5t10.5 49t-10.5 49t-28 40.5t-40.5 28 t-49 10.5t-49.5 -10t-41 -27.5t-27.5 -41t-10 -49.5t10 -49.5t27.5 -40.5t41 -27t49.5 -10zM694 53q26 0 49 10t40.5 27.5t28 40.5t10.5 49t-10 49.5t-27.5 41t-41 27.5t-49.5 10q-27 0 -50 -10.5t-40.5 -28t-27.5 -40.5t-10 -49t10 -49.5t27 -40.5t40.5 -27t50.5 -10z M168 40l1 -1q-8 6 -15 13q-8 8 -14 16v-28h28zM1219 40h26v26q-6 -8 -12 -13.5t-14 -12.5z" />
<glyph unicode="&#x2039;" horiz-adv-x="965" d="M100 629l14 19v952l13 14h712l13 -14v-678l13 -9v-315l-13 -20v-218l13 -19v-314l-36 -25l-29 11h-673l-13 14v263l-14 20v319zM140 663l685 273v651h-685v-924zM825 564l-237 -95l237 -94v189zM734 40l-594 236v-236h594zM154 611v-284l658 -261v257l-305 121v50 l305 122v257z" />
<glyph unicode="&#x203a;" horiz-adv-x="965" d="M153 873v-257l305 -122v-50l-305 -121v-257l658 261v284zM825 40v236l-594 -236h594zM140 375l237 94l-237 95v-189zM825 1587h-685v-651l685 -273v924zM865 310l-14 -20v-263l-13 -14h-673l-29 -11l-36 25v314l13 19v218l-13 20v315l13 9v678l13 14h712l13 -14v-952 l14 -19v-319z" />
<glyph unicode="&#x20ac;" horiz-adv-x="1582" d="M1016 1627q50 0 101 -6q11 -1 23 -4t23 -3h281l14 -14v-103l16 -11l8 -35l-24 -45v-1379l-14 -14h-281q-12 0 -25.5 -3t-25.5 -4q-48 -6 -96 -6q-51 0 -100 6q-11 2 -24 4.5t-24 2.5h-741l-14 14v463l-13 13v207l13 13v180l-13 14v206l13 14v463l14 14h741q10 0 22 2.5 t22 4.5q52 6 104 6zM1016 1574q-113 0 -219.5 -33t-199 -93.5t-165 -145.5t-116.5 -189l-24 -16h-139v-154h82l26 -30q-5 -25 -5.5 -50t-0.5 -50t0.5 -50t5.5 -50l-26 -30h-82v-154h139l24 -17q45 -105 117.5 -189.5t164 -144.5t198 -92.5t220.5 -32.5q181 0 342 81v304 q-71 -65 -158.5 -99t-183.5 -34q-56 0 -110.5 12t-104.5 35t-94.5 56t-79.5 77l20 44h270l84 154h-456l-26 21q-12 54 -12 109q0 28 2.5 55t9.5 54l26 21h599l84 154h-581l-20 43q72 85 174.5 133t214.5 48q76 0 149.5 -23t136.5 -66l122 223q-92 59 -195.5 89t-212.5 30z M1431 1357l-97 -176l-39 -8q-63 46 -132 70.5t-147 24.5q-85 0 -164.5 -29.5t-141.5 -88.5h560l26 -27q1 -5 -6 -21t-18.5 -38t-25.5 -47.5t-26.5 -48l-22.5 -40.5l-14 -24l-24 -14h-592q-4 -19 -5.5 -38.5t-1.5 -38.5q0 -20 1.5 -39t5.5 -38h479l23 -39l-113 -207l-23 -14 h-223q62 -59 141.5 -88.5t164.5 -29.5q102 0 192 42.5t156 120.5l47 -17v-386l-14 -24q-32 -15 -64 -29t-65 -25h163v1317zM763 40q-166 57 -291 166t-197 270h-135v-436h623zM140 1150h135q72 161 196.5 271.5t291.5 165.5h-623v-437zM140 736h65q-3 19 -3 38v78q0 19 3 38 h-65v-154zM1268 1587q43 -14 84 -32.5t79 -41.5v74h-163z" />
<glyph unicode="&#x25fc;" horiz-adv-x="1625" d="M0 1625h1625v-1625h-1625v1625z" />
<glyph horiz-adv-x="0" />
<glyph horiz-adv-x="1614" d="M127 1614h427q59 13 124 13h762l6 -13h42l13 -14v-898q13 -58 13 -124q0 -67 -13 -124v-427l-13 -14h-428q-65 -13 -124 -13q-61 0 -124 13h-382l-14 -13h-289l-27 27v1021q0 60 14 124v428zM936 53q218 0 371 153q154 155 154 372q0 186 -117 331q-119 144 -301 183 l-15 43l356 439h-706q-219 0 -371 -155q-76 -76 -114 -170q-40 -95 -40 -202v-995h237v995q0 58 22 111q21 52 62 93t94 63q55 22 110 22h167l21 -44l-268 -325l154 -167q78 66 184 66q119 0 203 -84q85 -84 85 -204q0 -121 -85 -204q-84 -84 -203 -84q-60 0 -111 21 q-40 17 -73 45l-168 -168q149 -135 352 -135zM724 40q-115 46 -198 129v37l206 206h37q35 -36 77 -51q40 -18 90 -18q97 0 166 69t69 166t-69 166t-166 69q-98 0 -167 -69h-37l-183 206l-2 35l242 298h-111q-46 0 -90 -17q-42 -18 -76 -51q-34 -34 -51 -76q-18 -44 -18 -91 v-1008h281zM1459 1587l1 -3l-365 -450q173 -50 290 -191q55 -69 89 -153v797h-15zM139 1260q1 2 4 10q45 105 126 188q85 85 197 129h-327v-327zM1345 169q-83 -83 -198 -129h327v326q-43 -111 -129 -197z" />
</font>
</defs>
</svg>
